<?xml version="1.0" encoding="UTF-8" standalone="no"?>
<!DOCTYPE svg PUBLIC "-//W3C//DTD SVG 1.1//EN"
 "http://www.w3.org/Graphics/SVG/1.1/DTD/svg11.dtd">
<!-- Generated by graphviz version 2.40.1 (20161225.0304)
 -->
<!-- Title: dependency&#45;cruiser output Pages: 1 -->
<svg width="607pt" height="478pt"
 viewBox="0.00 0.00 606.50 478.00" xmlns="http://www.w3.org/2000/svg" xmlns:xlink="http://www.w3.org/1999/xlink">
<g id="graph0" class="graph" transform="scale(1 1) rotate(0) translate(4 474)">
<title>dependency&#45;cruiser output</title>
<polygon fill="#ffffff" stroke="transparent" points="-4,4 -4,-474 602.5,-474 602.5,4 -4,4"/>
<g id="clust1" class="cluster">
<title>cluster_config</title>
<path fill="#ffffff" stroke="#000000" stroke-width="2" d="M337,-8C337,-8 578.5,-8 578.5,-8 584.5,-8 590.5,-14 590.5,-20 590.5,-20 590.5,-138 590.5,-138 590.5,-144 584.5,-150 578.5,-150 578.5,-150 337,-150 337,-150 331,-150 325,-144 325,-138 325,-138 325,-20 325,-20 325,-14 331,-8 337,-8"/>
<text text-anchor="middle" x="457.75" y="-138.8" font-family="Helvetica,sans-Serif" font-weight="bold" font-size="9.00" fill="#000000">config</text>
</g>
<g id="clust2" class="cluster">
<title>cluster_frontend&#45;src</title>
<path fill="#ffffff" stroke="#000000" stroke-width="2" d="M20,-186C20,-186 427.5,-186 427.5,-186 433.5,-186 439.5,-192 439.5,-198 439.5,-198 439.5,-450 439.5,-450 439.5,-456 433.5,-462 427.5,-462 427.5,-462 20,-462 20,-462 14,-462 8,-456 8,-450 8,-450 8,-198 8,-198 8,-192 14,-186 20,-186"/>
<text text-anchor="middle" x="223.75" y="-450.8" font-family="Helvetica,sans-Serif" font-weight="bold" font-size="9.00" fill="#000000">frontend&#45;src</text>
</g>
<g id="clust3" class="cluster">
<title>cluster_frontend&#45;src/multiselect</title>
<path fill="#ffffff" stroke="#000000" stroke-width="2" d="M341.5,-232C341.5,-232 419.5,-232 419.5,-232 425.5,-232 431.5,-238 431.5,-244 431.5,-244 431.5,-302 431.5,-302 431.5,-308 425.5,-314 419.5,-314 419.5,-314 341.5,-314 341.5,-314 335.5,-314 329.5,-308 329.5,-302 329.5,-302 329.5,-244 329.5,-244 329.5,-238 335.5,-232 341.5,-232"/>
<text text-anchor="middle" x="380.5" y="-302.8" font-family="Helvetica,sans-Serif" font-weight="bold" font-size="9.00" fill="#000000">multiselect</text>
</g>
<g id="clust4" class="cluster">
<title>cluster_model</title>
<path fill="#ffffff" stroke="#000000" stroke-width="2" d="M462,-172C462,-172 568,-172 568,-172 574,-172 580,-178 580,-184 580,-184 580,-212 580,-212 580,-218 574,-224 568,-224 568,-224 462,-224 462,-224 456,-224 450,-218 450,-212 450,-212 450,-184 450,-184 450,-178 456,-172 462,-172"/>
<text text-anchor="middle" x="515" y="-212.8" font-family="Helvetica,sans-Serif" font-weight="bold" font-size="9.00" fill="#000000">model</text>
</g>
<g id="clust5" class="cluster">
<title>cluster_shared</title>
<path fill="#ffffff" stroke="#000000" stroke-width="2" d="M227.5,-126C227.5,-126 302.5,-126 302.5,-126 308.5,-126 314.5,-132 314.5,-138 314.5,-138 314.5,-166 314.5,-166 314.5,-172 308.5,-178 302.5,-178 302.5,-178 227.5,-178 227.5,-178 221.5,-178 215.5,-172 215.5,-166 215.5,-166 215.5,-138 215.5,-138 215.5,-132 221.5,-126 227.5,-126"/>
<text text-anchor="middle" x="265" y="-166.8" font-family="Helvetica,sans-Serif" font-weight="bold" font-size="9.00" fill="#000000">shared</text>
</g>
<!-- config/Uganda_Districts_2020.json -->
<g id="node1" class="node">
<title>config/Uganda_Districts_2020.json</title>
<g id="a_node1"><a xlink:href="config/Uganda_Districts_2020.json" xlink:title="Uganda_Districts_2020.json">
<path fill="#ffee44" stroke="#000000" d="M575.5,-64C575.5,-64 454.5,-64 454.5,-64 451.5,-64 448.5,-61 448.5,-58 448.5,-58 448.5,-52 448.5,-52 448.5,-49 451.5,-46 454.5,-46 454.5,-46 575.5,-46 575.5,-46 578.5,-46 581.5,-49 581.5,-52 581.5,-52 581.5,-58 581.5,-58 581.5,-61 578.5,-64 575.5,-64"/>
<text text-anchor="middle" x="515" y="-52.8" font-family="Helvetica,sans-Serif" font-size="9.00" fill="#000000">Uganda_Districts_2020.json</text>
</a>
</g>
</g>
<!-- config/Uganda_Regions_2020.json -->
<g id="node2" class="node">
<title>config/Uganda_Regions_2020.json</title>
<g id="a_node2"><a xlink:href="config/Uganda_Regions_2020.json" xlink:title="Uganda_Regions_2020.json">
<path fill="#ffee44" stroke="#000000" d="M576.5,-34C576.5,-34 453.5,-34 453.5,-34 450.5,-34 447.5,-31 447.5,-28 447.5,-28 447.5,-22 447.5,-22 447.5,-19 450.5,-16 453.5,-16 453.5,-16 576.5,-16 576.5,-16 579.5,-16 582.5,-19 582.5,-22 582.5,-22 582.5,-28 582.5,-28 582.5,-31 579.5,-34 576.5,-34"/>
<text text-anchor="middle" x="515" y="-22.8" font-family="Helvetica,sans-Serif" font-size="9.00" fill="#000000">Uganda_Regions_2020.json</text>
</a>
</g>
</g>
<!-- config/mapDisplay.js -->
<g id="node3" class="node">
<title>config/mapDisplay.js</title>
<g id="a_node3"><a xlink:href="config/mapDisplay.js" xlink:title="mapDisplay.js">
<path fill="#ffffcc" stroke="#000000" d="M411.5,-124C411.5,-124 349.5,-124 349.5,-124 346.5,-124 343.5,-121 343.5,-118 343.5,-118 343.5,-112 343.5,-112 343.5,-109 346.5,-106 349.5,-106 349.5,-106 411.5,-106 411.5,-106 414.5,-106 417.5,-109 417.5,-112 417.5,-112 417.5,-118 417.5,-118 417.5,-121 414.5,-124 411.5,-124"/>
<text text-anchor="middle" x="380.5" y="-112.8" font-family="Helvetica,sans-Serif" font-size="9.00" fill="#000000">mapDisplay.js</text>
</a>
</g>
</g>
<!-- config/shapefiles.js -->
<g id="node4" class="node">
<title>config/shapefiles.js</title>
<g id="a_node4"><a xlink:href="config/shapefiles.js" xlink:title="shapefiles.js">
<path fill="#ffffcc" stroke="#000000" d="M408.5,-34C408.5,-34 352.5,-34 352.5,-34 349.5,-34 346.5,-31 346.5,-28 346.5,-28 346.5,-22 346.5,-22 346.5,-19 349.5,-16 352.5,-16 352.5,-16 408.5,-16 408.5,-16 411.5,-16 414.5,-19 414.5,-22 414.5,-22 414.5,-28 414.5,-28 414.5,-31 411.5,-34 408.5,-34"/>
<text text-anchor="middle" x="380.5" y="-22.8" font-family="Helvetica,sans-Serif" font-size="9.00" fill="#000000">shapefiles.js</text>
</a>
</g>
</g>
<!-- config/shapefiles.js&#45;&gt;config/Uganda_Districts_2020.json -->
<g id="edge1" class="edge">
<title>config/shapefiles.js&#45;&gt;config/Uganda_Districts_2020.json</title>
<path fill="none" stroke="#000000" stroke-width="2" stroke-opacity="0.200000" d="M414.5823,-32.6413C425.1333,-35.0039 436.7967,-37.6126 447.5,-40 454.1382,-41.4807 461.1443,-43.0406 468.0303,-44.5723"/>
<polygon fill="#000000" fill-opacity="0.200000" stroke="#000000" stroke-width="2" stroke-opacity="0.200000" points="467.9936,-46.7154 474.3065,-45.9679 468.9054,-42.6155 467.9936,-46.7154"/>
</g>
<!-- config/shapefiles.js&#45;&gt;config/Uganda_Regions_2020.json -->
<g id="edge2" class="edge">
<title>config/shapefiles.js&#45;&gt;config/Uganda_Regions_2020.json</title>
<path fill="none" stroke="#000000" stroke-width="2" stroke-opacity="0.200000" d="M414.788,-25C422.9602,-25 431.9951,-25 441.1952,-25"/>
<polygon fill="#000000" fill-opacity="0.200000" stroke="#000000" stroke-width="2" stroke-opacity="0.200000" points="441.2575,-27.1001 447.2575,-25 441.2574,-22.9001 441.2575,-27.1001"/>
</g>
<!-- config/tabVisualizations.js -->
<g id="node5" class="node">
<title>config/tabVisualizations.js</title>
<g id="a_node5"><a xlink:href="config/tabVisualizations.js" xlink:title="tabVisualizations.js">
<path fill="#ffffcc" stroke="#000000" d="M422,-64C422,-64 339,-64 339,-64 336,-64 333,-61 333,-58 333,-58 333,-52 333,-52 333,-49 336,-46 339,-46 339,-46 422,-46 422,-46 425,-46 428,-49 428,-52 428,-52 428,-58 428,-58 428,-61 425,-64 422,-64"/>
<text text-anchor="middle" x="380.5" y="-52.8" font-family="Helvetica,sans-Serif" font-size="9.00" fill="#000000">tabVisualizations.js</text>
</a>
</g>
</g>
<!-- config/visualizations.js -->
<g id="node6" class="node">
<title>config/visualizations.js</title>
<g id="a_node6"><a xlink:href="config/visualizations.js" xlink:title="visualizations.js">
<path fill="#ffffcc" stroke="#000000" d="M415,-94C415,-94 346,-94 346,-94 343,-94 340,-91 340,-88 340,-88 340,-82 340,-82 340,-79 343,-76 346,-76 346,-76 415,-76 415,-76 418,-76 421,-79 421,-82 421,-82 421,-88 421,-88 421,-91 418,-94 415,-94"/>
<text text-anchor="middle" x="380.5" y="-82.8" font-family="Helvetica,sans-Serif" font-size="9.00" fill="#000000">visualizations.js</text>
</a>
</g>
</g>
<!-- model/refrigeratorClasses.json -->
<g id="node7" class="node">
<title>model/refrigeratorClasses.json</title>
<g id="a_node7"><a xlink:href="model/refrigeratorClasses.json" xlink:title="refrigeratorClasses.json">
<path fill="#ffee44" stroke="#000000" d="M566,-198C566,-198 464,-198 464,-198 461,-198 458,-195 458,-192 458,-192 458,-186 458,-186 458,-183 461,-180 464,-180 464,-180 566,-180 566,-180 569,-180 572,-183 572,-186 572,-186 572,-192 572,-192 572,-195 569,-198 566,-198"/>
<text text-anchor="middle" x="515" y="-186.8" font-family="Helvetica,sans-Serif" font-size="9.00" fill="#000000">refrigeratorClasses.json</text>
</a>
</g>
</g>
<!-- config/visualizations.js&#45;&gt;model/refrigeratorClasses.json -->
<g id="edge3" class="edge">
<title>config/visualizations.js&#45;&gt;model/refrigeratorClasses.json</title>
<path fill="none" stroke="#000000" stroke-width="2" stroke-opacity="0.200000" d="M421.1167,-88.6649C428.0629,-91.0127 434.6053,-94.5942 439.5,-100 455.4895,-117.659 433.7491,-133.547 447.5,-153 455.2082,-163.9046 467.2741,-171.7968 479.0855,-177.3607"/>
<polygon fill="#000000" fill-opacity="0.200000" stroke="#000000" stroke-width="2" stroke-opacity="0.200000" points="478.5065,-179.4009 484.8432,-179.9081 480.2059,-175.56 478.5065,-179.4009"/>
</g>
<!-- frontend&#45;src/RegionSelector.js -->
<g id="node8" class="node">
<title>frontend&#45;src/RegionSelector.js</title>
<g id="a_node8"><a xlink:href="frontend-src/RegionSelector.js" xlink:title="RegionSelector.js">
<path fill="#ffffcc" stroke="#000000" d="M180,-362C180,-362 103,-362 103,-362 100,-362 97,-359 97,-356 97,-356 97,-350 97,-350 97,-347 100,-344 103,-344 103,-344 180,-344 180,-344 183,-344 186,-347 186,-350 186,-350 186,-356 186,-356 186,-359 183,-362 180,-362"/>
<text text-anchor="middle" x="141.5" y="-350.8" font-family="Helvetica,sans-Serif" font-size="9.00" fill="#000000">RegionSelector.js</text>
</a>
</g>
</g>
<!-- frontend&#45;src/basicMultiselect.js -->
<g id="node9" class="node">
<title>frontend&#45;src/basicMultiselect.js</title>
<g id="a_node9"><a xlink:href="frontend-src/basicMultiselect.js" xlink:title="basicMultiselect.js">
<path fill="#ffffcc" stroke="#000000" d="M304.5,-272C304.5,-272 225.5,-272 225.5,-272 222.5,-272 219.5,-269 219.5,-266 219.5,-266 219.5,-260 219.5,-260 219.5,-257 222.5,-254 225.5,-254 225.5,-254 304.5,-254 304.5,-254 307.5,-254 310.5,-257 310.5,-260 310.5,-260 310.5,-266 310.5,-266 310.5,-269 307.5,-272 304.5,-272"/>
<text text-anchor="middle" x="265" y="-260.8" font-family="Helvetica,sans-Serif" font-size="9.00" fill="#000000">basicMultiselect.js</text>
</a>
</g>
</g>
<!-- frontend&#45;src/multiselect/multiselect.min.js -->
<g id="node10" class="node">
<title>frontend&#45;src/multiselect/multiselect.min.js</title>
<g id="a_node10"><a xlink:href="frontend-src/multiselect/multiselect.min.js" xlink:title="multiselect.min.js">
<path fill="#ffffcc" stroke="#000000" d="M417.5,-258C417.5,-258 343.5,-258 343.5,-258 340.5,-258 337.5,-255 337.5,-252 337.5,-252 337.5,-246 337.5,-246 337.5,-243 340.5,-240 343.5,-240 343.5,-240 417.5,-240 417.5,-240 420.5,-240 423.5,-243 423.5,-246 423.5,-246 423.5,-252 423.5,-252 423.5,-255 420.5,-258 417.5,-258"/>
<text text-anchor="middle" x="380.5" y="-246.8" font-family="Helvetica,sans-Serif" font-size="9.00" fill="#000000">multiselect.min.js</text>
</a>
</g>
</g>
<!-- frontend&#45;src/basicMultiselect.js&#45;&gt;frontend&#45;src/multiselect/multiselect.min.js -->
<g id="edge4" class="edge">
<title>frontend&#45;src/basicMultiselect.js&#45;&gt;frontend&#45;src/multiselect/multiselect.min.js</title>
<path fill="none" stroke="#000000" stroke-width="2" stroke-opacity="0.200000" d="M310.6487,-257.4668C317.4074,-256.6476 324.3976,-255.8003 331.2263,-254.9726"/>
<polygon fill="#000000" fill-opacity="0.200000" stroke="#000000" stroke-width="2" stroke-opacity="0.200000" points="331.7371,-257.0261 337.4407,-254.2193 331.2316,-252.8566 331.7371,-257.0261"/>
</g>
<!-- frontend&#45;src/chartDrawer.js -->
<g id="node11" class="node">
<title>frontend&#45;src/chartDrawer.js</title>
<g id="a_node11"><a xlink:href="frontend-src/chartDrawer.js" xlink:title="chartDrawer.js">
<path fill="#ffffcc" stroke="#000000" d="M297,-302C297,-302 233,-302 233,-302 230,-302 227,-299 227,-296 227,-296 227,-290 227,-290 227,-287 230,-284 233,-284 233,-284 297,-284 297,-284 300,-284 303,-287 303,-290 303,-290 303,-296 303,-296 303,-299 300,-302 297,-302"/>
<text text-anchor="middle" x="265" y="-290.8" font-family="Helvetica,sans-Serif" font-size="9.00" fill="#000000">chartDrawer.js</text>
</a>
</g>
</g>
<!-- frontend&#45;src/colorScale.js -->
<g id="node12" class="node">
<title>frontend&#45;src/colorScale.js</title>
<g id="a_node12"><a xlink:href="frontend-src/colorScale.js" xlink:title="colorScale.js">
<path fill="#ffffcc" stroke="#000000" d="M409,-340C409,-340 352,-340 352,-340 349,-340 346,-337 346,-334 346,-334 346,-328 346,-328 346,-325 349,-322 352,-322 352,-322 409,-322 409,-322 412,-322 415,-325 415,-328 415,-328 415,-334 415,-334 415,-337 412,-340 409,-340"/>
<text text-anchor="middle" x="380.5" y="-328.8" font-family="Helvetica,sans-Serif" font-size="9.00" fill="#000000">colorScale.js</text>
</a>
</g>
</g>
<!-- frontend&#45;src/chartDrawer.js&#45;&gt;frontend&#45;src/colorScale.js -->
<g id="edge5" class="edge">
<title>frontend&#45;src/chartDrawer.js&#45;&gt;frontend&#45;src/colorScale.js</title>
<path fill="none" stroke="#000000" stroke-width="2" stroke-opacity="0.200000" d="M296.1888,-302.032C303.2112,-304.545 310.5039,-307.5486 317,-311 320.9249,-313.0853 320.989,-315.0857 325,-317 329.641,-319.215 334.6737,-321.1066 339.7499,-322.715"/>
<polygon fill="#000000" fill-opacity="0.200000" stroke="#000000" stroke-width="2" stroke-opacity="0.200000" points="339.359,-324.7892 345.7082,-324.4755 340.5492,-320.7614 339.359,-324.7892"/>
</g>
<!-- frontend&#45;src/selectors.js -->
<g id="node13" class="node">
<title>frontend&#45;src/selectors.js</title>
<g id="a_node13"><a xlink:href="frontend-src/selectors.js" xlink:title="selectors.js">
<path fill="#ffffcc" stroke="#000000" d="M405.5,-376C405.5,-376 355.5,-376 355.5,-376 352.5,-376 349.5,-373 349.5,-370 349.5,-370 349.5,-364 349.5,-364 349.5,-361 352.5,-358 355.5,-358 355.5,-358 405.5,-358 405.5,-358 408.5,-358 411.5,-361 411.5,-364 411.5,-364 411.5,-370 411.5,-370 411.5,-373 408.5,-376 405.5,-376"/>
<text text-anchor="middle" x="380.5" y="-364.8" font-family="Helvetica,sans-Serif" font-size="9.00" fill="#000000">selectors.js</text>
</a>
</g>
</g>
<!-- frontend&#45;src/chartDrawer.js&#45;&gt;frontend&#45;src/selectors.js -->
<g id="edge6" class="edge">
<title>frontend&#45;src/chartDrawer.js&#45;&gt;frontend&#45;src/selectors.js</title>
<path fill="none" stroke="#000000" stroke-width="2" stroke-opacity="0.200000" d="M303.0391,-300.9934C308.283,-303.4774 313.1727,-306.733 317,-311 327.6545,-322.8785 314.5157,-333.971 325,-346 329.918,-351.6427 336.515,-355.774 343.4417,-358.7973"/>
<polygon fill="#000000" fill-opacity="0.200000" stroke="#000000" stroke-width="2" stroke-opacity="0.200000" points="342.9551,-360.8615 349.3081,-361.0851 344.4812,-356.9485 342.9551,-360.8615"/>
</g>
<!-- frontend&#45;src/coordinates.js -->
<g id="node14" class="node">
<title>frontend&#45;src/coordinates.js</title>
<g id="a_node14"><a xlink:href="frontend-src/coordinates.js" xlink:title="coordinates.js">
<path fill="#ffffcc" stroke="#000000" d="M411.5,-212C411.5,-212 349.5,-212 349.5,-212 346.5,-212 343.5,-209 343.5,-206 343.5,-206 343.5,-200 343.5,-200 343.5,-197 346.5,-194 349.5,-194 349.5,-194 411.5,-194 411.5,-194 414.5,-194 417.5,-197 417.5,-200 417.5,-200 417.5,-206 417.5,-206 417.5,-209 414.5,-212 411.5,-212"/>
<text text-anchor="middle" x="380.5" y="-200.8" font-family="Helvetica,sans-Serif" font-size="9.00" fill="#000000">coordinates.js</text>
</a>
</g>
</g>
<!-- frontend&#45;src/coordinates.js&#45;&gt;model/refrigeratorClasses.json -->
<g id="edge7" class="edge">
<title>frontend&#45;src/coordinates.js&#45;&gt;model/refrigeratorClasses.json</title>
<path fill="none" stroke="#000000" stroke-width="2" stroke-opacity="0.200000" d="M417.6088,-199.1374C428.203,-198.0346 440.0557,-196.8009 451.7466,-195.584"/>
<polygon fill="#000000" fill-opacity="0.200000" stroke="#000000" stroke-width="2" stroke-opacity="0.200000" points="452.0877,-197.6599 457.838,-194.9499 451.6528,-193.4825 452.0877,-197.6599"/>
</g>
<!-- frontend&#45;src/exportController.js -->
<g id="node15" class="node">
<title>frontend&#45;src/exportController.js</title>
<g id="a_node15"><a xlink:href="frontend-src/exportController.js" xlink:title="exportController.js">
<path fill="#ffffcc" stroke="#000000" d="M181.5,-392C181.5,-392 101.5,-392 101.5,-392 98.5,-392 95.5,-389 95.5,-386 95.5,-386 95.5,-380 95.5,-380 95.5,-377 98.5,-374 101.5,-374 101.5,-374 181.5,-374 181.5,-374 184.5,-374 187.5,-377 187.5,-380 187.5,-380 187.5,-386 187.5,-386 187.5,-389 184.5,-392 181.5,-392"/>
<text text-anchor="middle" x="141.5" y="-380.8" font-family="Helvetica,sans-Serif" font-size="9.00" fill="#000000">exportController.js</text>
</a>
</g>
</g>
<!-- shared/exportOptions.js -->
<g id="node16" class="node">
<title>shared/exportOptions.js</title>
<g id="a_node16"><a xlink:href="shared/exportOptions.js" xlink:title="exportOptions.js">
<path fill="#ffffcc" stroke="#000000" d="M300.5,-152C300.5,-152 229.5,-152 229.5,-152 226.5,-152 223.5,-149 223.5,-146 223.5,-146 223.5,-140 223.5,-140 223.5,-137 226.5,-134 229.5,-134 229.5,-134 300.5,-134 300.5,-134 303.5,-134 306.5,-137 306.5,-140 306.5,-140 306.5,-146 306.5,-146 306.5,-149 303.5,-152 300.5,-152"/>
<text text-anchor="middle" x="265" y="-140.8" font-family="Helvetica,sans-Serif" font-size="9.00" fill="#000000">exportOptions.js</text>
</a>
</g>
</g>
<!-- frontend&#45;src/exportController.js&#45;&gt;shared/exportOptions.js -->
<g id="edge8" class="edge">
<title>frontend&#45;src/exportController.js&#45;&gt;shared/exportOptions.js</title>
<path fill="none" stroke="#000000" stroke-width="2" stroke-opacity="0.200000" d="M187.6556,-377.3149C192.3656,-375.0524 196.6429,-372.0265 200,-368 226.3911,-336.3459 193.5088,-219.312 213,-183 219.2385,-171.3777 230.4747,-162.0848 240.9101,-155.3922"/>
<polygon fill="#000000" fill-opacity="0.200000" stroke="#000000" stroke-width="2" stroke-opacity="0.200000" points="242.232,-157.0459 246.2634,-152.1308 240.0468,-153.4591 242.232,-157.0459"/>
</g>
<!-- frontend&#45;src/httpTools.js -->
<g id="node17" class="node">
<title>frontend&#45;src/httpTools.js</title>
<g id="a_node17"><a xlink:href="frontend-src/httpTools.js" xlink:title="httpTools.js">
<path fill="#ffffcc" stroke="#000000" d="M290.5,-404C290.5,-404 239.5,-404 239.5,-404 236.5,-404 233.5,-401 233.5,-398 233.5,-398 233.5,-392 233.5,-392 233.5,-389 236.5,-386 239.5,-386 239.5,-386 290.5,-386 290.5,-386 293.5,-386 296.5,-389 296.5,-392 296.5,-392 296.5,-398 296.5,-398 296.5,-401 293.5,-404 290.5,-404"/>
<text text-anchor="middle" x="265" y="-392.8" font-family="Helvetica,sans-Serif" font-size="9.00" fill="#000000">httpTools.js</text>
</a>
</g>
</g>
<!-- frontend&#45;src/exportController.js&#45;&gt;frontend&#45;src/httpTools.js -->
<g id="edge9" class="edge">
<title>frontend&#45;src/exportController.js&#45;&gt;frontend&#45;src/httpTools.js</title>
<path fill="none" stroke="#000000" stroke-width="2" stroke-opacity="0.200000" d="M187.8382,-387.5025C200.8962,-388.7713 214.9364,-390.1355 227.4138,-391.3479"/>
<polygon fill="#000000" fill-opacity="0.200000" stroke="#000000" stroke-width="2" stroke-opacity="0.200000" points="227.2274,-393.4396 233.4024,-391.9298 227.6336,-389.2593 227.2274,-393.4396"/>
</g>
<!-- frontend&#45;src/filter.css -->
<g id="node18" class="node">
<title>frontend&#45;src/filter.css</title>
<g id="a_node18"><a xlink:href="frontend-src/filter.css" xlink:title="filter.css">
<path fill="#ffffcc" stroke="#000000" d="M286,-346C286,-346 244,-346 244,-346 241,-346 238,-343 238,-340 238,-340 238,-334 238,-334 238,-331 241,-328 244,-328 244,-328 286,-328 286,-328 289,-328 292,-331 292,-334 292,-334 292,-340 292,-340 292,-343 289,-346 286,-346"/>
<text text-anchor="middle" x="265" y="-334.8" font-family="Helvetica,sans-Serif" font-size="9.00" fill="#000000">filter.css</text>
</a>
</g>
</g>
<!-- frontend&#45;src/filter.js -->
<g id="node19" class="node">
<title>frontend&#45;src/filter.js</title>
<g id="a_node19"><a xlink:href="frontend-src/filter.js" xlink:title="filter.js">
<path fill="#ffffcc" stroke="#000000" d="M162.5,-242C162.5,-242 120.5,-242 120.5,-242 117.5,-242 114.5,-239 114.5,-236 114.5,-236 114.5,-230 114.5,-230 114.5,-227 117.5,-224 120.5,-224 120.5,-224 162.5,-224 162.5,-224 165.5,-224 168.5,-227 168.5,-230 168.5,-230 168.5,-236 168.5,-236 168.5,-239 165.5,-242 162.5,-242"/>
<text text-anchor="middle" x="141.5" y="-230.8" font-family="Helvetica,sans-Serif" font-size="9.00" fill="#000000">filter.js</text>
</a>
</g>
</g>
<!-- frontend&#45;src/filter.js&#45;&gt;config/tabVisualizations.js -->
<g id="edge10" class="edge">
<title>frontend&#45;src/filter.js&#45;&gt;config/tabVisualizations.js</title>
<path fill="none" stroke="#000000" stroke-width="2" stroke-opacity="0.200000" d="M168.7899,-232.4229C180.0136,-230.734 192.1874,-226.767 200,-218 228.3522,-186.1841 187.8105,-157.3743 213,-123 239.5016,-86.8351 288.5858,-69.8574 326.796,-61.9144"/>
<polygon fill="#000000" fill-opacity="0.200000" stroke="#000000" stroke-width="2" stroke-opacity="0.200000" points="327.3543,-63.9446 332.8301,-60.7157 326.5358,-59.8252 327.3543,-63.9446"/>
</g>
<!-- frontend&#45;src/filter.js&#45;&gt;frontend&#45;src/basicMultiselect.js -->
<g id="edge11" class="edge">
<title>frontend&#45;src/filter.js&#45;&gt;frontend&#45;src/basicMultiselect.js</title>
<path fill="none" stroke="#000000" stroke-width="2" stroke-opacity="0.200000" d="M168.6026,-239.5836C184.1681,-243.3647 204.0763,-248.2007 221.7549,-252.4951"/>
<polygon fill="#000000" fill-opacity="0.200000" stroke="#000000" stroke-width="2" stroke-opacity="0.200000" points="221.3292,-254.5527 227.6553,-253.9284 222.3206,-250.4714 221.3292,-254.5527"/>
</g>
<!-- frontend&#45;src/filter.js&#45;&gt;frontend&#45;src/selectors.js -->
<g id="edge15" class="edge">
<title>frontend&#45;src/filter.js&#45;&gt;frontend&#45;src/selectors.js</title>
<path fill="none" stroke="#000000" stroke-width="2" stroke-opacity="0.200000" d="M168.5788,-233.4537C179.9023,-235.1016 192.213,-239.0706 200,-248 216.6132,-267.0503 194.437,-343.8439 213,-361 231.2293,-377.8477 299.5555,-374.9042 343.1087,-371.0661"/>
<polygon fill="#000000" fill-opacity="0.200000" stroke="#000000" stroke-width="2" stroke-opacity="0.200000" points="343.5622,-373.1335 349.3459,-370.4956 343.1795,-368.9509 343.5622,-373.1335"/>
</g>
<!-- frontend&#45;src/filter.js&#45;&gt;frontend&#45;src/filter.css -->
<g id="edge12" class="edge">
<title>frontend&#45;src/filter.js&#45;&gt;frontend&#45;src/filter.css</title>
<path fill="none" stroke="#000000" stroke-width="2" stroke-opacity="0.200000" d="M168.6042,-233.7464C179.7934,-235.4667 191.9917,-239.4113 200,-248 221.8775,-271.463 192.1056,-294.6575 213,-319 217.9098,-324.72 224.7331,-328.624 231.8239,-331.2879"/>
<polygon fill="#000000" fill-opacity="0.200000" stroke="#000000" stroke-width="2" stroke-opacity="0.200000" points="231.4514,-333.3756 237.807,-333.2467 232.7582,-329.3841 231.4514,-333.3756"/>
</g>
<!-- frontend&#45;src/groupedMultiselect.js -->
<g id="node20" class="node">
<title>frontend&#45;src/groupedMultiselect.js</title>
<g id="a_node20"><a xlink:href="frontend-src/groupedMultiselect.js" xlink:title="groupedMultiselect.js">
<path fill="#ffffcc" stroke="#000000" d="M311,-242C311,-242 219,-242 219,-242 216,-242 213,-239 213,-236 213,-236 213,-230 213,-230 213,-227 216,-224 219,-224 219,-224 311,-224 311,-224 314,-224 317,-227 317,-230 317,-230 317,-236 317,-236 317,-239 314,-242 311,-242"/>
<text text-anchor="middle" x="265" y="-230.8" font-family="Helvetica,sans-Serif" font-size="9.00" fill="#000000">groupedMultiselect.js</text>
</a>
</g>
</g>
<!-- frontend&#45;src/filter.js&#45;&gt;frontend&#45;src/groupedMultiselect.js -->
<g id="edge13" class="edge">
<title>frontend&#45;src/filter.js&#45;&gt;frontend&#45;src/groupedMultiselect.js</title>
<path fill="none" stroke="#000000" stroke-width="2" stroke-opacity="0.200000" d="M168.6026,-233C179.8091,-233 193.2666,-233 206.5224,-233"/>
<polygon fill="#000000" fill-opacity="0.200000" stroke="#000000" stroke-width="2" stroke-opacity="0.200000" points="206.5899,-235.1001 212.5899,-233 206.5899,-230.9001 206.5899,-235.1001"/>
</g>
<!-- frontend&#45;src/multiselect/multiselect.css -->
<g id="node21" class="node">
<title>frontend&#45;src/multiselect/multiselect.css</title>
<g id="a_node21"><a xlink:href="frontend-src/multiselect/multiselect.css" xlink:title="multiselect.css">
<path fill="#ffffcc" stroke="#000000" d="M412.5,-288C412.5,-288 348.5,-288 348.5,-288 345.5,-288 342.5,-285 342.5,-282 342.5,-282 342.5,-276 342.5,-276 342.5,-273 345.5,-270 348.5,-270 348.5,-270 412.5,-270 412.5,-270 415.5,-270 418.5,-273 418.5,-276 418.5,-276 418.5,-282 418.5,-282 418.5,-285 415.5,-288 412.5,-288"/>
<text text-anchor="middle" x="380.5" y="-276.8" font-family="Helvetica,sans-Serif" font-size="9.00" fill="#000000">multiselect.css</text>
</a>
</g>
</g>
<!-- frontend&#45;src/filter.js&#45;&gt;frontend&#45;src/multiselect/multiselect.css -->
<g id="edge14" class="edge">
<title>frontend&#45;src/filter.js&#45;&gt;frontend&#45;src/multiselect/multiselect.css</title>
<path fill="none" stroke="#000000" stroke-width="2" stroke-opacity="0.200000" d="M168.5379,-233.4896C179.8535,-235.1444 192.1693,-239.109 200,-248 230.788,-282.9568 178.0785,-321.172 213,-352 230.3259,-367.295 299.6116,-367.2239 317,-352 337.2411,-334.2786 306.9269,-311.9278 325,-292 328.2254,-288.4436 332.2217,-285.7682 336.5807,-283.7677"/>
<polygon fill="#000000" fill-opacity="0.200000" stroke="#000000" stroke-width="2" stroke-opacity="0.200000" points="337.4205,-285.6947 342.2654,-281.5792 335.9115,-281.7752 337.4205,-285.6947"/>
</g>
<!-- frontend&#45;src/groupedMultiselect.js&#45;&gt;frontend&#45;src/multiselect/multiselect.min.js -->
<g id="edge16" class="edge">
<title>frontend&#45;src/groupedMultiselect.js&#45;&gt;frontend&#45;src/multiselect/multiselect.min.js</title>
<path fill="none" stroke="#000000" stroke-width="2" stroke-opacity="0.200000" d="M317.006,-240.2043C321.8055,-240.8692 326.6584,-241.5414 331.4304,-242.2025"/>
<polygon fill="#000000" fill-opacity="0.200000" stroke="#000000" stroke-width="2" stroke-opacity="0.200000" points="331.1901,-244.2892 337.4215,-243.0324 331.7664,-240.1289 331.1901,-244.2892"/>
</g>
<!-- frontend&#45;src/index.js -->
<g id="node22" class="node">
<title>frontend&#45;src/index.js</title>
<g id="a_node22"><a xlink:href="frontend-src/index.js" xlink:title="index.js">
<path fill="#ffffcc" stroke="#000000" d="M64,-287C64,-287 22,-287 22,-287 19,-287 16,-284 16,-281 16,-281 16,-275 16,-275 16,-272 19,-269 22,-269 22,-269 64,-269 64,-269 67,-269 70,-272 70,-275 70,-275 70,-281 70,-281 70,-284 67,-287 64,-287"/>
<text text-anchor="middle" x="43" y="-275.8" font-family="Helvetica,sans-Serif" font-size="9.00" fill="#000000">index.js</text>
</a>
</g>
</g>
<!-- frontend&#45;src/index.js&#45;&gt;config/mapDisplay.js -->
<g id="edge17" class="edge">
<title>frontend&#45;src/index.js&#45;&gt;config/mapDisplay.js</title>
<path fill="none" stroke="#000000" stroke-width="2" stroke-opacity="0.200000" d="M44.8696,-268.9402C48.9284,-251.3017 60.0829,-211.9824 83,-188 127.6282,-141.2971 150.5025,-139.3373 213,-123 254.1,-112.2561 302.7659,-111.161 337.0197,-112.2057"/>
<polygon fill="#000000" fill-opacity="0.200000" stroke="#000000" stroke-width="2" stroke-opacity="0.200000" points="337.1729,-114.3123 343.2428,-112.4239 337.3201,-110.1149 337.1729,-114.3123"/>
</g>
<!-- frontend&#45;src/index.js&#45;&gt;config/shapefiles.js -->
<g id="edge18" class="edge">
<title>frontend&#45;src/index.js&#45;&gt;config/shapefiles.js</title>
<path fill="none" stroke="#000000" stroke-width="2" stroke-opacity="0.200000" d="M43.3087,-268.8668C44.7695,-231.5116 52.2603,-90.9666 83,-62 152.9048,3.8727 276.6267,-6 340.2458,-16.643"/>
<polygon fill="#000000" fill-opacity="0.200000" stroke="#000000" stroke-width="2" stroke-opacity="0.200000" points="339.9412,-18.7214 346.211,-17.6728 340.6557,-14.5826 339.9412,-18.7214"/>
</g>
<!-- frontend&#45;src/index.js&#45;&gt;config/tabVisualizations.js -->
<g id="edge19" class="edge">
<title>frontend&#45;src/index.js&#45;&gt;config/tabVisualizations.js</title>
<path fill="none" stroke="#000000" stroke-width="2" stroke-opacity="0.200000" d="M44.1013,-268.949C47.9263,-238.9992 61.5827,-143.8292 83,-123 148.3101,-59.4834 260.1068,-50.6144 326.4747,-51.6371"/>
<polygon fill="#000000" fill-opacity="0.200000" stroke="#000000" stroke-width="2" stroke-opacity="0.200000" points="326.7108,-53.7423 332.7525,-51.7655 326.7967,-49.5432 326.7108,-53.7423"/>
</g>
<!-- frontend&#45;src/index.js&#45;&gt;frontend&#45;src/RegionSelector.js -->
<g id="edge25" class="edge">
<title>frontend&#45;src/index.js&#45;&gt;frontend&#45;src/RegionSelector.js</title>
<path fill="none" stroke="#000000" stroke-width="2" stroke-opacity="0.200000" d="M46.6229,-287.2776C52.3109,-300.5965 64.619,-324.9635 83,-338 85.4882,-339.7647 88.1663,-341.322 90.9592,-342.6963"/>
<polygon fill="#000000" fill-opacity="0.200000" stroke="#000000" stroke-width="2" stroke-opacity="0.200000" points="90.4905,-344.7836 96.8289,-345.268 92.176,-340.9366 90.4905,-344.7836"/>
</g>
<!-- frontend&#45;src/index.js&#45;&gt;frontend&#45;src/selectors.js -->
<g id="edge26" class="edge">
<title>frontend&#45;src/index.js&#45;&gt;frontend&#45;src/selectors.js</title>
<path fill="none" stroke="#000000" stroke-width="2" stroke-opacity="0.200000" d="M44.0301,-287.3689C47.5446,-317.4163 60.1315,-410.4307 83,-428 165.5318,-491.4074 220.4041,-457.7458 317,-419 337.5481,-410.7579 356.5449,-393.3655 368.3043,-380.9661"/>
<polygon fill="#000000" fill-opacity="0.200000" stroke="#000000" stroke-width="2" stroke-opacity="0.200000" points="370.0625,-382.1576 372.5913,-376.3253 366.9774,-379.3077 370.0625,-382.1576"/>
</g>
<!-- frontend&#45;src/index.js&#45;&gt;frontend&#45;src/exportController.js -->
<g id="edge20" class="edge">
<title>frontend&#45;src/index.js&#45;&gt;frontend&#45;src/exportController.js</title>
<path fill="none" stroke="#000000" stroke-width="2" stroke-opacity="0.200000" d="M44.3938,-287.2283C47.6565,-305.5224 57.5367,-346.4746 83,-368 85.0718,-369.7514 87.3225,-371.3021 89.6947,-372.6746"/>
<polygon fill="#000000" fill-opacity="0.200000" stroke="#000000" stroke-width="2" stroke-opacity="0.200000" points="89.1204,-374.7369 95.4233,-375.5645 91.0122,-370.9871 89.1204,-374.7369"/>
</g>
<!-- frontend&#45;src/index.js&#45;&gt;frontend&#45;src/filter.js -->
<g id="edge21" class="edge">
<title>frontend&#45;src/index.js&#45;&gt;frontend&#45;src/filter.js</title>
<path fill="none" stroke="#000000" stroke-width="2" stroke-opacity="0.200000" d="M52.7978,-268.9021C60.4821,-262.2225 71.7295,-253.4061 83,-248 90.7593,-244.2781 99.5566,-241.4009 107.9286,-239.2093"/>
<polygon fill="#000000" fill-opacity="0.200000" stroke="#000000" stroke-width="2" stroke-opacity="0.200000" points="108.8972,-241.134 114.2237,-237.6644 107.8961,-237.0551 108.8972,-241.134"/>
</g>
<!-- frontend&#45;src/indicatorsController.js -->
<g id="node23" class="node">
<title>frontend&#45;src/indicatorsController.js</title>
<g id="a_node23"><a xlink:href="frontend-src/indicatorsController.js" xlink:title="indicatorsController.js">
<path fill="#ffffcc" stroke="#000000" d="M188.5,-272C188.5,-272 94.5,-272 94.5,-272 91.5,-272 88.5,-269 88.5,-266 88.5,-266 88.5,-260 88.5,-260 88.5,-257 91.5,-254 94.5,-254 94.5,-254 188.5,-254 188.5,-254 191.5,-254 194.5,-257 194.5,-260 194.5,-260 194.5,-266 194.5,-266 194.5,-269 191.5,-272 188.5,-272"/>
<text text-anchor="middle" x="141.5" y="-260.8" font-family="Helvetica,sans-Serif" font-size="9.00" fill="#000000">indicatorsController.js</text>
</a>
</g>
</g>
<!-- frontend&#45;src/index.js&#45;&gt;frontend&#45;src/indicatorsController.js -->
<g id="edge22" class="edge">
<title>frontend&#45;src/index.js&#45;&gt;frontend&#45;src/indicatorsController.js</title>
<path fill="none" stroke="#000000" stroke-width="2" stroke-opacity="0.200000" d="M70.1763,-273.8615C74.0022,-273.2788 78.0523,-272.6621 82.2017,-272.0302"/>
<polygon fill="#000000" fill-opacity="0.200000" stroke="#000000" stroke-width="2" stroke-opacity="0.200000" points="82.7222,-274.0752 88.3376,-271.0958 82.0898,-269.9231 82.7222,-274.0752"/>
</g>
<!-- frontend&#45;src/main.css -->
<g id="node24" class="node">
<title>frontend&#45;src/main.css</title>
<g id="a_node24"><a xlink:href="frontend-src/main.css" xlink:title="main.css">
<path fill="#ffffcc" stroke="#000000" d="M162.5,-302C162.5,-302 120.5,-302 120.5,-302 117.5,-302 114.5,-299 114.5,-296 114.5,-296 114.5,-290 114.5,-290 114.5,-287 117.5,-284 120.5,-284 120.5,-284 162.5,-284 162.5,-284 165.5,-284 168.5,-287 168.5,-290 168.5,-290 168.5,-296 168.5,-296 168.5,-299 165.5,-302 162.5,-302"/>
<text text-anchor="middle" x="141.5" y="-290.8" font-family="Helvetica,sans-Serif" font-size="9.00" fill="#000000">main.css</text>
</a>
</g>
</g>
<!-- frontend&#45;src/index.js&#45;&gt;frontend&#45;src/main.css -->
<g id="edge23" class="edge">
<title>frontend&#45;src/index.js&#45;&gt;frontend&#45;src/main.css</title>
<path fill="none" stroke="#000000" stroke-width="2" stroke-opacity="0.200000" d="M70.1763,-282.1385C82.0189,-283.942 96.0085,-286.0724 108.447,-287.9666"/>
<polygon fill="#000000" fill-opacity="0.200000" stroke="#000000" stroke-width="2" stroke-opacity="0.200000" points="108.1646,-290.0477 114.4124,-288.875 108.797,-285.8955 108.1646,-290.0477"/>
</g>
<!-- frontend&#45;src/map.js -->
<g id="node25" class="node">
<title>frontend&#45;src/map.js</title>
<g id="a_node25"><a xlink:href="frontend-src/map.js" xlink:title="map.js">
<path fill="#ffffcc" stroke="#000000" d="M162.5,-332C162.5,-332 120.5,-332 120.5,-332 117.5,-332 114.5,-329 114.5,-326 114.5,-326 114.5,-320 114.5,-320 114.5,-317 117.5,-314 120.5,-314 120.5,-314 162.5,-314 162.5,-314 165.5,-314 168.5,-317 168.5,-320 168.5,-320 168.5,-326 168.5,-326 168.5,-329 165.5,-332 162.5,-332"/>
<text text-anchor="middle" x="141.5" y="-320.8" font-family="Helvetica,sans-Serif" font-size="9.00" fill="#000000">map.js</text>
</a>
</g>
</g>
<!-- frontend&#45;src/index.js&#45;&gt;frontend&#45;src/map.js -->
<g id="edge24" class="edge">
<title>frontend&#45;src/index.js&#45;&gt;frontend&#45;src/map.js</title>
<path fill="none" stroke="#000000" stroke-width="2" stroke-opacity="0.200000" d="M52.7978,-287.0979C60.4821,-293.7775 71.7295,-302.5939 83,-308 90.7593,-311.7219 99.5566,-314.5991 107.9286,-316.7907"/>
<polygon fill="#000000" fill-opacity="0.200000" stroke="#000000" stroke-width="2" stroke-opacity="0.200000" points="107.8961,-318.9449 114.2237,-318.3356 108.8972,-314.866 107.8961,-318.9449"/>
</g>
<!-- frontend&#45;src/tabSelector.js -->
<g id="node26" class="node">
<title>frontend&#45;src/tabSelector.js</title>
<g id="a_node26"><a xlink:href="frontend-src/tabSelector.js" xlink:title="tabSelector.js">
<path fill="#ffffcc" stroke="#000000" d="M171.5,-422C171.5,-422 111.5,-422 111.5,-422 108.5,-422 105.5,-419 105.5,-416 105.5,-416 105.5,-410 105.5,-410 105.5,-407 108.5,-404 111.5,-404 111.5,-404 171.5,-404 171.5,-404 174.5,-404 177.5,-407 177.5,-410 177.5,-410 177.5,-416 177.5,-416 177.5,-419 174.5,-422 171.5,-422"/>
<text text-anchor="middle" x="141.5" y="-410.8" font-family="Helvetica,sans-Serif" font-size="9.00" fill="#000000">tabSelector.js</text>
</a>
</g>
</g>
<!-- frontend&#45;src/index.js&#45;&gt;frontend&#45;src/tabSelector.js -->
<g id="edge27" class="edge">
<title>frontend&#45;src/index.js&#45;&gt;frontend&#45;src/tabSelector.js</title>
<path fill="none" stroke="#000000" stroke-width="2" stroke-opacity="0.200000" d="M44.8519,-287.0674C50.1739,-312.2738 66.2092,-382.357 83,-398 87.6029,-402.2882 93.2616,-405.3903 99.2285,-407.6267"/>
<polygon fill="#000000" fill-opacity="0.200000" stroke="#000000" stroke-width="2" stroke-opacity="0.200000" points="98.9152,-409.7327 105.2704,-409.5864 100.211,-405.7376 98.9152,-409.7327"/>
</g>
<!-- frontend&#45;src/visualizationController.js -->
<g id="node27" class="node">
<title>frontend&#45;src/visualizationController.js</title>
<g id="a_node27"><a xlink:href="frontend-src/visualizationController.js" xlink:title="visualizationController.js">
<path fill="#ffffcc" stroke="#000000" d="M194,-212C194,-212 89,-212 89,-212 86,-212 83,-209 83,-206 83,-206 83,-200 83,-200 83,-197 86,-194 89,-194 89,-194 194,-194 194,-194 197,-194 200,-197 200,-200 200,-200 200,-206 200,-206 200,-209 197,-212 194,-212"/>
<text text-anchor="middle" x="141.5" y="-200.8" font-family="Helvetica,sans-Serif" font-size="9.00" fill="#000000">visualizationController.js</text>
</a>
</g>
</g>
<!-- frontend&#45;src/index.js&#45;&gt;frontend&#45;src/visualizationController.js -->
<g id="edge28" class="edge">
<title>frontend&#45;src/index.js&#45;&gt;frontend&#45;src/visualizationController.js</title>
<path fill="none" stroke="#000000" stroke-width="2" stroke-opacity="0.200000" d="M46.6229,-268.7224C52.3109,-255.4035 64.619,-231.0365 83,-218 84.6249,-216.8475 86.3309,-215.7835 88.0969,-214.8012"/>
<polygon fill="#000000" fill-opacity="0.200000" stroke="#000000" stroke-width="2" stroke-opacity="0.200000" points="89.1136,-216.6411 93.5542,-212.0923 87.2461,-212.879 89.1136,-216.6411"/>
</g>
<!-- frontend&#45;src/indicatorsController.js&#45;&gt;frontend&#45;src/httpTools.js -->
<g id="edge29" class="edge">
<title>frontend&#45;src/indicatorsController.js&#45;&gt;frontend&#45;src/httpTools.js</title>
<path fill="none" stroke="#000000" stroke-width="2" stroke-opacity="0.200000" d="M193.1609,-272.0986C195.6727,-273.772 197.9833,-275.7245 200,-278 229.4344,-311.2114 184.9558,-342.6066 213,-377 216.8487,-381.72 222.0052,-385.2055 227.5796,-387.7786"/>
<polygon fill="#000000" fill-opacity="0.200000" stroke="#000000" stroke-width="2" stroke-opacity="0.200000" points="226.9097,-389.7725 233.2602,-390.0594 228.4747,-385.875 226.9097,-389.7725"/>
</g>
<!-- frontend&#45;src/tabSelector.js&#45;&gt;frontend&#45;src/selectors.js -->
<g id="edge33" class="edge">
<title>frontend&#45;src/tabSelector.js&#45;&gt;frontend&#45;src/selectors.js</title>
<path fill="none" stroke="#000000" stroke-width="2" stroke-opacity="0.200000" d="M177.7561,-418.2874C213.9337,-422.209 270.6555,-424.6496 317,-410 335.6616,-404.101 353.8292,-390.7984 365.9169,-380.5398"/>
<polygon fill="#000000" fill-opacity="0.200000" stroke="#000000" stroke-width="2" stroke-opacity="0.200000" points="367.5675,-381.8866 370.7088,-376.3601 364.8067,-378.7215 367.5675,-381.8866"/>
</g>
<!-- frontend&#45;src/visualizationController.js&#45;&gt;config/visualizations.js -->
<g id="edge34" class="edge">
<title>frontend&#45;src/visualizationController.js&#45;&gt;config/visualizations.js</title>
<path fill="none" stroke="#000000" stroke-width="2" stroke-opacity="0.200000" d="M146.8936,-193.9032C157.3726,-177.0752 182.1827,-141.1503 213,-123 250.04,-101.1847 298.4796,-91.8887 333.7343,-87.93"/>
<polygon fill="#000000" fill-opacity="0.200000" stroke="#000000" stroke-width="2" stroke-opacity="0.200000" points="333.9709,-90.0168 339.7158,-87.2951 333.5276,-85.8402 333.9709,-90.0168"/>
</g>
<!-- frontend&#45;src/visualizationController.js&#45;&gt;frontend&#45;src/basicMultiselect.js -->
<g id="edge36" class="edge">
<title>frontend&#45;src/visualizationController.js&#45;&gt;frontend&#45;src/basicMultiselect.js</title>
<path fill="none" stroke="#000000" stroke-width="2" stroke-opacity="0.200000" d="M191.0608,-212.0559C194.265,-213.722 197.2883,-215.6859 200,-218 211.0536,-227.4328 202.0883,-238.4034 213,-248 214.0605,-248.9327 215.1758,-249.8076 216.3357,-250.6282"/>
<polygon fill="#000000" fill-opacity="0.200000" stroke="#000000" stroke-width="2" stroke-opacity="0.200000" points="215.461,-252.5547 221.676,-253.89 217.6502,-248.9704 215.461,-252.5547"/>
</g>
<!-- frontend&#45;src/visualizationController.js&#45;&gt;frontend&#45;src/chartDrawer.js -->
<g id="edge37" class="edge">
<title>frontend&#45;src/visualizationController.js&#45;&gt;frontend&#45;src/chartDrawer.js</title>
<path fill="none" stroke="#000000" stroke-width="2" stroke-opacity="0.200000" d="M192.6767,-212.1331C195.3442,-213.7938 197.8181,-215.7344 200,-218 218.9273,-237.6533 194.368,-258.0665 213,-278 215.3659,-280.5312 218.1291,-282.6444 221.1262,-284.4075"/>
<polygon fill="#000000" fill-opacity="0.200000" stroke="#000000" stroke-width="2" stroke-opacity="0.200000" points="220.4327,-286.4088 226.7379,-287.2177 222.3133,-282.6533 220.4327,-286.4088"/>
</g>
<!-- frontend&#45;src/visualizationController.js&#45;&gt;frontend&#45;src/selectors.js -->
<g id="edge40" class="edge">
<title>frontend&#45;src/visualizationController.js&#45;&gt;frontend&#45;src/selectors.js</title>
<path fill="none" stroke="#000000" stroke-width="2" stroke-opacity="0.200000" d="M193.1264,-212.1294C195.6468,-213.7951 197.9686,-215.7375 200,-218 227.0005,-248.0725 184.2848,-279.5603 213,-308 246.1375,-340.8195 281.0722,-292.2611 317,-322 325.6614,-329.1694 317.21,-337.8922 325,-346 330.1302,-351.3395 336.7545,-355.3361 343.6297,-358.323"/>
<polygon fill="#000000" fill-opacity="0.200000" stroke="#000000" stroke-width="2" stroke-opacity="0.200000" points="343.084,-360.3647 349.4365,-360.6018 344.6184,-356.455 343.084,-360.3647"/>
</g>
<!-- frontend&#45;src/visualizationController.js&#45;&gt;frontend&#45;src/httpTools.js -->
<g id="edge39" class="edge">
<title>frontend&#45;src/visualizationController.js&#45;&gt;frontend&#45;src/httpTools.js</title>
<path fill="none" stroke="#000000" stroke-width="2" stroke-opacity="0.200000" d="M193.2524,-212.0189C195.7416,-213.7121 198.0221,-215.6907 200,-218 219.4616,-240.7224 198.9654,-325.5786 213,-352 219.7534,-364.7138 232.0058,-375.1302 242.9215,-382.5251"/>
<polygon fill="#000000" fill-opacity="0.200000" stroke="#000000" stroke-width="2" stroke-opacity="0.200000" points="241.9657,-384.4081 248.1428,-385.9095 244.2502,-380.8837 241.9657,-384.4081"/>
</g>
<!-- frontend&#45;src/visualizationController.js&#45;&gt;frontend&#45;src/groupedMultiselect.js -->
<g id="edge38" class="edge">
<title>frontend&#45;src/visualizationController.js&#45;&gt;frontend&#45;src/groupedMultiselect.js</title>
<path fill="none" stroke="#000000" stroke-width="2" stroke-opacity="0.200000" d="M178.5541,-212.001C192.1069,-215.2932 207.56,-219.047 221.6162,-222.4614"/>
<polygon fill="#000000" fill-opacity="0.200000" stroke="#000000" stroke-width="2" stroke-opacity="0.200000" points="221.2191,-224.526 227.5452,-223.9017 222.2105,-220.4446 221.2191,-224.526"/>
</g>
<!-- frontend&#45;src/mapVisualization.js -->
<g id="node28" class="node">
<title>frontend&#45;src/mapVisualization.js</title>
<g id="a_node28"><a xlink:href="frontend-src/mapVisualization.js" xlink:title="mapVisualization.js">
<path fill="#ffffcc" stroke="#000000" d="M307,-212C307,-212 223,-212 223,-212 220,-212 217,-209 217,-206 217,-206 217,-200 217,-200 217,-197 220,-194 223,-194 223,-194 307,-194 307,-194 310,-194 313,-197 313,-200 313,-200 313,-206 313,-206 313,-209 310,-212 307,-212"/>
<text text-anchor="middle" x="265" y="-200.8" font-family="Helvetica,sans-Serif" font-size="9.00" fill="#000000">mapVisualization.js</text>
</a>
</g>
</g>
<!-- frontend&#45;src/visualizationController.js&#45;&gt;frontend&#45;src/mapVisualization.js -->
<g id="edge35" class="edge">
<title>frontend&#45;src/visualizationController.js&#45;&gt;frontend&#45;src/mapVisualization.js</title>
<path fill="none" stroke="#000000" stroke-width="2" stroke-opacity="0.200000" d="M200.3564,-203C203.7734,-203 207.2022,-203 210.6008,-203"/>
<polygon fill="#000000" fill-opacity="0.200000" stroke="#000000" stroke-width="2" stroke-opacity="0.200000" points="210.6768,-205.1001 216.6768,-203 210.6768,-200.9001 210.6768,-205.1001"/>
</g>
<!-- frontend&#45;src/mapVisualization.js&#45;&gt;config/mapDisplay.js -->
<g id="edge30" class="edge">
<title>frontend&#45;src/mapVisualization.js&#45;&gt;config/mapDisplay.js</title>
<path fill="none" stroke="#000000" stroke-width="2" stroke-opacity="0.200000" d="M291.995,-193.9932C300.3803,-190.5748 309.4079,-186.2216 317,-181 338.2361,-166.3945 358.0378,-143.8244 369.7077,-129.2312"/>
<polygon fill="#000000" fill-opacity="0.200000" stroke="#000000" stroke-width="2" stroke-opacity="0.200000" points="371.57,-130.2602 373.6268,-124.2453 368.2679,-127.6647 371.57,-130.2602"/>
</g>
<!-- frontend&#45;src/mapVisualization.js&#45;&gt;frontend&#45;src/selectors.js -->
<g id="edge32" class="edge">
<title>frontend&#45;src/mapVisualization.js&#45;&gt;frontend&#45;src/selectors.js</title>
<path fill="none" stroke="#000000" stroke-width="2" stroke-opacity="0.200000" d="M310.9006,-212.29C313.1712,-213.9122 315.2359,-215.8015 317,-218 334.836,-240.2289 308.0774,-323.0681 325,-346 329.6796,-352.3414 336.5185,-356.7681 343.8082,-359.8581"/>
<polygon fill="#000000" fill-opacity="0.200000" stroke="#000000" stroke-width="2" stroke-opacity="0.200000" points="343.0869,-361.8304 349.4423,-361.9701 344.5612,-357.8976 343.0869,-361.8304"/>
</g>
<!-- frontend&#45;src/mapVisualization.js&#45;&gt;frontend&#45;src/coordinates.js -->
<g id="edge31" class="edge">
<title>frontend&#45;src/mapVisualization.js&#45;&gt;frontend&#45;src/coordinates.js</title>
<path fill="none" stroke="#000000" stroke-width="2" stroke-opacity="0.200000" d="M313.3132,-203C321.1368,-203 329.1979,-203 336.9011,-203"/>
<polygon fill="#000000" fill-opacity="0.200000" stroke="#000000" stroke-width="2" stroke-opacity="0.200000" points="337.2745,-205.1001 343.2745,-203 337.2745,-200.9001 337.2745,-205.1001"/>
</g>
</g>
</svg>
