<?xml version="1.0" encoding="UTF-8" standalone="no"?>
<!DOCTYPE svg PUBLIC "-//W3C//DTD SVG 1.1//EN"
 "http://www.w3.org/Graphics/SVG/1.1/DTD/svg11.dtd">
<!-- Generated by graphviz version 2.43.0 (0)
 -->
<!-- Title: dependency&#45;cruiser output Pages: 1 -->
<svg width="724pt" height="715pt"
 viewBox="0.00 0.00 723.50 714.57" xmlns="http://www.w3.org/2000/svg" xmlns:xlink="http://www.w3.org/1999/xlink">
<g id="graph0" class="graph" transform="scale(1 1) rotate(0) translate(4 710.57)">
<title>dependency&#45;cruiser output</title>
<polygon fill="white" stroke="transparent" points="-4,4 -4,-710.57 719.5,-710.57 719.5,4 -4,4"/>
<g id="clust1" class="cluster">
<title>cluster_src</title>
<path fill="#ffffff" stroke="black" stroke-width="2" d="M20,-52.57C20,-52.57 695.5,-52.57 695.5,-52.57 701.5,-52.57 707.5,-58.57 707.5,-64.57 707.5,-64.57 707.5,-686.57 707.5,-686.57 707.5,-692.57 701.5,-698.57 695.5,-698.57 695.5,-698.57 20,-698.57 20,-698.57 14,-698.57 8,-692.57 8,-686.57 8,-686.57 8,-64.57 8,-64.57 8,-58.57 14,-52.57 20,-52.57"/>
<text text-anchor="middle" x="357.75" y="-687.37" font-family="Helvetica,sans-Serif" font-weight="bold" font-size="9.00">src</text>
</g>
<g id="clust2" class="cluster">
<title>cluster_src/config</title>
<path fill="#ffffff" stroke="black" stroke-width="2" d="M286.5,-530.57C286.5,-530.57 687.5,-530.57 687.5,-530.57 693.5,-530.57 699.5,-536.57 699.5,-542.57 699.5,-542.57 699.5,-660.57 699.5,-660.57 699.5,-666.57 693.5,-672.57 687.5,-672.57 687.5,-672.57 286.5,-672.57 286.5,-672.57 280.5,-672.57 274.5,-666.57 274.5,-660.57 274.5,-660.57 274.5,-542.57 274.5,-542.57 274.5,-536.57 280.5,-530.57 286.5,-530.57"/>
<text text-anchor="middle" x="487" y="-661.37" font-family="Helvetica,sans-Serif" font-weight="bold" font-size="9.00">config</text>
</g>
<g id="clust3" class="cluster">
<title>cluster_src/controller</title>
<path fill="#ffffff" stroke="black" stroke-width="2" d="M160,-261.57C160,-261.57 367,-261.57 367,-261.57 373,-261.57 379,-267.57 379,-273.57 379,-273.57 379,-421.57 379,-421.57 379,-427.57 373,-433.57 367,-433.57 367,-433.57 160,-433.57 160,-433.57 154,-433.57 148,-427.57 148,-421.57 148,-421.57 148,-273.57 148,-273.57 148,-267.57 154,-261.57 160,-261.57"/>
<text text-anchor="middle" x="263.5" y="-422.37" font-family="Helvetica,sans-Serif" font-weight="bold" font-size="9.00">controller</text>
</g>
<g id="clust4" class="cluster">
<title>cluster_src/model</title>
<path fill="#ffffff" stroke="black" stroke-width="2" d="M424,-380.57C424,-380.57 664.5,-380.57 664.5,-380.57 670.5,-380.57 676.5,-386.57 676.5,-392.57 676.5,-392.57 676.5,-510.57 676.5,-510.57 676.5,-516.57 670.5,-522.57 664.5,-522.57 664.5,-522.57 424,-522.57 424,-522.57 418,-522.57 412,-516.57 412,-510.57 412,-510.57 412,-392.57 412,-392.57 412,-386.57 418,-380.57 424,-380.57"/>
<text text-anchor="middle" x="544.25" y="-511.37" font-family="Helvetica,sans-Serif" font-weight="bold" font-size="9.00">model</text>
</g>
<g id="clust5" class="cluster">
<title>cluster_src/routes</title>
<path fill="#ffffff" stroke="black" stroke-width="2" d="M90,-119.57C90,-119.57 245.5,-119.57 245.5,-119.57 251.5,-119.57 257.5,-125.57 257.5,-131.57 257.5,-131.57 257.5,-189.57 257.5,-189.57 257.5,-195.57 251.5,-201.57 245.5,-201.57 245.5,-201.57 90,-201.57 90,-201.57 84,-201.57 78,-195.57 78,-189.57 78,-189.57 78,-131.57 78,-131.57 78,-125.57 84,-119.57 90,-119.57"/>
<text text-anchor="middle" x="167.75" y="-190.37" font-family="Helvetica,sans-Serif" font-weight="bold" font-size="9.00">routes</text>
</g>
<g id="clust6" class="cluster">
<title>cluster_src/shared</title>
<path fill="#ffffff" stroke="black" stroke-width="2" d="M277.5,-80.57C277.5,-80.57 514.5,-80.57 514.5,-80.57 520.5,-80.57 526.5,-86.57 526.5,-92.57 526.5,-92.57 526.5,-150.57 526.5,-150.57 526.5,-156.57 520.5,-162.57 514.5,-162.57 514.5,-162.57 277.5,-162.57 277.5,-162.57 271.5,-162.57 265.5,-156.57 265.5,-150.57 265.5,-150.57 265.5,-92.57 265.5,-92.57 265.5,-86.57 271.5,-80.57 277.5,-80.57"/>
<text text-anchor="middle" x="396" y="-151.37" font-family="Helvetica,sans-Serif" font-weight="bold" font-size="9.00">shared</text>
</g>
<g id="clust7" class="cluster">
<title>cluster_src/util</title>
<path fill="#ffffff" stroke="black" stroke-width="2" d="M414.5,-170.57C414.5,-170.57 664.5,-170.57 664.5,-170.57 670.5,-170.57 676.5,-176.57 676.5,-182.57 676.5,-182.57 676.5,-360.57 676.5,-360.57 676.5,-366.57 670.5,-372.57 664.5,-372.57 664.5,-372.57 414.5,-372.57 414.5,-372.57 408.5,-372.57 402.5,-366.57 402.5,-360.57 402.5,-360.57 402.5,-182.57 402.5,-182.57 402.5,-176.57 408.5,-170.57 414.5,-170.57"/>
<text text-anchor="middle" x="539.5" y="-361.37" font-family="Helvetica,sans-Serif" font-weight="bold" font-size="9.00">util</text>
</g>
<!-- fs -->
<g id="node1" class="node">
<title>fs</title>
<g id="a_node1"><a xlink:title="fs">
<path fill="#ffffcc" stroke="grey" d="M134,-44.57C134,-44.57 92,-44.57 92,-44.57 89,-44.57 86,-41.57 86,-38.57 86,-38.57 86,-32.57 86,-32.57 86,-29.57 89,-26.57 92,-26.57 92,-26.57 134,-26.57 134,-26.57 137,-26.57 140,-29.57 140,-32.57 140,-32.57 140,-38.57 140,-38.57 140,-41.57 137,-44.57 134,-44.57"/>
<text text-anchor="middle" x="113" y="-33.37" font-family="Helvetica,sans-Serif" font-size="9.00" fill="grey">fs</text>
</a>
</g>
</g>
<!-- package.json -->
<g id="node2" class="node">
<title>package.json</title>
<g id="a_node2"><a xlink:href="package.json" xlink:title="package.json">
<path fill="#ffee44" stroke="black" d="M363.5,-44.57C363.5,-44.57 304.5,-44.57 304.5,-44.57 301.5,-44.57 298.5,-41.57 298.5,-38.57 298.5,-38.57 298.5,-32.57 298.5,-32.57 298.5,-29.57 301.5,-26.57 304.5,-26.57 304.5,-26.57 363.5,-26.57 363.5,-26.57 366.5,-26.57 369.5,-29.57 369.5,-32.57 369.5,-32.57 369.5,-38.57 369.5,-38.57 369.5,-41.57 366.5,-44.57 363.5,-44.57"/>
<text text-anchor="middle" x="334" y="-33.37" font-family="Helvetica,sans-Serif" font-size="9.00">package.json</text>
</a>
</g>
</g>
<!-- path -->
<g id="node3" class="node">
<title>path</title>
<g id="a_node3"><a xlink:title="path">
<path fill="#ffffcc" stroke="grey" d="M645,-30.57C645,-30.57 603,-30.57 603,-30.57 600,-30.57 597,-27.57 597,-24.57 597,-24.57 597,-18.57 597,-18.57 597,-15.57 600,-12.57 603,-12.57 603,-12.57 645,-12.57 645,-12.57 648,-12.57 651,-15.57 651,-18.57 651,-18.57 651,-24.57 651,-24.57 651,-27.57 648,-30.57 645,-30.57"/>
<text text-anchor="middle" x="624" y="-19.37" font-family="Helvetica,sans-Serif" font-size="9.00" fill="grey">path</text>
</a>
</g>
</g>
<!-- src/config/Uganda_Districts_2020.json -->
<g id="node4" class="node">
<title>src/config/Uganda_Districts_2020.json</title>
<g id="a_node4"><a xlink:href="src/config/Uganda_Districts_2020.json" xlink:title="Uganda_Districts_2020.json">
<path fill="#ffee44" stroke="black" d="M684.5,-593.57C684.5,-593.57 563.5,-593.57 563.5,-593.57 560.5,-593.57 557.5,-590.57 557.5,-587.57 557.5,-587.57 557.5,-581.57 557.5,-581.57 557.5,-578.57 560.5,-575.57 563.5,-575.57 563.5,-575.57 684.5,-575.57 684.5,-575.57 687.5,-575.57 690.5,-578.57 690.5,-581.57 690.5,-581.57 690.5,-587.57 690.5,-587.57 690.5,-590.57 687.5,-593.57 684.5,-593.57"/>
<text text-anchor="start" x="565.5" y="-582.37" font-family="Helvetica,sans-Serif" font-size="9.00">Uganda_Districts_2020.json</text>
</a>
</g>
</g>
<!-- src/config/Uganda_Regions_2020.json -->
<g id="node5" class="node">
<title>src/config/Uganda_Regions_2020.json</title>
<g id="a_node5"><a xlink:href="src/config/Uganda_Regions_2020.json" xlink:title="Uganda_Regions_2020.json">
<path fill="#ffee44" stroke="black" d="M685.5,-623.57C685.5,-623.57 562.5,-623.57 562.5,-623.57 559.5,-623.57 556.5,-620.57 556.5,-617.57 556.5,-617.57 556.5,-611.57 556.5,-611.57 556.5,-608.57 559.5,-605.57 562.5,-605.57 562.5,-605.57 685.5,-605.57 685.5,-605.57 688.5,-605.57 691.5,-608.57 691.5,-611.57 691.5,-611.57 691.5,-617.57 691.5,-617.57 691.5,-620.57 688.5,-623.57 685.5,-623.57"/>
<text text-anchor="start" x="564.5" y="-612.37" font-family="Helvetica,sans-Serif" font-size="9.00">Uganda_Regions_2020.json</text>
</a>
</g>
</g>
<!-- src/config/computedColumns.js -->
<g id="node6" class="node">
<title>src/config/computedColumns.js</title>
<g id="a_node6"><a xlink:href="src/config/computedColumns.js" xlink:title="computedColumns.js">
<path fill="#ffffcc" stroke="black" d="M379.5,-616.57C379.5,-616.57 288.5,-616.57 288.5,-616.57 285.5,-616.57 282.5,-613.57 282.5,-610.57 282.5,-610.57 282.5,-604.57 282.5,-604.57 282.5,-601.57 285.5,-598.57 288.5,-598.57 288.5,-598.57 379.5,-598.57 379.5,-598.57 382.5,-598.57 385.5,-601.57 385.5,-604.57 385.5,-604.57 385.5,-610.57 385.5,-610.57 385.5,-613.57 382.5,-616.57 379.5,-616.57"/>
<text text-anchor="start" x="290.5" y="-605.37" font-family="Helvetica,sans-Serif" font-size="9.00">computedColumns.js</text>
</a>
</g>
</g>
<!-- src/model/refrigeratorClasses.json -->
<g id="node7" class="node">
<title>src/model/refrigeratorClasses.json</title>
<g id="a_node7"><a xlink:href="src/model/refrigeratorClasses.json" xlink:title="refrigeratorClasses.json">
<path fill="#ffee44" stroke="black" d="M528,-496.57C528,-496.57 426,-496.57 426,-496.57 423,-496.57 420,-493.57 420,-490.57 420,-490.57 420,-484.57 420,-484.57 420,-481.57 423,-478.57 426,-478.57 426,-478.57 528,-478.57 528,-478.57 531,-478.57 534,-481.57 534,-484.57 534,-484.57 534,-490.57 534,-490.57 534,-493.57 531,-496.57 528,-496.57"/>
<text text-anchor="start" x="428" y="-485.37" font-family="Helvetica,sans-Serif" font-size="9.00">refrigeratorClasses.json</text>
</a>
</g>
</g>
<!-- src/config/computedColumns.js&#45;&gt;src/model/refrigeratorClasses.json -->
<g id="edge1" class="edge">
<title>src/config/computedColumns.js&#45;&gt;src/model/refrigeratorClasses.json</title>
<path fill="none" stroke="#000000" stroke-width="2" stroke-opacity="0.200000" d="M385.68,-599.75C388.96,-597.81 391.96,-595.45 394.5,-592.57 413.76,-570.75 386.13,-551.64 402.5,-527.57 411.37,-514.54 425.92,-505.37 439.75,-499.13"/>
<polygon fill="#000000" fill-opacity="0.200000" stroke="#000000" stroke-width="2" stroke-opacity="0.200000" points="440.91,-500.92 445.61,-496.63 439.27,-497.05 440.91,-500.92"/>
</g>
<!-- src/config/filterSpecification.js -->
<g id="node8" class="node">
<title>src/config/filterSpecification.js</title>
<g id="a_node8"><a xlink:href="src/config/filterSpecification.js" xlink:title="filterSpecification.js">
<path fill="#ffffcc" stroke="black" d="M375.5,-586.57C375.5,-586.57 292.5,-586.57 292.5,-586.57 289.5,-586.57 286.5,-583.57 286.5,-580.57 286.5,-580.57 286.5,-574.57 286.5,-574.57 286.5,-571.57 289.5,-568.57 292.5,-568.57 292.5,-568.57 375.5,-568.57 375.5,-568.57 378.5,-568.57 381.5,-571.57 381.5,-574.57 381.5,-574.57 381.5,-580.57 381.5,-580.57 381.5,-583.57 378.5,-586.57 375.5,-586.57"/>
<text text-anchor="start" x="294.5" y="-575.37" font-family="Helvetica,sans-Serif" font-size="9.00">filterSpecification.js</text>
</a>
</g>
</g>
<!-- src/config/filterSpecification.js&#45;&gt;src/model/refrigeratorClasses.json -->
<g id="edge4" class="edge">
<title>src/config/filterSpecification.js&#45;&gt;src/model/refrigeratorClasses.json</title>
<path fill="none" stroke="#000000" stroke-width="2" stroke-opacity="0.200000" d="M381.64,-571.33C386.42,-569.16 390.85,-566.31 394.5,-562.57 405.66,-551.17 392.86,-540.29 402.5,-527.57 412.34,-514.59 427.66,-505.31 441.77,-498.98"/>
<polygon fill="#000000" fill-opacity="0.200000" stroke="#000000" stroke-width="2" stroke-opacity="0.200000" points="442.62,-500.9 447.31,-496.61 440.97,-497.03 442.62,-500.9"/>
</g>
<!-- src/config/geographicBoundaries.js -->
<g id="node9" class="node">
<title>src/config/geographicBoundaries.js</title>
<g id="a_node9"><a xlink:href="src/config/geographicBoundaries.js" xlink:title="geographicBoundaries.js">
<path fill="#ffffcc" stroke="black" d="M530.5,-608.57C530.5,-608.57 423.5,-608.57 423.5,-608.57 420.5,-608.57 417.5,-605.57 417.5,-602.57 417.5,-602.57 417.5,-596.57 417.5,-596.57 417.5,-593.57 420.5,-590.57 423.5,-590.57 423.5,-590.57 530.5,-590.57 530.5,-590.57 533.5,-590.57 536.5,-593.57 536.5,-596.57 536.5,-596.57 536.5,-602.57 536.5,-602.57 536.5,-605.57 533.5,-608.57 530.5,-608.57"/>
<text text-anchor="start" x="425.5" y="-597.37" font-family="Helvetica,sans-Serif" font-size="9.00">geographicBoundaries.js</text>
</a>
</g>
</g>
<!-- src/config/filterSpecification.js&#45;&gt;src/config/geographicBoundaries.js -->
<g id="edge2" class="edge">
<title>src/config/filterSpecification.js&#45;&gt;src/config/geographicBoundaries.js</title>
<path fill="none" stroke="#000000" stroke-width="2" stroke-opacity="0.200000" d="M381.56,-584.84C391.35,-586.37 401.84,-588 412.14,-589.61"/>
<polygon fill="#000000" fill-opacity="0.200000" stroke="#000000" stroke-width="2" stroke-opacity="0.200000" points="411.92,-591.7 418.17,-590.55 412.57,-587.55 411.92,-591.7"/>
</g>
<!-- src/model/facilityClasses.json -->
<g id="node10" class="node">
<title>src/model/facilityClasses.json</title>
<g id="a_node10"><a xlink:href="src/model/facilityClasses.json" xlink:title="facilityClasses.json">
<path fill="#ffee44" stroke="black" d="M518.5,-466.57C518.5,-466.57 435.5,-466.57 435.5,-466.57 432.5,-466.57 429.5,-463.57 429.5,-460.57 429.5,-460.57 429.5,-454.57 429.5,-454.57 429.5,-451.57 432.5,-448.57 435.5,-448.57 435.5,-448.57 518.5,-448.57 518.5,-448.57 521.5,-448.57 524.5,-451.57 524.5,-454.57 524.5,-454.57 524.5,-460.57 524.5,-460.57 524.5,-463.57 521.5,-466.57 518.5,-466.57"/>
<text text-anchor="start" x="437.5" y="-455.37" font-family="Helvetica,sans-Serif" font-size="9.00">facilityClasses.json</text>
</a>
</g>
</g>
<!-- src/config/filterSpecification.js&#45;&gt;src/model/facilityClasses.json -->
<g id="edge3" class="edge">
<title>src/config/filterSpecification.js&#45;&gt;src/model/facilityClasses.json</title>
<path fill="none" stroke="#000000" stroke-width="2" stroke-opacity="0.200000" d="M381.57,-572.07C386.49,-569.79 390.97,-566.71 394.5,-562.57 407.53,-547.3 389.12,-487.55 402.5,-472.57 408.03,-466.38 415.37,-462.34 423.26,-459.77"/>
<polygon fill="#000000" fill-opacity="0.200000" stroke="#000000" stroke-width="2" stroke-opacity="0.200000" points="424.17,-461.7 429.39,-458.08 423.05,-457.65 424.17,-461.7"/>
</g>
<!-- src/config/geographicBoundaries.js&#45;&gt;src/config/Uganda_Districts_2020.json -->
<g id="edge5" class="edge">
<title>src/config/geographicBoundaries.js&#45;&gt;src/config/Uganda_Districts_2020.json</title>
<path fill="none" stroke="#000000" stroke-width="2" stroke-opacity="0.200000" d="M536.56,-593.52C541.31,-593.02 546.15,-592.52 550.98,-592.02"/>
<polygon fill="#000000" fill-opacity="0.200000" stroke="#000000" stroke-width="2" stroke-opacity="0.200000" points="551.34,-594.1 557.09,-591.39 550.91,-589.92 551.34,-594.1"/>
</g>
<!-- src/config/geographicBoundaries.js&#45;&gt;src/config/Uganda_Regions_2020.json -->
<g id="edge6" class="edge">
<title>src/config/geographicBoundaries.js&#45;&gt;src/config/Uganda_Regions_2020.json</title>
<path fill="none" stroke="#000000" stroke-width="2" stroke-opacity="0.200000" d="M536.56,-605.63C540.99,-606.09 545.49,-606.56 550,-607.02"/>
<polygon fill="#000000" fill-opacity="0.200000" stroke="#000000" stroke-width="2" stroke-opacity="0.200000" points="549.95,-609.13 556.14,-607.66 550.39,-604.95 549.95,-609.13"/>
</g>
<!-- src/config/tabVisualizations.js -->
<g id="node11" class="node">
<title>src/config/tabVisualizations.js</title>
<g id="a_node11"><a xlink:href="src/config/tabVisualizations.js" xlink:title="tabVisualizations.js">
<path fill="#ffffcc" stroke="black" d="M375.5,-556.57C375.5,-556.57 292.5,-556.57 292.5,-556.57 289.5,-556.57 286.5,-553.57 286.5,-550.57 286.5,-550.57 286.5,-544.57 286.5,-544.57 286.5,-541.57 289.5,-538.57 292.5,-538.57 292.5,-538.57 375.5,-538.57 375.5,-538.57 378.5,-538.57 381.5,-541.57 381.5,-544.57 381.5,-544.57 381.5,-550.57 381.5,-550.57 381.5,-553.57 378.5,-556.57 375.5,-556.57"/>
<text text-anchor="start" x="294.5" y="-545.37" font-family="Helvetica,sans-Serif" font-size="9.00">tabVisualizations.js</text>
</a>
</g>
</g>
<!-- src/config/visualizations.js -->
<g id="node12" class="node">
<title>src/config/visualizations.js</title>
<g id="a_node12"><a xlink:href="src/config/visualizations.js" xlink:title="visualizations.js">
<path fill="#ffffcc" stroke="black" d="M368.5,-646.57C368.5,-646.57 299.5,-646.57 299.5,-646.57 296.5,-646.57 293.5,-643.57 293.5,-640.57 293.5,-640.57 293.5,-634.57 293.5,-634.57 293.5,-631.57 296.5,-628.57 299.5,-628.57 299.5,-628.57 368.5,-628.57 368.5,-628.57 371.5,-628.57 374.5,-631.57 374.5,-634.57 374.5,-634.57 374.5,-640.57 374.5,-640.57 374.5,-643.57 371.5,-646.57 368.5,-646.57"/>
<text text-anchor="start" x="301.5" y="-635.37" font-family="Helvetica,sans-Serif" font-size="9.00">visualizations.js</text>
</a>
</g>
</g>
<!-- src/controller/filterOptions.js -->
<g id="node13" class="node">
<title>src/controller/filterOptions.js</title>
<g id="a_node13"><a xlink:href="src/controller/filterOptions.js" xlink:title="filterOptions.js">
<path fill="#ffffcc" stroke="black" d="M365,-314.57C365,-314.57 303,-314.57 303,-314.57 300,-314.57 297,-311.57 297,-308.57 297,-308.57 297,-302.57 297,-302.57 297,-299.57 300,-296.57 303,-296.57 303,-296.57 365,-296.57 365,-296.57 368,-296.57 371,-299.57 371,-302.57 371,-302.57 371,-308.57 371,-308.57 371,-311.57 368,-314.57 365,-314.57"/>
<text text-anchor="start" x="305" y="-303.37" font-family="Helvetica,sans-Serif" font-size="9.00">filterOptions.js</text>
</a>
</g>
</g>
<!-- src/util/mergeFilterOptions.js -->
<g id="node14" class="node">
<title>src/util/mergeFilterOptions.js</title>
<g id="a_node14"><a xlink:href="src/util/mergeFilterOptions.js" xlink:title="mergeFilterOptions.js">
<path fill="#ffffcc" stroke="black" d="M523,-346.57C523,-346.57 431,-346.57 431,-346.57 428,-346.57 425,-343.57 425,-340.57 425,-340.57 425,-334.57 425,-334.57 425,-331.57 428,-328.57 431,-328.57 431,-328.57 523,-328.57 523,-328.57 526,-328.57 529,-331.57 529,-334.57 529,-334.57 529,-340.57 529,-340.57 529,-343.57 526,-346.57 523,-346.57"/>
<text text-anchor="start" x="433" y="-335.37" font-family="Helvetica,sans-Serif" font-size="9.00">mergeFilterOptions.js</text>
</a>
</g>
</g>
<!-- src/controller/filterOptions.js&#45;&gt;src/util/mergeFilterOptions.js -->
<g id="edge7" class="edge">
<title>src/controller/filterOptions.js&#45;&gt;src/util/mergeFilterOptions.js</title>
<path fill="none" stroke="#000000" stroke-width="2" stroke-opacity="0.200000" d="M369.61,-314.61C380.15,-317.28 391.78,-320.13 402.5,-322.57 409.44,-324.16 416.78,-325.75 424.01,-327.27"/>
<polygon fill="#000000" fill-opacity="0.200000" stroke="#000000" stroke-width="2" stroke-opacity="0.200000" points="423.76,-329.36 430.06,-328.53 424.61,-325.25 423.76,-329.36"/>
</g>
<!-- src/controller/formatResponse.js -->
<g id="node15" class="node">
<title>src/controller/formatResponse.js</title>
<g id="a_node15"><a xlink:href="src/controller/formatResponse.js" xlink:title="formatResponse.js">
<path fill="#ffffcc" stroke="black" d="M243,-407.57C243,-407.57 162,-407.57 162,-407.57 159,-407.57 156,-404.57 156,-401.57 156,-401.57 156,-395.57 156,-395.57 156,-392.57 159,-389.57 162,-389.57 162,-389.57 243,-389.57 243,-389.57 246,-389.57 249,-392.57 249,-395.57 249,-395.57 249,-401.57 249,-401.57 249,-404.57 246,-407.57 243,-407.57"/>
<text text-anchor="start" x="164" y="-396.37" font-family="Helvetica,sans-Serif" font-size="9.00">formatResponse.js</text>
</a>
</g>
</g>
<!-- src/controller/formatResponse.js&#45;&gt;src/config/visualizations.js -->
<g id="edge8" class="edge">
<title>src/controller/formatResponse.js&#45;&gt;src/config/visualizations.js</title>
<path fill="none" stroke="#000000" stroke-width="2" stroke-opacity="0.200000" d="M223.33,-407.61C235.5,-414.3 250.11,-424.66 257.5,-438.57 267.1,-456.65 252.35,-606.89 265.5,-622.57 271.14,-629.3 279.07,-633.41 287.51,-635.84"/>
<polygon fill="#000000" fill-opacity="0.200000" stroke="#000000" stroke-width="2" stroke-opacity="0.200000" points="287.09,-637.9 293.42,-637.28 288.08,-633.82 287.09,-637.9"/>
</g>
<!-- src/controller/getIndexData.js -->
<g id="node16" class="node">
<title>src/controller/getIndexData.js</title>
<g id="a_node16"><a xlink:href="src/controller/getIndexData.js" xlink:title="getIndexData.js">
<path fill="#ffffcc" stroke="black" d="M236.5,-287.57C236.5,-287.57 168.5,-287.57 168.5,-287.57 165.5,-287.57 162.5,-284.57 162.5,-281.57 162.5,-281.57 162.5,-275.57 162.5,-275.57 162.5,-272.57 165.5,-269.57 168.5,-269.57 168.5,-269.57 236.5,-269.57 236.5,-269.57 239.5,-269.57 242.5,-272.57 242.5,-275.57 242.5,-275.57 242.5,-281.57 242.5,-281.57 242.5,-284.57 239.5,-287.57 236.5,-287.57"/>
<text text-anchor="start" x="170.5" y="-276.37" font-family="Helvetica,sans-Serif" font-size="9.00">getIndexData.js</text>
</a>
</g>
</g>
<!-- src/controller/getIndexData.js&#45;&gt;package.json -->
<g id="edge9" class="edge">
<title>src/controller/getIndexData.js&#45;&gt;package.json</title>
<path fill="none" stroke="#000000" stroke-width="2" stroke-opacity="0.200000" d="M212.81,-269.57C225.53,-256.57 247.88,-231.2 257.5,-204.57 267.11,-177.98 251,-101.85 265.5,-77.57 273.68,-63.89 288.21,-54 301.71,-47.27"/>
<polygon fill="#000000" fill-opacity="0.200000" stroke="#000000" stroke-width="2" stroke-opacity="0.200000" points="302.88,-49.04 307.41,-44.58 301.09,-45.25 302.88,-49.04"/>
</g>
<!-- src/controller/getIndexData.js&#45;&gt;src/config/filterSpecification.js -->
<g id="edge10" class="edge">
<title>src/controller/getIndexData.js&#45;&gt;src/config/filterSpecification.js</title>
<path fill="none" stroke="#000000" stroke-width="2" stroke-opacity="0.200000" d="M242.58,-282.96C248.36,-285.28 253.66,-288.67 257.5,-293.57 275.95,-317.11 246.44,-539.53 265.5,-562.57 269.52,-567.43 274.72,-570.93 280.47,-573.41"/>
<polygon fill="#000000" fill-opacity="0.200000" stroke="#000000" stroke-width="2" stroke-opacity="0.200000" points="280,-575.48 286.36,-575.58 281.45,-571.54 280,-575.48"/>
</g>
<!-- src/controller/getIndexData.js&#45;&gt;src/config/tabVisualizations.js -->
<g id="edge11" class="edge">
<title>src/controller/getIndexData.js&#45;&gt;src/config/tabVisualizations.js</title>
<path fill="none" stroke="#000000" stroke-width="2" stroke-opacity="0.200000" d="M242.74,-283.15C248.43,-285.47 253.66,-288.8 257.5,-293.57 267.48,-305.97 260.78,-421.38 265.5,-436.57 277.41,-474.93 305.42,-513.64 321.36,-533.65"/>
<polygon fill="#000000" fill-opacity="0.200000" stroke="#000000" stroke-width="2" stroke-opacity="0.200000" points="319.92,-535.2 325.32,-538.55 323.18,-532.56 319.92,-535.2"/>
</g>
<!-- src/controller/getIndexData.js&#45;&gt;src/config/visualizations.js -->
<g id="edge12" class="edge">
<title>src/controller/getIndexData.js&#45;&gt;src/config/visualizations.js</title>
<path fill="none" stroke="#000000" stroke-width="2" stroke-opacity="0.200000" d="M242.6,-282.94C248.38,-285.27 253.67,-288.66 257.5,-293.57 279.98,-322.41 242.27,-594.33 265.5,-622.57 271.08,-629.35 278.97,-633.48 287.41,-635.93"/>
<polygon fill="#000000" fill-opacity="0.200000" stroke="#000000" stroke-width="2" stroke-opacity="0.200000" points="286.99,-637.99 293.32,-637.36 287.98,-633.9 286.99,-637.99"/>
</g>
<!-- src/controller/getIndexData.js&#45;&gt;src/controller/filterOptions.js -->
<g id="edge13" class="edge">
<title>src/controller/getIndexData.js&#45;&gt;src/controller/filterOptions.js</title>
<path fill="none" stroke="#000000" stroke-width="2" stroke-opacity="0.200000" d="M242.49,-287.58C250.11,-289.28 258.05,-291.02 265.5,-292.57 273.6,-294.27 282.26,-296 290.59,-297.62"/>
<polygon fill="#000000" fill-opacity="0.200000" stroke="#000000" stroke-width="2" stroke-opacity="0.200000" points="290.59,-299.76 296.88,-298.84 291.38,-295.63 290.59,-299.76"/>
</g>
<!-- src/controller/getIndexData.js&#45;&gt;src/util/mergeFilterOptions.js -->
<g id="edge16" class="edge">
<title>src/controller/getIndexData.js&#45;&gt;src/util/mergeFilterOptions.js</title>
<path fill="none" stroke="#000000" stroke-width="2" stroke-opacity="0.200000" d="M242.67,-283.91C248.23,-286.15 253.43,-289.26 257.5,-293.57 269.05,-305.81 252.58,-319.79 265.5,-330.57 314.66,-371.61 395.08,-359.77 440.98,-348.2"/>
<polygon fill="#000000" fill-opacity="0.200000" stroke="#000000" stroke-width="2" stroke-opacity="0.200000" points="441.67,-350.19 446.94,-346.65 440.61,-346.13 441.67,-350.19"/>
</g>
<!-- src/shared/exportOptions.js -->
<g id="node17" class="node">
<title>src/shared/exportOptions.js</title>
<g id="a_node17"><a xlink:href="src/shared/exportOptions.js" xlink:title="exportOptions.js">
<path fill="#ffffcc" stroke="black" d="M512.5,-106.57C512.5,-106.57 441.5,-106.57 441.5,-106.57 438.5,-106.57 435.5,-103.57 435.5,-100.57 435.5,-100.57 435.5,-94.57 435.5,-94.57 435.5,-91.57 438.5,-88.57 441.5,-88.57 441.5,-88.57 512.5,-88.57 512.5,-88.57 515.5,-88.57 518.5,-91.57 518.5,-94.57 518.5,-94.57 518.5,-100.57 518.5,-100.57 518.5,-103.57 515.5,-106.57 512.5,-106.57"/>
<text text-anchor="start" x="443.5" y="-95.37" font-family="Helvetica,sans-Serif" font-size="9.00">exportOptions.js</text>
</a>
</g>
</g>
<!-- src/controller/getIndexData.js&#45;&gt;src/shared/exportOptions.js -->
<g id="edge14" class="edge">
<title>src/controller/getIndexData.js&#45;&gt;src/shared/exportOptions.js</title>
<path fill="none" stroke="#000000" stroke-width="2" stroke-opacity="0.200000" d="M217.39,-269.35C262.49,-239.39 404.93,-144.78 456.84,-110.3"/>
<polygon fill="#000000" fill-opacity="0.200000" stroke="#000000" stroke-width="2" stroke-opacity="0.200000" points="458.3,-111.85 462.14,-106.78 455.98,-108.35 458.3,-111.85"/>
</g>
<!-- src/util/configValidation.js -->
<g id="node18" class="node">
<title>src/util/configValidation.js</title>
<g id="a_node18"><a xlink:href="src/util/configValidation.js" xlink:title="configValidation.js">
<path fill="#ffffcc" stroke="black" d="M516.5,-286.57C516.5,-286.57 437.5,-286.57 437.5,-286.57 434.5,-286.57 431.5,-283.57 431.5,-280.57 431.5,-280.57 431.5,-274.57 431.5,-274.57 431.5,-271.57 434.5,-268.57 437.5,-268.57 437.5,-268.57 516.5,-268.57 516.5,-268.57 519.5,-268.57 522.5,-271.57 522.5,-274.57 522.5,-274.57 522.5,-280.57 522.5,-280.57 522.5,-283.57 519.5,-286.57 516.5,-286.57"/>
<text text-anchor="start" x="439.5" y="-275.37" font-family="Helvetica,sans-Serif" font-size="9.00">configValidation.js</text>
</a>
</g>
</g>
<!-- src/controller/getIndexData.js&#45;&gt;src/util/configValidation.js -->
<g id="edge15" class="edge">
<title>src/controller/getIndexData.js&#45;&gt;src/util/configValidation.js</title>
<path fill="none" stroke="#000000" stroke-width="2" stroke-opacity="0.200000" d="M242.67,-284.29C248.16,-286.48 253.34,-289.48 257.5,-293.57 266.43,-302.35 255.47,-313.09 265.5,-320.57 288.47,-337.72 371.61,-337.84 394.5,-320.57 404.83,-312.78 393,-301.37 402.5,-292.57 408.87,-286.68 416.9,-282.84 425.3,-280.38"/>
<polygon fill="#000000" fill-opacity="0.200000" stroke="#000000" stroke-width="2" stroke-opacity="0.200000" points="425.86,-282.4 431.15,-278.89 424.82,-278.33 425.86,-282.4"/>
</g>
<!-- src/util/configSchemas.js -->
<g id="node37" class="node">
<title>src/util/configSchemas.js</title>
<g id="a_node37"><a xlink:href="src/util/configSchemas.js" xlink:title="configSchemas.js">
<path fill="#ffffcc" stroke="black" d="M662.5,-316.57C662.5,-316.57 585.5,-316.57 585.5,-316.57 582.5,-316.57 579.5,-313.57 579.5,-310.57 579.5,-310.57 579.5,-304.57 579.5,-304.57 579.5,-301.57 582.5,-298.57 585.5,-298.57 585.5,-298.57 662.5,-298.57 662.5,-298.57 665.5,-298.57 668.5,-301.57 668.5,-304.57 668.5,-304.57 668.5,-310.57 668.5,-310.57 668.5,-313.57 665.5,-316.57 662.5,-316.57"/>
<text text-anchor="start" x="587.5" y="-305.37" font-family="Helvetica,sans-Serif" font-size="9.00">configSchemas.js</text>
</a>
</g>
</g>
<!-- src/util/configValidation.js&#45;&gt;src/util/configSchemas.js -->
<g id="edge52" class="edge">
<title>src/util/configValidation.js&#45;&gt;src/util/configSchemas.js</title>
<path fill="none" stroke="#000000" stroke-width="2" stroke-opacity="0.200000" d="M521.5,-286.57C537.78,-289.94 556.38,-293.79 573.18,-297.27"/>
<polygon fill="#000000" fill-opacity="0.200000" stroke="#000000" stroke-width="2" stroke-opacity="0.200000" points="572.97,-299.37 579.28,-298.53 573.83,-295.26 572.97,-299.37"/>
</g>
<!-- src/controller/indicatorQueries.js -->
<g id="node19" class="node">
<title>src/controller/indicatorQueries.js</title>
<g id="a_node19"><a xlink:href="src/controller/indicatorQueries.js" xlink:title="indicatorQueries.js">
<path fill="#ffffcc" stroke="black" d="M243,-317.57C243,-317.57 162,-317.57 162,-317.57 159,-317.57 156,-314.57 156,-311.57 156,-311.57 156,-305.57 156,-305.57 156,-302.57 159,-299.57 162,-299.57 162,-299.57 243,-299.57 243,-299.57 246,-299.57 249,-302.57 249,-305.57 249,-305.57 249,-311.57 249,-311.57 249,-314.57 246,-317.57 243,-317.57"/>
<text text-anchor="start" x="164" y="-306.37" font-family="Helvetica,sans-Serif" font-size="9.00">indicatorQueries.js</text>
</a>
</g>
</g>
<!-- src/controller/legendQuery.js -->
<g id="node20" class="node">
<title>src/controller/legendQuery.js</title>
<g id="a_node20"><a xlink:href="src/controller/legendQuery.js" xlink:title="legendQuery.js">
<path fill="#ffffcc" stroke="black" d="M236,-377.57C236,-377.57 169,-377.57 169,-377.57 166,-377.57 163,-374.57 163,-371.57 163,-371.57 163,-365.57 163,-365.57 163,-362.57 166,-359.57 169,-359.57 169,-359.57 236,-359.57 236,-359.57 239,-359.57 242,-362.57 242,-365.57 242,-365.57 242,-371.57 242,-371.57 242,-374.57 239,-377.57 236,-377.57"/>
<text text-anchor="start" x="171" y="-366.37" font-family="Helvetica,sans-Serif" font-size="9.00">legendQuery.js</text>
</a>
</g>
</g>
<!-- src/controller/legendQuery.js&#45;&gt;src/config/computedColumns.js -->
<g id="edge17" class="edge">
<title>src/controller/legendQuery.js&#45;&gt;src/config/computedColumns.js</title>
<path fill="none" stroke="#000000" stroke-width="2" stroke-opacity="0.200000" d="M242,-372.77C248,-375.1 253.52,-378.54 257.5,-383.57 271.91,-401.8 250.61,-574.73 265.5,-592.57 268.64,-596.33 272.49,-599.28 276.74,-601.57"/>
<polygon fill="#000000" fill-opacity="0.200000" stroke="#000000" stroke-width="2" stroke-opacity="0.200000" points="276,-603.54 282.33,-604.13 277.75,-599.72 276,-603.54"/>
</g>
<!-- src/model/tableName.js -->
<g id="node21" class="node">
<title>src/model/tableName.js</title>
<g id="a_node21"><a xlink:href="src/model/tableName.js" xlink:title="tableName.js">
<path fill="#ffffcc" stroke="black" d="M506.5,-406.57C506.5,-406.57 447.5,-406.57 447.5,-406.57 444.5,-406.57 441.5,-403.57 441.5,-400.57 441.5,-400.57 441.5,-394.57 441.5,-394.57 441.5,-391.57 444.5,-388.57 447.5,-388.57 447.5,-388.57 506.5,-388.57 506.5,-388.57 509.5,-388.57 512.5,-391.57 512.5,-394.57 512.5,-394.57 512.5,-400.57 512.5,-400.57 512.5,-403.57 509.5,-406.57 506.5,-406.57"/>
<text text-anchor="start" x="449.5" y="-395.37" font-family="Helvetica,sans-Serif" font-size="9.00">tableName.js</text>
</a>
</g>
</g>
<!-- src/controller/legendQuery.js&#45;&gt;src/model/tableName.js -->
<g id="edge18" class="edge">
<title>src/controller/legendQuery.js&#45;&gt;src/model/tableName.js</title>
<path fill="none" stroke="#000000" stroke-width="2" stroke-opacity="0.200000" d="M242.09,-376.73C249.82,-378.17 257.9,-379.53 265.5,-380.57 324.19,-388.6 392.63,-393.26 435.15,-395.62"/>
<polygon fill="#000000" fill-opacity="0.200000" stroke="#000000" stroke-width="2" stroke-opacity="0.200000" points="435.13,-397.72 441.23,-395.95 435.35,-393.52 435.13,-397.72"/>
</g>
<!-- src/util/searchComputedColumns.js -->
<g id="node22" class="node">
<title>src/util/searchComputedColumns.js</title>
<g id="a_node22"><a xlink:href="src/util/searchComputedColumns.js" xlink:title="searchComputedColumns.js">
<path fill="#ffffcc" stroke="black" d="M537.5,-316.57C537.5,-316.57 416.5,-316.57 416.5,-316.57 413.5,-316.57 410.5,-313.57 410.5,-310.57 410.5,-310.57 410.5,-304.57 410.5,-304.57 410.5,-301.57 413.5,-298.57 416.5,-298.57 416.5,-298.57 537.5,-298.57 537.5,-298.57 540.5,-298.57 543.5,-301.57 543.5,-304.57 543.5,-304.57 543.5,-310.57 543.5,-310.57 543.5,-313.57 540.5,-316.57 537.5,-316.57"/>
<text text-anchor="start" x="418.5" y="-305.37" font-family="Helvetica,sans-Serif" font-size="9.00">searchComputedColumns.js</text>
</a>
</g>
</g>
<!-- src/controller/legendQuery.js&#45;&gt;src/util/searchComputedColumns.js -->
<g id="edge19" class="edge">
<title>src/controller/legendQuery.js&#45;&gt;src/util/searchComputedColumns.js</title>
<path fill="none" stroke="#000000" stroke-width="2" stroke-opacity="0.200000" d="M242.31,-367.41C282.54,-364.75 346.2,-356.39 394.5,-330.57 398.93,-328.2 398.07,-324.96 402.5,-322.57 405.09,-321.18 407.79,-319.92 410.57,-318.77"/>
<polygon fill="#000000" fill-opacity="0.200000" stroke="#000000" stroke-width="2" stroke-opacity="0.200000" points="411.49,-320.67 416.36,-316.58 410.01,-316.74 411.49,-320.67"/>
</g>
<!-- src/controller/queryTemplate.js -->
<g id="node23" class="node">
<title>src/controller/queryTemplate.js</title>
<g id="a_node23"><a xlink:href="src/controller/queryTemplate.js" xlink:title="queryTemplate.js">
<path fill="#ffffcc" stroke="black" d="M239.5,-347.57C239.5,-347.57 165.5,-347.57 165.5,-347.57 162.5,-347.57 159.5,-344.57 159.5,-341.57 159.5,-341.57 159.5,-335.57 159.5,-335.57 159.5,-332.57 162.5,-329.57 165.5,-329.57 165.5,-329.57 239.5,-329.57 239.5,-329.57 242.5,-329.57 245.5,-332.57 245.5,-335.57 245.5,-335.57 245.5,-341.57 245.5,-341.57 245.5,-344.57 242.5,-347.57 239.5,-347.57"/>
<text text-anchor="start" x="167.5" y="-336.37" font-family="Helvetica,sans-Serif" font-size="9.00">queryTemplate.js</text>
</a>
</g>
</g>
<!-- src/controller/queryTemplate.js&#45;&gt;src/config/computedColumns.js -->
<g id="edge20" class="edge">
<title>src/controller/queryTemplate.js&#45;&gt;src/config/computedColumns.js</title>
<path fill="none" stroke="#000000" stroke-width="2" stroke-opacity="0.200000" d="M245.76,-344.39C250.29,-346.62 254.37,-349.6 257.5,-353.57 273.93,-374.46 248.53,-572.13 265.5,-592.57 268.63,-596.34 272.47,-599.29 276.72,-601.58"/>
<polygon fill="#000000" fill-opacity="0.200000" stroke="#000000" stroke-width="2" stroke-opacity="0.200000" points="275.98,-603.55 282.31,-604.15 277.73,-599.73 275.98,-603.55"/>
</g>
<!-- src/controller/queryTemplate.js&#45;&gt;src/config/filterSpecification.js -->
<g id="edge21" class="edge">
<title>src/controller/queryTemplate.js&#45;&gt;src/config/filterSpecification.js</title>
<path fill="none" stroke="#000000" stroke-width="2" stroke-opacity="0.200000" d="M245.74,-344.41C250.27,-346.63 254.36,-349.6 257.5,-353.57 271.91,-371.8 250.61,-544.73 265.5,-562.57 269.54,-567.41 274.76,-570.9 280.5,-573.38"/>
<polygon fill="#000000" fill-opacity="0.200000" stroke="#000000" stroke-width="2" stroke-opacity="0.200000" points="280.05,-575.45 286.4,-575.54 281.49,-571.51 280.05,-575.45"/>
</g>
<!-- src/controller/queryTemplate.js&#45;&gt;src/config/geographicBoundaries.js -->
<g id="edge22" class="edge">
<title>src/controller/queryTemplate.js&#45;&gt;src/config/geographicBoundaries.js</title>
<path fill="none" stroke="#000000" stroke-width="2" stroke-opacity="0.200000" d="M245.53,-344.25C250.15,-346.49 254.32,-349.51 257.5,-353.57 267.73,-366.67 253.59,-640.98 265.5,-652.57 306.58,-692.57 339.53,-668.87 394.5,-652.57 420.38,-644.9 445.73,-626.13 461.11,-613.12"/>
<polygon fill="#000000" fill-opacity="0.200000" stroke="#000000" stroke-width="2" stroke-opacity="0.200000" points="462.77,-614.47 465.93,-608.96 460.02,-611.29 462.77,-614.47"/>
</g>
<!-- src/controller/queryTemplate.js&#45;&gt;src/util/configValidation.js -->
<g id="edge25" class="edge">
<title>src/controller/queryTemplate.js&#45;&gt;src/util/configValidation.js</title>
<path fill="none" stroke="#000000" stroke-width="2" stroke-opacity="0.200000" d="M245.5,-332.19C250.01,-330.05 254.16,-327.25 257.5,-323.57 271.17,-308.54 249.96,-291.66 265.5,-278.57 288.72,-259.03 370.42,-264.42 424.94,-270.62"/>
<polygon fill="#000000" fill-opacity="0.200000" stroke="#000000" stroke-width="2" stroke-opacity="0.200000" points="424.92,-272.74 431.12,-271.34 425.4,-268.56 424.92,-272.74"/>
</g>
<!-- src/controller/queryTemplate.js&#45;&gt;src/model/tableName.js -->
<g id="edge23" class="edge">
<title>src/controller/queryTemplate.js&#45;&gt;src/model/tableName.js</title>
<path fill="none" stroke="#000000" stroke-width="2" stroke-opacity="0.200000" d="M245.18,-347.6C296.76,-358.77 384.01,-377.66 435.18,-388.74"/>
<polygon fill="#000000" fill-opacity="0.200000" stroke="#000000" stroke-width="2" stroke-opacity="0.200000" points="434.93,-390.83 441.24,-390.05 435.82,-386.73 434.93,-390.83"/>
</g>
<!-- src/controller/queryTemplate.js&#45;&gt;src/util/searchComputedColumns.js -->
<g id="edge26" class="edge">
<title>src/controller/queryTemplate.js&#45;&gt;src/util/searchComputedColumns.js</title>
<path fill="none" stroke="#000000" stroke-width="2" stroke-opacity="0.200000" d="M245.55,-331.86C250,-329.77 254.12,-327.07 257.5,-323.57 267.99,-312.73 253.64,-299.9 265.5,-290.57 288.03,-272.85 366.05,-287.07 394.5,-290.57 398.14,-291.02 398.93,-291.76 402.5,-292.57 409.45,-294.15 416.78,-295.74 424.01,-297.26"/>
<polygon fill="#000000" fill-opacity="0.200000" stroke="#000000" stroke-width="2" stroke-opacity="0.200000" points="423.76,-299.35 430.06,-298.52 424.62,-295.24 423.76,-299.35"/>
</g>
<!-- src/shared/filterDisable.js -->
<g id="node24" class="node">
<title>src/shared/filterDisable.js</title>
<g id="a_node24"><a xlink:href="src/shared/filterDisable.js" xlink:title="filterDisable.js">
<path fill="#ffffcc" stroke="black" d="M365,-136.57C365,-136.57 303,-136.57 303,-136.57 300,-136.57 297,-133.57 297,-130.57 297,-130.57 297,-124.57 297,-124.57 297,-121.57 300,-118.57 303,-118.57 303,-118.57 365,-118.57 365,-118.57 368,-118.57 371,-121.57 371,-124.57 371,-124.57 371,-130.57 371,-130.57 371,-133.57 368,-136.57 365,-136.57"/>
<text text-anchor="start" x="305" y="-125.37" font-family="Helvetica,sans-Serif" font-size="9.00">filterDisable.js</text>
</a>
</g>
</g>
<!-- src/controller/queryTemplate.js&#45;&gt;src/shared/filterDisable.js -->
<g id="edge24" class="edge">
<title>src/controller/queryTemplate.js&#45;&gt;src/shared/filterDisable.js</title>
<path fill="none" stroke="#000000" stroke-width="2" stroke-opacity="0.200000" d="M245.69,-332.35C250.17,-330.19 254.26,-327.33 257.5,-323.57 267,-312.55 261.21,-272.48 265.5,-258.57 279.46,-213.31 308.54,-164.99 323.56,-141.72"/>
<polygon fill="#000000" fill-opacity="0.200000" stroke="#000000" stroke-width="2" stroke-opacity="0.200000" points="325.37,-142.79 326.89,-136.62 321.85,-140.5 325.37,-142.79"/>
</g>
<!-- src/model/db.js -->
<g id="node25" class="node">
<title>src/model/db.js</title>
<g id="a_node25"><a xlink:href="src/model/db.js" xlink:title="db.js">
<path fill="#ffffcc" stroke="black" d="M498,-436.57C498,-436.57 456,-436.57 456,-436.57 453,-436.57 450,-433.57 450,-430.57 450,-430.57 450,-424.57 450,-424.57 450,-421.57 453,-418.57 456,-418.57 456,-418.57 498,-418.57 498,-418.57 501,-418.57 504,-421.57 504,-424.57 504,-424.57 504,-430.57 504,-430.57 504,-433.57 501,-436.57 498,-436.57"/>
<text text-anchor="start" x="467" y="-425.37" font-family="Helvetica,sans-Serif" font-size="9.00">db.js</text>
</a>
</g>
</g>
<!-- src/util/env.js -->
<g id="node26" class="node">
<title>src/util/env.js</title>
<g id="a_node26"><a xlink:href="src/util/env.js" xlink:title="env.js">
<path fill="#ffffcc" stroke="black" d="M498,-226.57C498,-226.57 456,-226.57 456,-226.57 453,-226.57 450,-223.57 450,-220.57 450,-220.57 450,-214.57 450,-214.57 450,-211.57 453,-208.57 456,-208.57 456,-208.57 498,-208.57 498,-208.57 501,-208.57 504,-211.57 504,-214.57 504,-214.57 504,-220.57 504,-220.57 504,-223.57 501,-226.57 498,-226.57"/>
<text text-anchor="start" x="464.5" y="-215.37" font-family="Helvetica,sans-Serif" font-size="9.00">env.js</text>
</a>
</g>
</g>
<!-- src/model/db.js&#45;&gt;src/util/env.js -->
<g id="edge27" class="edge">
<title>src/model/db.js&#45;&gt;src/util/env.js</title>
<path fill="none" stroke="#000000" stroke-width="2" stroke-opacity="0.200000" d="M449.69,-430.19C429.5,-430.4 404.51,-426.42 398.5,-406.57 395.8,-397.64 395.8,-247.51 398.5,-238.57 403.9,-220.74 424.62,-215.72 443.42,-215.04"/>
<polygon fill="#000000" fill-opacity="0.200000" stroke="#000000" stroke-width="2" stroke-opacity="0.200000" points="443.72,-217.13 449.69,-214.96 443.67,-212.93 443.72,-217.13"/>
</g>
<!-- src/model/dbTransactions.js -->
<g id="node27" class="node">
<title>src/model/dbTransactions.js</title>
<g id="a_node27"><a xlink:href="src/model/dbTransactions.js" xlink:title="dbTransactions.js">
<path fill="#ffffcc" stroke="black" d="M662.5,-436.57C662.5,-436.57 585.5,-436.57 585.5,-436.57 582.5,-436.57 579.5,-433.57 579.5,-430.57 579.5,-430.57 579.5,-424.57 579.5,-424.57 579.5,-421.57 582.5,-418.57 585.5,-418.57 585.5,-418.57 662.5,-418.57 662.5,-418.57 665.5,-418.57 668.5,-421.57 668.5,-424.57 668.5,-424.57 668.5,-430.57 668.5,-430.57 668.5,-433.57 665.5,-436.57 662.5,-436.57"/>
<text text-anchor="start" x="587.5" y="-425.37" font-family="Helvetica,sans-Serif" font-size="9.00">dbTransactions.js</text>
</a>
</g>
</g>
<!-- src/model/db.js&#45;&gt;src/model/dbTransactions.js -->
<g id="edge28" class="edge">
<title>src/model/db.js&#45;&gt;src/model/dbTransactions.js</title>
<path fill="none" stroke="#000000" stroke-width="2" stroke-opacity="0.200000" d="M504.26,-427.57C523.44,-427.57 550.03,-427.57 573.18,-427.57"/>
<polygon fill="#000000" fill-opacity="0.200000" stroke="#000000" stroke-width="2" stroke-opacity="0.200000" points="573.3,-429.67 579.3,-427.57 573.3,-425.47 573.3,-429.67"/>
</g>
<!-- src/util/env.js&#45;&gt;path -->
<g id="edge53" class="edge">
<title>src/util/env.js&#45;&gt;path</title>
<path fill="none" stroke="#000000" stroke-dasharray="5,2" stroke-opacity="0.200000" d="M504.26,-217.26C517.42,-215.81 532.8,-211.96 543.5,-202.57 555.97,-191.63 550.17,-182.91 556.5,-167.57 576.57,-118.95 603.22,-62.61 615.82,-36.4"/>
<polygon fill="#000000" fill-opacity="0.200000" stroke="#000000" stroke-opacity="0.200000" points="617.85,-37.01 618.57,-30.7 614.07,-35.19 617.85,-37.01"/>
</g>
<!-- src/routes/api.js -->
<g id="node28" class="node">
<title>src/routes/api.js</title>
<g id="a_node28"><a xlink:href="src/routes/api.js" xlink:title="api.js">
<path fill="#ffffcc" stroke="black" d="M134,-175.57C134,-175.57 92,-175.57 92,-175.57 89,-175.57 86,-172.57 86,-169.57 86,-169.57 86,-163.57 86,-163.57 86,-160.57 89,-157.57 92,-157.57 92,-157.57 134,-157.57 134,-157.57 137,-157.57 140,-160.57 140,-163.57 140,-163.57 140,-169.57 140,-169.57 140,-172.57 137,-175.57 134,-175.57"/>
<text text-anchor="start" x="102" y="-164.37" font-family="Helvetica,sans-Serif" font-size="9.00">api.js</text>
</a>
</g>
</g>
<!-- src/routes/api.js&#45;&gt;src/config/visualizations.js -->
<g id="edge29" class="edge">
<title>src/routes/api.js&#45;&gt;src/config/visualizations.js</title>
<path fill="none" stroke="#000000" stroke-width="2" stroke-opacity="0.200000" d="M113.74,-175.76C113.02,-210.83 113.07,-339.18 148,-436.57 181.01,-528.61 185.52,-566.32 265.5,-622.57 271.99,-627.14 279.64,-630.35 287.4,-632.6"/>
<polygon fill="#000000" fill-opacity="0.200000" stroke="#000000" stroke-width="2" stroke-opacity="0.200000" points="287.02,-634.67 293.35,-634.14 288.07,-630.6 287.02,-634.67"/>
</g>
<!-- src/routes/api.js&#45;&gt;src/controller/formatResponse.js -->
<g id="edge30" class="edge">
<title>src/routes/api.js&#45;&gt;src/controller/formatResponse.js</title>
<path fill="none" stroke="#000000" stroke-width="2" stroke-opacity="0.200000" d="M136.87,-175.9C138.06,-177 139.12,-178.22 140,-179.57 152.3,-198.63 133.94,-365.77 148,-383.57 148.81,-384.6 149.68,-385.55 150.6,-386.45"/>
<polygon fill="#000000" fill-opacity="0.200000" stroke="#000000" stroke-width="2" stroke-opacity="0.200000" points="149.63,-388.35 155.64,-390.42 152.23,-385.06 149.63,-388.35"/>
</g>
<!-- src/routes/api.js&#45;&gt;src/shared/exportOptions.js -->
<g id="edge34" class="edge">
<title>src/routes/api.js&#45;&gt;src/shared/exportOptions.js</title>
<path fill="none" stroke="#000000" stroke-width="2" stroke-opacity="0.200000" d="M133.82,-157.47C136.14,-155.77 138.29,-153.81 140,-151.57 148.4,-140.62 139.11,-132.13 148,-121.57 185.04,-77.63 209.35,-79.86 265.5,-67.57 321.51,-55.32 338.06,-57.52 394.5,-67.57 414.33,-71.11 435.66,-79.12 451.52,-85.98"/>
<polygon fill="#000000" fill-opacity="0.200000" stroke="#000000" stroke-width="2" stroke-opacity="0.200000" points="450.77,-87.94 457.1,-88.44 452.46,-84.1 450.77,-87.94"/>
</g>
<!-- src/routes/api.js&#45;&gt;src/controller/indicatorQueries.js -->
<g id="edge31" class="edge">
<title>src/routes/api.js&#45;&gt;src/controller/indicatorQueries.js</title>
<path fill="none" stroke="#000000" stroke-width="2" stroke-opacity="0.200000" d="M136.82,-175.93C138.02,-177.02 139.1,-178.23 140,-179.57 154.1,-200.7 131.96,-273.89 148,-293.57 148.82,-294.58 149.71,-295.53 150.65,-296.41"/>
<polygon fill="#000000" fill-opacity="0.200000" stroke="#000000" stroke-width="2" stroke-opacity="0.200000" points="149.7,-298.34 155.74,-300.34 152.27,-295.02 149.7,-298.34"/>
</g>
<!-- src/routes/api.js&#45;&gt;src/controller/legendQuery.js -->
<g id="edge32" class="edge">
<title>src/routes/api.js&#45;&gt;src/controller/legendQuery.js</title>
<path fill="none" stroke="#000000" stroke-width="2" stroke-opacity="0.200000" d="M136.86,-175.91C138.05,-177 139.12,-178.22 140,-179.57 150.55,-195.8 135.96,-338.42 148,-353.57 150.52,-356.75 153.66,-359.28 157.13,-361.3"/>
<polygon fill="#000000" fill-opacity="0.200000" stroke="#000000" stroke-width="2" stroke-opacity="0.200000" points="156.53,-363.34 162.84,-364.07 158.36,-359.56 156.53,-363.34"/>
</g>
<!-- src/routes/api.js&#45;&gt;src/controller/queryTemplate.js -->
<g id="edge33" class="edge">
<title>src/routes/api.js&#45;&gt;src/controller/queryTemplate.js</title>
<path fill="none" stroke="#000000" stroke-width="2" stroke-opacity="0.200000" d="M136.85,-175.92C138.04,-177.01 139.11,-178.22 140,-179.57 157.6,-206.36 127.94,-298.58 148,-323.57 149.73,-325.73 151.75,-327.59 153.96,-329.2"/>
<polygon fill="#000000" fill-opacity="0.200000" stroke="#000000" stroke-width="2" stroke-opacity="0.200000" points="153.23,-331.21 159.45,-332.5 155.39,-327.61 153.23,-331.21"/>
</g>
<!-- src/util/auth.js -->
<g id="node29" class="node">
<title>src/util/auth.js</title>
<g id="a_node29"><a xlink:href="src/util/auth.js" xlink:title="auth.js">
<path fill="#ffffcc" stroke="black" d="M498,-196.57C498,-196.57 456,-196.57 456,-196.57 453,-196.57 450,-193.57 450,-190.57 450,-190.57 450,-184.57 450,-184.57 450,-181.57 453,-178.57 456,-178.57 456,-178.57 498,-178.57 498,-178.57 501,-178.57 504,-181.57 504,-184.57 504,-184.57 504,-190.57 504,-190.57 504,-193.57 501,-196.57 498,-196.57"/>
<text text-anchor="start" x="463" y="-185.37" font-family="Helvetica,sans-Serif" font-size="9.00">auth.js</text>
</a>
</g>
</g>
<!-- src/routes/api.js&#45;&gt;src/util/auth.js -->
<g id="edge35" class="edge">
<title>src/routes/api.js&#45;&gt;src/util/auth.js</title>
<path fill="none" stroke="#000000" stroke-width="2" stroke-opacity="0.200000" d="M134.85,-175.64C136.69,-176.83 138.44,-178.14 140,-179.57 145,-184.16 142.08,-189.26 148,-192.57 195.82,-219.29 339.75,-194.25 394.5,-192.57 410.74,-192.08 428.78,-191.02 443.75,-190.01"/>
<polygon fill="#000000" fill-opacity="0.200000" stroke="#000000" stroke-width="2" stroke-opacity="0.200000" points="444.12,-192.09 449.96,-189.58 443.83,-187.9 444.12,-192.09"/>
</g>
<!-- src/routes/schemas.js -->
<g id="node30" class="node">
<title>src/routes/schemas.js</title>
<g id="a_node30"><a xlink:href="src/routes/schemas.js" xlink:title="schemas.js">
<path fill="#ffffcc" stroke="black" d="M227.5,-145.57C227.5,-145.57 177.5,-145.57 177.5,-145.57 174.5,-145.57 171.5,-142.57 171.5,-139.57 171.5,-139.57 171.5,-133.57 171.5,-133.57 171.5,-130.57 174.5,-127.57 177.5,-127.57 177.5,-127.57 227.5,-127.57 227.5,-127.57 230.5,-127.57 233.5,-130.57 233.5,-133.57 233.5,-133.57 233.5,-139.57 233.5,-139.57 233.5,-142.57 230.5,-145.57 227.5,-145.57"/>
<text text-anchor="start" x="179.5" y="-134.37" font-family="Helvetica,sans-Serif" font-size="9.00">schemas.js</text>
</a>
</g>
</g>
<!-- src/routes/api.js&#45;&gt;src/routes/schemas.js -->
<g id="edge36" class="edge">
<title>src/routes/api.js&#45;&gt;src/routes/schemas.js</title>
<path fill="none" stroke="#000000" stroke-width="2" stroke-opacity="0.200000" d="M133.23,-157.52C138,-155.43 143.14,-153.32 148,-151.57 153.58,-149.57 159.57,-147.66 165.45,-145.92"/>
<polygon fill="#000000" fill-opacity="0.200000" stroke="#000000" stroke-width="2" stroke-opacity="0.200000" points="166.09,-147.92 171.27,-144.24 164.92,-143.89 166.09,-147.92"/>
</g>
<!-- src/routes/schemaValidator.js -->
<g id="node31" class="node">
<title>src/routes/schemaValidator.js</title>
<g id="a_node31"><a xlink:href="src/routes/schemaValidator.js" xlink:title="schemaValidator.js">
<path fill="#ffffcc" stroke="black" d="M243.5,-175.57C243.5,-175.57 161.5,-175.57 161.5,-175.57 158.5,-175.57 155.5,-172.57 155.5,-169.57 155.5,-169.57 155.5,-163.57 155.5,-163.57 155.5,-160.57 158.5,-157.57 161.5,-157.57 161.5,-157.57 243.5,-157.57 243.5,-157.57 246.5,-157.57 249.5,-160.57 249.5,-163.57 249.5,-163.57 249.5,-169.57 249.5,-169.57 249.5,-172.57 246.5,-175.57 243.5,-175.57"/>
<text text-anchor="start" x="163.5" y="-164.37" font-family="Helvetica,sans-Serif" font-size="9.00">schemaValidator.js</text>
</a>
</g>
</g>
<!-- src/routes/api.js&#45;&gt;src/routes/schemaValidator.js -->
<g id="edge37" class="edge">
<title>src/routes/api.js&#45;&gt;src/routes/schemaValidator.js</title>
<path fill="none" stroke="#000000" stroke-width="2" stroke-opacity="0.200000" d="M140.25,-166.57C143.12,-166.57 146.11,-166.57 149.16,-166.57"/>
<polygon fill="#000000" fill-opacity="0.200000" stroke="#000000" stroke-width="2" stroke-opacity="0.200000" points="149.48,-168.67 155.48,-166.57 149.48,-164.47 149.48,-168.67"/>
</g>
<!-- src/routes/schemas.js&#45;&gt;src/shared/exportOptions.js -->
<g id="edge40" class="edge">
<title>src/routes/schemas.js&#45;&gt;src/shared/exportOptions.js</title>
<path fill="none" stroke="#000000" stroke-width="2" stroke-opacity="0.200000" d="M210.29,-127.5C220.56,-114.62 241.44,-91.58 265.5,-82.57 324.81,-60.36 400.01,-74.99 442.59,-86.83"/>
<polygon fill="#000000" fill-opacity="0.200000" stroke="#000000" stroke-width="2" stroke-opacity="0.200000" points="442.03,-88.85 448.38,-88.48 443.18,-84.81 442.03,-88.85"/>
</g>
<!-- src/shared/exportOptionsMetadata.js -->
<g id="node33" class="node">
<title>src/shared/exportOptionsMetadata.js</title>
<g id="a_node33"><a xlink:href="src/shared/exportOptionsMetadata.js" xlink:title="exportOptionsMetadata.js">
<path fill="#ffffcc" stroke="black" d="M388.5,-106.57C388.5,-106.57 279.5,-106.57 279.5,-106.57 276.5,-106.57 273.5,-103.57 273.5,-100.57 273.5,-100.57 273.5,-94.57 273.5,-94.57 273.5,-91.57 276.5,-88.57 279.5,-88.57 279.5,-88.57 388.5,-88.57 388.5,-88.57 391.5,-88.57 394.5,-91.57 394.5,-94.57 394.5,-94.57 394.5,-100.57 394.5,-100.57 394.5,-103.57 391.5,-106.57 388.5,-106.57"/>
<text text-anchor="start" x="281.5" y="-95.37" font-family="Helvetica,sans-Serif" font-size="9.00">exportOptionsMetadata.js</text>
</a>
</g>
</g>
<!-- src/routes/schemas.js&#45;&gt;src/shared/exportOptionsMetadata.js -->
<g id="edge41" class="edge">
<title>src/routes/schemas.js&#45;&gt;src/shared/exportOptionsMetadata.js</title>
<path fill="none" stroke="#000000" stroke-width="2" stroke-opacity="0.200000" d="M224.46,-127.55C236.34,-122.67 251.58,-116.79 265.5,-112.57 270.73,-110.99 276.24,-109.49 281.75,-108.11"/>
<polygon fill="#000000" fill-opacity="0.200000" stroke="#000000" stroke-width="2" stroke-opacity="0.200000" points="282.4,-110.11 287.73,-106.64 281.41,-106.03 282.4,-110.11"/>
</g>
<!-- src/routes/index.js -->
<g id="node32" class="node">
<title>src/routes/index.js</title>
<g id="a_node32"><a xlink:href="src/routes/index.js" xlink:title="index.js">
<path fill="#ffffcc" stroke="black" d="M134,-145.57C134,-145.57 92,-145.57 92,-145.57 89,-145.57 86,-142.57 86,-139.57 86,-139.57 86,-133.57 86,-133.57 86,-130.57 89,-127.57 92,-127.57 92,-127.57 134,-127.57 134,-127.57 137,-127.57 140,-130.57 140,-133.57 140,-133.57 140,-139.57 140,-139.57 140,-142.57 137,-145.57 134,-145.57"/>
<text text-anchor="start" x="97" y="-134.37" font-family="Helvetica,sans-Serif" font-size="9.00">index.js</text>
</a>
</g>
</g>
<!-- src/routes/index.js&#45;&gt;src/controller/getIndexData.js -->
<g id="edge38" class="edge">
<title>src/routes/index.js&#45;&gt;src/controller/getIndexData.js</title>
<path fill="none" stroke="#000000" stroke-width="2" stroke-opacity="0.200000" d="M134.31,-145.7C136.49,-147.39 138.47,-149.34 140,-151.57 153.42,-171.25 138.99,-182.52 148,-204.57 157.51,-227.84 175.76,-250.67 188.27,-264.68"/>
<polygon fill="#000000" fill-opacity="0.200000" stroke="#000000" stroke-width="2" stroke-opacity="0.200000" points="187.01,-266.41 192.6,-269.43 190.11,-263.58 187.01,-266.41"/>
</g>
<!-- src/routes/index.js&#45;&gt;src/util/auth.js -->
<g id="edge39" class="edge">
<title>src/routes/index.js&#45;&gt;src/util/auth.js</title>
<path fill="none" stroke="#000000" stroke-width="2" stroke-opacity="0.200000" d="M133.82,-145.68C136.14,-147.38 138.29,-149.34 140,-151.57 148.4,-162.53 137.13,-173.07 148,-181.57 170.85,-199.46 365.14,-192.67 443.47,-189.16"/>
<polygon fill="#000000" fill-opacity="0.200000" stroke="#000000" stroke-width="2" stroke-opacity="0.200000" points="443.89,-191.24 449.79,-188.87 443.7,-187.05 443.89,-191.24"/>
</g>
<!-- src/shared/exportOptionsMetadata.js&#45;&gt;src/shared/exportOptions.js -->
<g id="edge49" class="edge">
<title>src/shared/exportOptionsMetadata.js&#45;&gt;src/shared/exportOptions.js</title>
<path fill="none" stroke="#000000" stroke-width="2" stroke-opacity="0.200000" d="M394.8,-97.57C406.32,-97.57 418.24,-97.57 429.28,-97.57"/>
<polygon fill="#000000" fill-opacity="0.200000" stroke="#000000" stroke-width="2" stroke-opacity="0.200000" points="429.31,-99.67 435.31,-97.57 429.31,-95.47 429.31,-99.67"/>
</g>
<!-- src/server.js -->
<g id="node34" class="node">
<title>src/server.js</title>
<g id="a_node34"><a xlink:href="src/server.js" xlink:title="server.js">
<path fill="#ffffcc" stroke="black" d="M64,-175.57C64,-175.57 22,-175.57 22,-175.57 19,-175.57 16,-172.57 16,-169.57 16,-169.57 16,-163.57 16,-163.57 16,-160.57 19,-157.57 22,-157.57 22,-157.57 64,-157.57 64,-157.57 67,-157.57 70,-160.57 70,-163.57 70,-163.57 70,-169.57 70,-169.57 70,-172.57 67,-175.57 64,-175.57"/>
<text text-anchor="start" x="25.5" y="-164.37" font-family="Helvetica,sans-Serif" font-size="9.00">server.js</text>
</a>
</g>
</g>
<!-- src/server.js&#45;&gt;fs -->
<g id="edge47" class="edge">
<title>src/server.js&#45;&gt;fs</title>
<path fill="none" stroke="#000000" stroke-dasharray="5,2" stroke-opacity="0.200000" d="M48.67,-157.57C60.22,-135.32 90.19,-77.58 104.36,-50.28"/>
<polygon fill="#000000" fill-opacity="0.200000" stroke="#000000" stroke-opacity="0.200000" points="106.39,-50.93 107.29,-44.64 102.67,-49 106.39,-50.93"/>
</g>
<!-- src/server.js&#45;&gt;path -->
<g id="edge48" class="edge">
<title>src/server.js&#45;&gt;path</title>
<path fill="none" stroke="#000000" stroke-dasharray="5,2" stroke-opacity="0.200000" d="M44.76,-157.56C47.39,-128.65 57.13,-39.01 78,-20.57 119.37,15.96 146.31,-7.57 201.5,-7.57 201.5,-7.57 201.5,-7.57 335,-7.57 427.84,-7.57 537.32,-14.92 590.6,-18.97"/>
<polygon fill="#000000" fill-opacity="0.200000" stroke="#000000" stroke-opacity="0.200000" points="590.67,-21.08 596.81,-19.45 590.99,-16.89 590.67,-21.08"/>
</g>
<!-- src/server.js&#45;&gt;src/model/db.js -->
<g id="edge42" class="edge">
<title>src/server.js&#45;&gt;src/model/db.js</title>
<path fill="none" stroke="#000000" stroke-width="2" stroke-opacity="0.200000" d="M44.14,-175.72C45.27,-215.35 55.65,-373.18 148,-436.57 195.19,-468.96 370.37,-444.96 443.55,-433.14"/>
<polygon fill="#000000" fill-opacity="0.200000" stroke="#000000" stroke-width="2" stroke-opacity="0.200000" points="444.31,-435.14 449.89,-432.1 443.63,-431 444.31,-435.14"/>
</g>
<!-- src/server.js&#45;&gt;src/util/env.js -->
<g id="edge46" class="edge">
<title>src/server.js&#45;&gt;src/util/env.js</title>
<path fill="none" stroke="#000000" stroke-width="2" stroke-opacity="0.200000" d="M49.13,-175.73C54.84,-184.9 65.01,-198.51 78,-204.57 202.35,-262.63 373.16,-238.47 443.61,-224.68"/>
<polygon fill="#000000" fill-opacity="0.200000" stroke="#000000" stroke-width="2" stroke-opacity="0.200000" points="444.24,-226.7 449.71,-223.47 443.42,-222.58 444.24,-226.7"/>
</g>
<!-- src/server.js&#45;&gt;src/routes/api.js -->
<g id="edge43" class="edge">
<title>src/server.js&#45;&gt;src/routes/api.js</title>
<path fill="none" stroke="#000000" stroke-width="2" stroke-opacity="0.200000" d="M70.1,-166.57C73.12,-166.57 76.23,-166.57 79.33,-166.57"/>
<polygon fill="#000000" fill-opacity="0.200000" stroke="#000000" stroke-width="2" stroke-opacity="0.200000" points="79.64,-168.67 85.64,-166.57 79.64,-164.47 79.64,-168.67"/>
</g>
<!-- src/server.js&#45;&gt;src/routes/index.js -->
<g id="edge44" class="edge">
<title>src/server.js&#45;&gt;src/routes/index.js</title>
<path fill="none" stroke="#000000" stroke-width="2" stroke-opacity="0.200000" d="M64.4,-157.57C71,-154.66 78.42,-151.39 85.41,-148.31"/>
<polygon fill="#000000" fill-opacity="0.200000" stroke="#000000" stroke-width="2" stroke-opacity="0.200000" points="86.5,-150.12 91.14,-145.78 84.8,-146.28 86.5,-150.12"/>
</g>
<!-- src/util/configPassport.js -->
<g id="node35" class="node">
<title>src/util/configPassport.js</title>
<g id="a_node35"><a xlink:href="src/util/configPassport.js" xlink:title="configPassport.js">
<path fill="#ffffcc" stroke="black" d="M514,-256.57C514,-256.57 440,-256.57 440,-256.57 437,-256.57 434,-253.57 434,-250.57 434,-250.57 434,-244.57 434,-244.57 434,-241.57 437,-238.57 440,-238.57 440,-238.57 514,-238.57 514,-238.57 517,-238.57 520,-241.57 520,-244.57 520,-244.57 520,-250.57 520,-250.57 520,-253.57 517,-256.57 514,-256.57"/>
<text text-anchor="start" x="442" y="-245.37" font-family="Helvetica,sans-Serif" font-size="9.00">configPassport.js</text>
</a>
</g>
</g>
<!-- src/server.js&#45;&gt;src/util/configPassport.js -->
<g id="edge45" class="edge">
<title>src/server.js&#45;&gt;src/util/configPassport.js</title>
<path fill="none" stroke="#000000" stroke-width="2" stroke-opacity="0.200000" d="M47.58,-175.73C52.61,-187.42 62.89,-207.44 78,-218.57 104.05,-237.77 116.02,-233.65 148,-238.57 246.45,-253.74 363.44,-252.39 427.71,-250.01"/>
<polygon fill="#000000" fill-opacity="0.200000" stroke="#000000" stroke-width="2" stroke-opacity="0.200000" points="427.84,-252.1 433.76,-249.77 427.68,-247.91 427.84,-252.1"/>
</g>
<!-- src/util/odkxAuth.js -->
<g id="node36" class="node">
<title>src/util/odkxAuth.js</title>
<g id="a_node36"><a xlink:href="src/util/odkxAuth.js" xlink:title="odkxAuth.js">
<path fill="#ffffcc" stroke="black" d="M650,-256.57C650,-256.57 598,-256.57 598,-256.57 595,-256.57 592,-253.57 592,-250.57 592,-250.57 592,-244.57 592,-244.57 592,-241.57 595,-238.57 598,-238.57 598,-238.57 650,-238.57 650,-238.57 653,-238.57 656,-241.57 656,-244.57 656,-244.57 656,-250.57 656,-250.57 656,-253.57 653,-256.57 650,-256.57"/>
<text text-anchor="start" x="600" y="-245.37" font-family="Helvetica,sans-Serif" font-size="9.00">odkxAuth.js</text>
</a>
</g>
</g>
<!-- src/util/configPassport.js&#45;&gt;src/util/odkxAuth.js -->
<g id="edge50" class="edge">
<title>src/util/configPassport.js&#45;&gt;src/util/odkxAuth.js</title>
<path fill="none" stroke="#000000" stroke-width="2" stroke-opacity="0.200000" d="M520.33,-247.57C541.09,-247.57 565.86,-247.57 585.87,-247.57"/>
<polygon fill="#000000" fill-opacity="0.200000" stroke="#000000" stroke-width="2" stroke-opacity="0.200000" points="585.92,-249.67 591.92,-247.57 585.92,-245.47 585.92,-249.67"/>
</g>
<!-- src/util/configSchemas.js&#45;&gt;src/config/visualizations.js -->
<g id="edge51" class="edge">
<title>src/util/configSchemas.js&#45;&gt;src/config/visualizations.js</title>
<path fill="none" stroke="#000000" stroke-width="2" stroke-opacity="0.200000" d="M610.16,-316.67C594.97,-326.99 568.57,-343.56 543.5,-352.57 483.61,-374.11 444.18,-329.47 402.5,-377.57 384.66,-398.16 411.59,-601.37 394.5,-622.57 390.82,-627.14 385.97,-630.44 380.62,-632.8"/>
<polygon fill="#000000" fill-opacity="0.200000" stroke="#000000" stroke-width="2" stroke-opacity="0.200000" points="379.55,-630.96 374.65,-635.01 381.01,-634.9 379.55,-630.96"/>
</g>
</g>
</svg>
