<?xml version="1.0" encoding="UTF-8" standalone="no"?>
<!DOCTYPE svg PUBLIC "-//W3C//DTD SVG 1.1//EN"
 "http://www.w3.org/Graphics/SVG/1.1/DTD/svg11.dtd">
<!-- Generated by graphviz version 2.40.1 (20161225.0304)
 -->
<!-- Title: dependency&#45;cruiser output Pages: 1 -->
<svg width="623pt" height="632pt"
 viewBox="0.00 0.00 622.50 632.00" xmlns="http://www.w3.org/2000/svg" xmlns:xlink="http://www.w3.org/1999/xlink">
<g id="graph0" class="graph" transform="scale(1 1) rotate(0) translate(4 628)">
<title>dependency&#45;cruiser output</title>
<polygon fill="#ffffff" stroke="transparent" points="-4,4 -4,-628 618.5,-628 618.5,4 -4,4"/>
<g id="clust1" class="cluster">
<title>cluster_config</title>
<path fill="#ffffff" stroke="#000000" stroke-width="2" d="M267.5,-250C267.5,-250 354.5,-250 354.5,-250 360.5,-250 366.5,-256 366.5,-262 366.5,-262 366.5,-320 366.5,-320 366.5,-326 360.5,-332 354.5,-332 354.5,-332 267.5,-332 267.5,-332 261.5,-332 255.5,-326 255.5,-320 255.5,-320 255.5,-262 255.5,-262 255.5,-256 261.5,-250 267.5,-250"/>
<text text-anchor="middle" x="311" y="-320.8" font-family="Helvetica,sans-Serif" font-weight="bold" font-size="9.00" fill="#000000">config</text>
</g>
<g id="clust2" class="cluster">
<title>cluster_controller</title>
<path fill="#ffffff" stroke="#000000" stroke-width="2" d="M149.5,-340C149.5,-340 354.5,-340 354.5,-340 360.5,-340 366.5,-346 366.5,-352 366.5,-352 366.5,-530 366.5,-530 366.5,-536 360.5,-542 354.5,-542 354.5,-542 149.5,-542 149.5,-542 143.5,-542 137.5,-536 137.5,-530 137.5,-530 137.5,-352 137.5,-352 137.5,-346 143.5,-340 149.5,-340"/>
<text text-anchor="middle" x="252" y="-530.8" font-family="Helvetica,sans-Serif" font-weight="bold" font-size="9.00" fill="#000000">controller</text>
</g>
<g id="clust3" class="cluster">
<title>cluster_model</title>
<path fill="#ffffff" stroke="#000000" stroke-width="2" d="M386.5,-279C386.5,-279 594.5,-279 594.5,-279 600.5,-279 606.5,-285 606.5,-291 606.5,-291 606.5,-409 606.5,-409 606.5,-415 600.5,-421 594.5,-421 594.5,-421 386.5,-421 386.5,-421 380.5,-421 374.5,-415 374.5,-409 374.5,-409 374.5,-291 374.5,-291 374.5,-285 380.5,-279 386.5,-279"/>
<text text-anchor="middle" x="490.5" y="-409.8" font-family="Helvetica,sans-Serif" font-weight="bold" font-size="9.00" fill="#000000">model</text>
</g>
<g id="clust4" class="cluster">
<title>cluster_routes</title>
<path fill="#ffffff" stroke="#000000" stroke-width="2" d="M74,-146C74,-146 235.5,-146 235.5,-146 241.5,-146 247.5,-152 247.5,-158 247.5,-158 247.5,-216 247.5,-216 247.5,-222 241.5,-228 235.5,-228 235.5,-228 74,-228 74,-228 68,-228 62,-222 62,-216 62,-216 62,-158 62,-158 62,-152 68,-146 74,-146"/>
<text text-anchor="middle" x="154.75" y="-216.8" font-family="Helvetica,sans-Serif" font-weight="bold" font-size="9.00" fill="#000000">routes</text>
</g>
<g id="clust5" class="cluster">
<title>cluster_shared</title>
<path fill="#ffffff" stroke="#000000" stroke-width="2" d="M273.5,-159C273.5,-159 348.5,-159 348.5,-159 354.5,-159 360.5,-165 360.5,-171 360.5,-171 360.5,-199 360.5,-199 360.5,-205 354.5,-211 348.5,-211 348.5,-211 273.5,-211 273.5,-211 267.5,-211 261.5,-205 261.5,-199 261.5,-199 261.5,-171 261.5,-171 261.5,-165 267.5,-159 273.5,-159"/>
<text text-anchor="middle" x="311" y="-199.8" font-family="Helvetica,sans-Serif" font-weight="bold" font-size="9.00" fill="#000000">shared</text>
</g>
<g id="clust6" class="cluster">
<title>cluster_util</title>
<path fill="#ffffff" stroke="#000000" stroke-width="2" d="M144,-8C144,-8 339,-8 339,-8 345,-8 351,-14 351,-20 351,-20 351,-108 351,-108 351,-114 345,-120 339,-120 339,-120 144,-120 144,-120 138,-120 132,-114 132,-108 132,-108 132,-20 132,-20 132,-14 138,-8 144,-8"/>
<text text-anchor="middle" x="241.5" y="-108.8" font-family="Helvetica,sans-Serif" font-weight="bold" font-size="9.00" fill="#000000">util</text>
</g>
<!-- config/tabVisualizations.js -->
<g id="node1" class="node">
<title>config/tabVisualizations.js</title>
<g id="a_node1"><a xlink:href="config/tabVisualizations.js" xlink:title="tabVisualizations.js">
<path fill="#ffffcc" stroke="#000000" d="M352.5,-276C352.5,-276 269.5,-276 269.5,-276 266.5,-276 263.5,-273 263.5,-270 263.5,-270 263.5,-264 263.5,-264 263.5,-261 266.5,-258 269.5,-258 269.5,-258 352.5,-258 352.5,-258 355.5,-258 358.5,-261 358.5,-264 358.5,-264 358.5,-270 358.5,-270 358.5,-273 355.5,-276 352.5,-276"/>
<text text-anchor="middle" x="311" y="-264.8" font-family="Helvetica,sans-Serif" font-size="9.00" fill="#000000">tabVisualizations.js</text>
</a>
</g>
</g>
<!-- config/visualizations.js -->
<g id="node2" class="node">
<title>config/visualizations.js</title>
<g id="a_node2"><a xlink:href="config/visualizations.js" xlink:title="visualizations.js">
<path fill="#ffffcc" stroke="#000000" d="M345.5,-306C345.5,-306 276.5,-306 276.5,-306 273.5,-306 270.5,-303 270.5,-300 270.5,-300 270.5,-294 270.5,-294 270.5,-291 273.5,-288 276.5,-288 276.5,-288 345.5,-288 345.5,-288 348.5,-288 351.5,-291 351.5,-294 351.5,-294 351.5,-300 351.5,-300 351.5,-303 348.5,-306 345.5,-306"/>
<text text-anchor="middle" x="311" y="-294.8" font-family="Helvetica,sans-Serif" font-size="9.00" fill="#000000">visualizations.js</text>
</a>
</g>
</g>
<!-- model/refrigeratorClasses.json -->
<g id="node3" class="node">
<title>model/refrigeratorClasses.json</title>
<g id="a_node3"><a xlink:href="model/refrigeratorClasses.json" xlink:title="refrigeratorClasses.json">
<path fill="#ffee44" stroke="#000000" d="M490.5,-335C490.5,-335 388.5,-335 388.5,-335 385.5,-335 382.5,-332 382.5,-329 382.5,-329 382.5,-323 382.5,-323 382.5,-320 385.5,-317 388.5,-317 388.5,-317 490.5,-317 490.5,-317 493.5,-317 496.5,-320 496.5,-323 496.5,-323 496.5,-329 496.5,-329 496.5,-332 493.5,-335 490.5,-335"/>
<text text-anchor="middle" x="439.5" y="-323.8" font-family="Helvetica,sans-Serif" font-size="9.00" fill="#000000">refrigeratorClasses.json</text>
</a>
</g>
</g>
<!-- config/visualizations.js&#45;&gt;model/refrigeratorClasses.json -->
<g id="edge1" class="edge">
<title>config/visualizations.js&#45;&gt;model/refrigeratorClasses.json</title>
<path fill="none" stroke="#000000" stroke-width="2" stroke-opacity="0.200000" d="M350.9538,-306.0168C364.4916,-309.072 379.717,-312.5081 393.6751,-315.6582"/>
<polygon fill="#000000" fill-opacity="0.200000" stroke="#000000" stroke-width="2" stroke-opacity="0.200000" points="393.2558,-317.7163 399.5709,-316.9888 394.1804,-313.6193 393.2558,-317.7163"/>
</g>
<!-- controller/exportQueries.js -->
<g id="node4" class="node">
<title>controller/exportQueries.js</title>
<g id="a_node4"><a xlink:href="controller/exportQueries.js" xlink:title="exportQueries.js">
<path fill="#ffffcc" stroke="#000000" d="M227.5,-426C227.5,-426 156.5,-426 156.5,-426 153.5,-426 150.5,-423 150.5,-420 150.5,-420 150.5,-414 150.5,-414 150.5,-411 153.5,-408 156.5,-408 156.5,-408 227.5,-408 227.5,-408 230.5,-408 233.5,-411 233.5,-414 233.5,-414 233.5,-420 233.5,-420 233.5,-423 230.5,-426 227.5,-426"/>
<text text-anchor="middle" x="192" y="-414.8" font-family="Helvetica,sans-Serif" font-size="9.00" fill="#000000">exportQueries.js</text>
</a>
</g>
</g>
<!-- controller/filterOptions.js -->
<g id="node5" class="node">
<title>controller/filterOptions.js</title>
<g id="a_node5"><a xlink:href="controller/filterOptions.js" xlink:title="filterOptions.js">
<path fill="#ffffcc" stroke="#000000" d="M223,-366C223,-366 161,-366 161,-366 158,-366 155,-363 155,-360 155,-360 155,-354 155,-354 155,-351 158,-348 161,-348 161,-348 223,-348 223,-348 226,-348 229,-351 229,-354 229,-354 229,-360 229,-360 229,-363 226,-366 223,-366"/>
<text text-anchor="middle" x="192" y="-354.8" font-family="Helvetica,sans-Serif" font-size="9.00" fill="#000000">filterOptions.js</text>
</a>
</g>
</g>
<!-- controller/filterSpecification.js -->
<g id="node6" class="node">
<title>controller/filterSpecification.js</title>
<g id="a_node6"><a xlink:href="controller/filterSpecification.js" xlink:title="filterSpecification.js">
<path fill="#ffffcc" stroke="#000000" d="M352.5,-367C352.5,-367 269.5,-367 269.5,-367 266.5,-367 263.5,-364 263.5,-361 263.5,-361 263.5,-355 263.5,-355 263.5,-352 266.5,-349 269.5,-349 269.5,-349 352.5,-349 352.5,-349 355.5,-349 358.5,-352 358.5,-355 358.5,-355 358.5,-361 358.5,-361 358.5,-364 355.5,-367 352.5,-367"/>
<text text-anchor="middle" x="311" y="-355.8" font-family="Helvetica,sans-Serif" font-size="9.00" fill="#000000">filterSpecification.js</text>
</a>
</g>
</g>
<!-- controller/filterOptions.js&#45;&gt;controller/filterSpecification.js -->
<g id="edge2" class="edge">
<title>controller/filterOptions.js&#45;&gt;controller/filterSpecification.js</title>
<path fill="none" stroke="#000000" stroke-width="2" stroke-opacity="0.200000" d="M229,-357.3109C237.955,-357.3862 247.7073,-357.4681 257.2597,-357.5484"/>
<polygon fill="#000000" fill-opacity="0.200000" stroke="#000000" stroke-width="2" stroke-opacity="0.200000" points="257.4803,-359.6502 263.4978,-357.6008 257.5157,-355.4504 257.4803,-359.6502"/>
</g>
<!-- controller/formatResponse.js -->
<g id="node7" class="node">
<title>controller/formatResponse.js</title>
<g id="a_node7"><a xlink:href="controller/formatResponse.js" xlink:title="formatResponse.js">
<path fill="#ffffcc" stroke="#000000" d="M232.5,-456C232.5,-456 151.5,-456 151.5,-456 148.5,-456 145.5,-453 145.5,-450 145.5,-450 145.5,-444 145.5,-444 145.5,-441 148.5,-438 151.5,-438 151.5,-438 232.5,-438 232.5,-438 235.5,-438 238.5,-441 238.5,-444 238.5,-444 238.5,-450 238.5,-450 238.5,-453 235.5,-456 232.5,-456"/>
<text text-anchor="middle" x="192" y="-444.8" font-family="Helvetica,sans-Serif" font-size="9.00" fill="#000000">formatResponse.js</text>
</a>
</g>
</g>
<!-- controller/formatResponse.js&#45;&gt;config/visualizations.js -->
<g id="edge3" class="edge">
<title>controller/formatResponse.js&#45;&gt;config/visualizations.js</title>
<path fill="none" stroke="#000000" stroke-width="2" stroke-opacity="0.200000" d="M238.6521,-439.3807C241.9837,-437.4149 245.0059,-434.9887 247.5,-432 261.074,-415.7339 245.0624,-355.4363 255.5,-337 262.2887,-325.009 274.3227,-315.6712 285.4537,-309.0445"/>
<polygon fill="#000000" fill-opacity="0.200000" stroke="#000000" stroke-width="2" stroke-opacity="0.200000" points="286.6303,-310.7917 290.8185,-306.0094 284.5622,-307.1361 286.6303,-310.7917"/>
</g>
<!-- controller/indicatorQueries.js -->
<g id="node8" class="node">
<title>controller/indicatorQueries.js</title>
<g id="a_node8"><a xlink:href="controller/indicatorQueries.js" xlink:title="indicatorQueries.js">
<path fill="#ffffcc" stroke="#000000" d="M232.5,-486C232.5,-486 151.5,-486 151.5,-486 148.5,-486 145.5,-483 145.5,-480 145.5,-480 145.5,-474 145.5,-474 145.5,-471 148.5,-468 151.5,-468 151.5,-468 232.5,-468 232.5,-468 235.5,-468 238.5,-471 238.5,-474 238.5,-474 238.5,-480 238.5,-480 238.5,-483 235.5,-486 232.5,-486"/>
<text text-anchor="middle" x="192" y="-474.8" font-family="Helvetica,sans-Serif" font-size="9.00" fill="#000000">indicatorQueries.js</text>
</a>
</g>
</g>
<!-- controller/legendQuery.js -->
<g id="node9" class="node">
<title>controller/legendQuery.js</title>
<g id="a_node9"><a xlink:href="controller/legendQuery.js" xlink:title="legendQuery.js">
<path fill="#ffffcc" stroke="#000000" d="M225.5,-396C225.5,-396 158.5,-396 158.5,-396 155.5,-396 152.5,-393 152.5,-390 152.5,-390 152.5,-384 152.5,-384 152.5,-381 155.5,-378 158.5,-378 158.5,-378 225.5,-378 225.5,-378 228.5,-378 231.5,-381 231.5,-384 231.5,-384 231.5,-390 231.5,-390 231.5,-393 228.5,-396 225.5,-396"/>
<text text-anchor="middle" x="192" y="-384.8" font-family="Helvetica,sans-Serif" font-size="9.00" fill="#000000">legendQuery.js</text>
</a>
</g>
</g>
<!-- model/tableName.js -->
<g id="node10" class="node">
<title>model/tableName.js</title>
<g id="a_node10"><a xlink:href="model/tableName.js" xlink:title="tableName.js">
<path fill="#ffffcc" stroke="#000000" d="M469,-365C469,-365 410,-365 410,-365 407,-365 404,-362 404,-359 404,-359 404,-353 404,-353 404,-350 407,-347 410,-347 410,-347 469,-347 469,-347 472,-347 475,-350 475,-353 475,-353 475,-359 475,-359 475,-362 472,-365 469,-365"/>
<text text-anchor="middle" x="439.5" y="-353.8" font-family="Helvetica,sans-Serif" font-size="9.00" fill="#000000">tableName.js</text>
</a>
</g>
</g>
<!-- controller/legendQuery.js&#45;&gt;model/tableName.js -->
<g id="edge4" class="edge">
<title>controller/legendQuery.js&#45;&gt;model/tableName.js</title>
<path fill="none" stroke="#000000" stroke-width="2" stroke-opacity="0.200000" d="M231.7285,-385.6786C267.2445,-384.0551 320.6122,-380.524 366.5,-373 370.1167,-372.407 370.9365,-371.8565 374.5,-371 382.0376,-369.1882 390.0773,-367.2984 397.8414,-365.4952"/>
<polygon fill="#000000" fill-opacity="0.200000" stroke="#000000" stroke-width="2" stroke-opacity="0.200000" points="398.3403,-367.5353 403.7119,-364.1359 397.3928,-363.4436 398.3403,-367.5353"/>
</g>
<!-- controller/queryTemplate.js -->
<g id="node11" class="node">
<title>controller/queryTemplate.js</title>
<g id="a_node11"><a xlink:href="controller/queryTemplate.js" xlink:title="queryTemplate.js">
<path fill="#ffffcc" stroke="#000000" d="M229.5,-516C229.5,-516 154.5,-516 154.5,-516 151.5,-516 148.5,-513 148.5,-510 148.5,-510 148.5,-504 148.5,-504 148.5,-501 151.5,-498 154.5,-498 154.5,-498 229.5,-498 229.5,-498 232.5,-498 235.5,-501 235.5,-504 235.5,-504 235.5,-510 235.5,-510 235.5,-513 232.5,-516 229.5,-516"/>
<text text-anchor="middle" x="192" y="-504.8" font-family="Helvetica,sans-Serif" font-size="9.00" fill="#000000">queryTemplate.js</text>
</a>
</g>
</g>
<!-- controller/queryTemplate.js&#45;&gt;controller/filterSpecification.js -->
<g id="edge6" class="edge">
<title>controller/queryTemplate.js&#45;&gt;controller/filterSpecification.js</title>
<path fill="none" stroke="#000000" stroke-width="2" stroke-opacity="0.200000" d="M235.6719,-500.4875C240.1022,-498.3615 244.1828,-495.5938 247.5,-492 260.6847,-477.7157 248.5467,-467.1529 255.5,-449 266.7175,-419.7146 287.4049,-389.3236 300.1085,-372.1245"/>
<polygon fill="#000000" fill-opacity="0.200000" stroke="#000000" stroke-width="2" stroke-opacity="0.200000" points="301.8608,-373.288 303.7754,-367.2262 298.4985,-370.771 301.8608,-373.288"/>
</g>
<!-- controller/queryTemplate.js&#45;&gt;model/tableName.js -->
<g id="edge5" class="edge">
<title>controller/queryTemplate.js&#45;&gt;model/tableName.js</title>
<path fill="none" stroke="#000000" stroke-width="2" stroke-opacity="0.200000" d="M233.7191,-497.9623C238.4922,-496.2795 243.1873,-494.3065 247.5,-492 309.4391,-458.8749 324.2041,-444.0784 366.5,-388 371.5282,-381.3333 368.0011,-376.2433 374.5,-371 381.2376,-365.5641 389.5824,-362.0238 398.0214,-359.7355"/>
<polygon fill="#000000" fill-opacity="0.200000" stroke="#000000" stroke-width="2" stroke-opacity="0.200000" points="398.5108,-361.7778 403.8602,-358.3435 397.5367,-357.6923 398.5108,-361.7778"/>
</g>
<!-- fs -->
<g id="node12" class="node">
<title>fs</title>
<path fill="#ffffcc" stroke="#c0c0c0" d="M118,-624C118,-624 76,-624 76,-624 73,-624 70,-621 70,-618 70,-618 70,-612 70,-612 70,-609 73,-606 76,-606 76,-606 118,-606 118,-606 121,-606 124,-609 124,-612 124,-612 124,-618 124,-618 124,-621 121,-624 118,-624"/>
<text text-anchor="middle" x="97" y="-612.8" font-family="Helvetica,sans-Serif" font-size="9.00" fill="#c0c0c0">fs</text>
</g>
<!-- model/db.js -->
<g id="node13" class="node">
<title>model/db.js</title>
<g id="a_node13"><a xlink:href="model/db.js" xlink:title="db.js">
<path fill="#ffffcc" stroke="#000000" d="M460.5,-395C460.5,-395 418.5,-395 418.5,-395 415.5,-395 412.5,-392 412.5,-389 412.5,-389 412.5,-383 412.5,-383 412.5,-380 415.5,-377 418.5,-377 418.5,-377 460.5,-377 460.5,-377 463.5,-377 466.5,-380 466.5,-383 466.5,-383 466.5,-389 466.5,-389 466.5,-392 463.5,-395 460.5,-395"/>
<text text-anchor="middle" x="439.5" y="-383.8" font-family="Helvetica,sans-Serif" font-size="9.00" fill="#000000">db.js</text>
</a>
</g>
</g>
<!-- model/dbTransactions.js -->
<g id="node14" class="node">
<title>model/dbTransactions.js</title>
<g id="a_node14"><a xlink:href="model/dbTransactions.js" xlink:title="dbTransactions.js">
<path fill="#ffffcc" stroke="#000000" d="M592.5,-395C592.5,-395 515.5,-395 515.5,-395 512.5,-395 509.5,-392 509.5,-389 509.5,-389 509.5,-383 509.5,-383 509.5,-380 512.5,-377 515.5,-377 515.5,-377 592.5,-377 592.5,-377 595.5,-377 598.5,-380 598.5,-383 598.5,-383 598.5,-389 598.5,-389 598.5,-392 595.5,-395 592.5,-395"/>
<text text-anchor="middle" x="554" y="-383.8" font-family="Helvetica,sans-Serif" font-size="9.00" fill="#000000">dbTransactions.js</text>
</a>
</g>
</g>
<!-- model/db.js&#45;&gt;model/dbTransactions.js -->
<g id="edge7" class="edge">
<title>model/db.js&#45;&gt;model/dbTransactions.js</title>
<path fill="none" stroke="#000000" stroke-width="2" stroke-opacity="0.200000" d="M466.6349,-386C477.5466,-386 490.4986,-386 503.0428,-386"/>
<polygon fill="#000000" fill-opacity="0.200000" stroke="#000000" stroke-width="2" stroke-opacity="0.200000" points="503.1573,-388.1001 509.1573,-386 503.1573,-383.9001 503.1573,-388.1001"/>
</g>
<!-- model/facilityClasses.json -->
<g id="node15" class="node">
<title>model/facilityClasses.json</title>
<g id="a_node15"><a xlink:href="model/facilityClasses.json" xlink:title="facilityClasses.json">
<path fill="#ffee44" stroke="#000000" d="M481,-305C481,-305 398,-305 398,-305 395,-305 392,-302 392,-299 392,-299 392,-293 392,-293 392,-290 395,-287 398,-287 398,-287 481,-287 481,-287 484,-287 487,-290 487,-293 487,-293 487,-299 487,-299 487,-302 484,-305 481,-305"/>
<text text-anchor="middle" x="439.5" y="-293.8" font-family="Helvetica,sans-Serif" font-size="9.00" fill="#000000">facilityClasses.json</text>
</a>
</g>
</g>
<!-- path -->
<g id="node16" class="node">
<title>path</title>
<path fill="#ffffcc" stroke="#c0c0c0" d="M118,-594C118,-594 76,-594 76,-594 73,-594 70,-591 70,-588 70,-588 70,-582 70,-582 70,-579 73,-576 76,-576 76,-576 118,-576 118,-576 121,-576 124,-579 124,-582 124,-582 124,-588 124,-588 124,-591 121,-594 118,-594"/>
<text text-anchor="middle" x="97" y="-582.8" font-family="Helvetica,sans-Serif" font-size="9.00" fill="#c0c0c0">path</text>
</g>
<!-- routes/api.js -->
<g id="node17" class="node">
<title>routes/api.js</title>
<g id="a_node17"><a xlink:href="routes/api.js" xlink:title="api.js">
<path fill="#ffffcc" stroke="#000000" d="M118,-202C118,-202 76,-202 76,-202 73,-202 70,-199 70,-196 70,-196 70,-190 70,-190 70,-187 73,-184 76,-184 76,-184 118,-184 118,-184 121,-184 124,-187 124,-190 124,-190 124,-196 124,-196 124,-199 121,-202 118,-202"/>
<text text-anchor="middle" x="97" y="-190.8" font-family="Helvetica,sans-Serif" font-size="9.00" fill="#000000">api.js</text>
</a>
</g>
</g>
<!-- routes/api.js&#45;&gt;config/visualizations.js -->
<g id="edge8" class="edge">
<title>routes/api.js&#45;&gt;config/visualizations.js</title>
<path fill="none" stroke="#000000" stroke-width="2" stroke-opacity="0.200000" d="M98.3777,-202.3292C102.3087,-227.5299 114.4379,-295.9548 132,-309 177.0933,-342.4955 247.4912,-322.8401 285.159,-308.2989"/>
<polygon fill="#000000" fill-opacity="0.200000" stroke="#000000" stroke-width="2" stroke-opacity="0.200000" points="286.1103,-310.1808 290.9145,-306.0179 284.5629,-306.2763 286.1103,-310.1808"/>
</g>
<!-- routes/api.js&#45;&gt;controller/exportQueries.js -->
<g id="edge9" class="edge">
<title>routes/api.js&#45;&gt;controller/exportQueries.js</title>
<path fill="none" stroke="#000000" stroke-width="2" stroke-opacity="0.200000" d="M97.2525,-202.4733C98.4277,-239.2882 104.5373,-372.2756 132,-402 135.5612,-405.8545 139.9497,-408.784 144.7196,-411.0011"/>
<polygon fill="#000000" fill-opacity="0.200000" stroke="#000000" stroke-width="2" stroke-opacity="0.200000" points="144.1164,-413.0212 150.4676,-413.2894 145.6698,-409.1191 144.1164,-413.0212"/>
</g>
<!-- routes/api.js&#45;&gt;controller/formatResponse.js -->
<g id="edge10" class="edge">
<title>routes/api.js&#45;&gt;controller/formatResponse.js</title>
<path fill="none" stroke="#000000" stroke-width="2" stroke-opacity="0.200000" d="M97.742,-202.1726C101.1966,-243.9034 116.2061,-414.5497 132,-432 134.2966,-434.5375 136.9516,-436.6757 139.8399,-438.4746"/>
<polygon fill="#000000" fill-opacity="0.200000" stroke="#000000" stroke-width="2" stroke-opacity="0.200000" points="138.9806,-440.396 145.2641,-441.3592 140.9527,-436.6878 138.9806,-440.396"/>
</g>
<!-- routes/api.js&#45;&gt;controller/indicatorQueries.js -->
<g id="edge11" class="edge">
<title>routes/api.js&#45;&gt;controller/indicatorQueries.js</title>
<path fill="none" stroke="#000000" stroke-width="2" stroke-opacity="0.200000" d="M97.5806,-202.0995C100.514,-246.8344 114.2639,-442.0854 132,-462 134.3209,-464.6059 137.0195,-466.792 139.9625,-468.6227"/>
<polygon fill="#000000" fill-opacity="0.200000" stroke="#000000" stroke-width="2" stroke-opacity="0.200000" points="139.2094,-470.6 145.4952,-471.5483 141.1727,-466.8871 139.2094,-470.6"/>
</g>
<!-- routes/api.js&#45;&gt;controller/legendQuery.js -->
<g id="edge12" class="edge">
<title>routes/api.js&#45;&gt;controller/legendQuery.js</title>
<path fill="none" stroke="#000000" stroke-width="2" stroke-opacity="0.200000" d="M97.5137,-202.0067C99.5644,-234.7657 108.2357,-346.9696 132,-372 136.0176,-376.2316 141.0332,-379.3426 146.4422,-381.618"/>
<polygon fill="#000000" fill-opacity="0.200000" stroke="#000000" stroke-width="2" stroke-opacity="0.200000" points="146.0805,-383.7195 152.4372,-383.7727 147.5011,-379.767 146.0805,-383.7195"/>
</g>
<!-- routes/api.js&#45;&gt;controller/queryTemplate.js -->
<g id="edge13" class="edge">
<title>routes/api.js&#45;&gt;controller/queryTemplate.js</title>
<path fill="none" stroke="#000000" stroke-width="2" stroke-opacity="0.200000" d="M97.4586,-202.1453C99.9348,-249.9351 112.3303,-469.6263 132,-492 135.0219,-495.4373 138.7009,-498.1458 142.7343,-500.2729"/>
<polygon fill="#000000" fill-opacity="0.200000" stroke="#000000" stroke-width="2" stroke-opacity="0.200000" points="142.092,-502.2863 148.4259,-502.827 143.8116,-498.4545 142.092,-502.2863"/>
</g>
<!-- util/auth.js -->
<g id="node18" class="node">
<title>util/auth.js</title>
<g id="a_node18"><a xlink:href="util/auth.js" xlink:title="auth.js">
<path fill="#ffffcc" stroke="#000000" d="M213,-94C213,-94 171,-94 171,-94 168,-94 165,-91 165,-88 165,-88 165,-82 165,-82 165,-79 168,-76 171,-76 171,-76 213,-76 213,-76 216,-76 219,-79 219,-82 219,-82 219,-88 219,-88 219,-91 216,-94 213,-94"/>
<text text-anchor="middle" x="192" y="-82.8" font-family="Helvetica,sans-Serif" font-size="9.00" fill="#000000">auth.js</text>
</a>
</g>
</g>
<!-- routes/api.js&#45;&gt;util/auth.js -->
<g id="edge14" class="edge">
<title>routes/api.js&#45;&gt;util/auth.js</title>
<path fill="none" stroke="#000000" stroke-width="2" stroke-opacity="0.200000" d="M117.9203,-183.8526C120.2171,-182.1722 122.3254,-180.2295 124,-178 133.583,-165.2414 124.1612,-156.8986 132,-143 142.3956,-124.568 160.4608,-108.288 174.0595,-97.7045"/>
<polygon fill="#000000" fill-opacity="0.200000" stroke="#000000" stroke-width="2" stroke-opacity="0.200000" points="175.3372,-99.3712 178.845,-94.0697 172.7968,-96.0266 175.3372,-99.3712"/>
</g>
<!-- routes/schemas.js -->
<g id="node19" class="node">
<title>routes/schemas.js</title>
<g id="a_node19"><a xlink:href="routes/schemas.js" xlink:title="schemas.js">
<path fill="#ffffcc" stroke="#000000" d="M217,-172C217,-172 167,-172 167,-172 164,-172 161,-169 161,-166 161,-166 161,-160 161,-160 161,-157 164,-154 167,-154 167,-154 217,-154 217,-154 220,-154 223,-157 223,-160 223,-160 223,-166 223,-166 223,-169 220,-172 217,-172"/>
<text text-anchor="middle" x="192" y="-160.8" font-family="Helvetica,sans-Serif" font-size="9.00" fill="#000000">schemas.js</text>
</a>
</g>
</g>
<!-- routes/api.js&#45;&gt;routes/schemas.js -->
<g id="edge15" class="edge">
<title>routes/api.js&#45;&gt;routes/schemas.js</title>
<path fill="none" stroke="#000000" stroke-width="2" stroke-opacity="0.200000" d="M116.7755,-183.8731C121.6906,-181.7864 126.988,-179.6884 132,-178 139.2341,-175.563 147.0776,-173.3227 154.6341,-171.3579"/>
<polygon fill="#000000" fill-opacity="0.200000" stroke="#000000" stroke-width="2" stroke-opacity="0.200000" points="155.5928,-173.2815 160.8944,-169.7739 154.5625,-169.2099 155.5928,-173.2815"/>
</g>
<!-- routes/schemaValidator.js -->
<g id="node20" class="node">
<title>routes/schemaValidator.js</title>
<g id="a_node20"><a xlink:href="routes/schemaValidator.js" xlink:title="schemaValidator.js">
<path fill="#ffffcc" stroke="#000000" d="M233.5,-202C233.5,-202 150.5,-202 150.5,-202 147.5,-202 144.5,-199 144.5,-196 144.5,-196 144.5,-190 144.5,-190 144.5,-187 147.5,-184 150.5,-184 150.5,-184 233.5,-184 233.5,-184 236.5,-184 239.5,-187 239.5,-190 239.5,-190 239.5,-196 239.5,-196 239.5,-199 236.5,-202 233.5,-202"/>
<text text-anchor="middle" x="192" y="-190.8" font-family="Helvetica,sans-Serif" font-size="9.00" fill="#000000">schemaValidator.js</text>
</a>
</g>
</g>
<!-- routes/api.js&#45;&gt;routes/schemaValidator.js -->
<g id="edge16" class="edge">
<title>routes/api.js&#45;&gt;routes/schemaValidator.js</title>
<path fill="none" stroke="#000000" stroke-width="2" stroke-opacity="0.200000" d="M124.2232,-193C128.6952,-193 133.4623,-193 138.3171,-193"/>
<polygon fill="#000000" fill-opacity="0.200000" stroke="#000000" stroke-width="2" stroke-opacity="0.200000" points="138.4979,-195.1001 144.4978,-193 138.4978,-190.9001 138.4979,-195.1001"/>
</g>
<!-- shared/exportOptions.js -->
<g id="node22" class="node">
<title>shared/exportOptions.js</title>
<g id="a_node22"><a xlink:href="shared/exportOptions.js" xlink:title="exportOptions.js">
<path fill="#ffffcc" stroke="#000000" d="M346.5,-185C346.5,-185 275.5,-185 275.5,-185 272.5,-185 269.5,-182 269.5,-179 269.5,-179 269.5,-173 269.5,-173 269.5,-170 272.5,-167 275.5,-167 275.5,-167 346.5,-167 346.5,-167 349.5,-167 352.5,-170 352.5,-173 352.5,-173 352.5,-179 352.5,-179 352.5,-182 349.5,-185 346.5,-185"/>
<text text-anchor="middle" x="311" y="-173.8" font-family="Helvetica,sans-Serif" font-size="9.00" fill="#000000">exportOptions.js</text>
</a>
</g>
</g>
<!-- routes/schemas.js&#45;&gt;shared/exportOptions.js -->
<g id="edge25" class="edge">
<title>routes/schemas.js&#45;&gt;shared/exportOptions.js</title>
<path fill="none" stroke="#000000" stroke-width="2" stroke-opacity="0.200000" d="M223.2658,-166.4156C235.4481,-167.7464 249.686,-169.3018 263.1046,-170.7677"/>
<polygon fill="#000000" fill-opacity="0.200000" stroke="#000000" stroke-width="2" stroke-opacity="0.200000" points="263.0093,-172.8697 269.2019,-171.4338 263.4655,-168.6946 263.0093,-172.8697"/>
</g>
<!-- routes/index.js -->
<g id="node21" class="node">
<title>routes/index.js</title>
<g id="a_node21"><a xlink:href="routes/index.js" xlink:title="index.js">
<path fill="#ffffcc" stroke="#000000" d="M118,-172C118,-172 76,-172 76,-172 73,-172 70,-169 70,-166 70,-166 70,-160 70,-160 70,-157 73,-154 76,-154 76,-154 118,-154 118,-154 121,-154 124,-157 124,-160 124,-160 124,-166 124,-166 124,-169 121,-172 118,-172"/>
<text text-anchor="middle" x="97" y="-160.8" font-family="Helvetica,sans-Serif" font-size="9.00" fill="#000000">index.js</text>
</a>
</g>
</g>
<!-- routes/index.js&#45;&gt;config/tabVisualizations.js -->
<g id="edge17" class="edge">
<title>routes/index.js&#45;&gt;config/tabVisualizations.js</title>
<path fill="none" stroke="#000000" stroke-width="2" stroke-opacity="0.200000" d="M118.4481,-172.1569C120.597,-173.8239 122.5255,-175.7607 124,-178 133.7041,-192.7373 119.2446,-244.8075 132,-257 169.3444,-292.6965 233.5095,-286.3085 274.0182,-277.4019"/>
<polygon fill="#000000" fill-opacity="0.200000" stroke="#000000" stroke-width="2" stroke-opacity="0.200000" points="274.684,-279.4038 280.0628,-276.0157 273.7452,-275.3101 274.684,-279.4038"/>
</g>
<!-- routes/index.js&#45;&gt;config/visualizations.js -->
<g id="edge18" class="edge">
<title>routes/index.js&#45;&gt;config/visualizations.js</title>
<path fill="none" stroke="#000000" stroke-width="2" stroke-opacity="0.200000" d="M118.4975,-172.1248C120.638,-173.7973 122.5509,-175.7442 124,-178 136.2881,-197.1296 116.0555,-263.7916 132,-280 149.808,-298.1028 217.2785,-300.0622 264.095,-299.0856"/>
<polygon fill="#000000" fill-opacity="0.200000" stroke="#000000" stroke-width="2" stroke-opacity="0.200000" points="264.3218,-301.1809 270.2697,-298.9376 264.221,-296.9821 264.3218,-301.1809"/>
</g>
<!-- routes/index.js&#45;&gt;model/refrigeratorClasses.json -->
<g id="edge21" class="edge">
<title>routes/index.js&#45;&gt;model/refrigeratorClasses.json</title>
<path fill="none" stroke="#000000" stroke-width="2" stroke-opacity="0.200000" d="M114.3529,-153.925C119.8463,-151.5041 126.0422,-149.2229 132,-148 183.0766,-137.5161 329.9184,-118.8447 366.5,-156 378.5989,-168.2887 363.4197,-297.7856 374.5,-311 375.365,-312.0316 376.2856,-313.0005 377.2547,-313.9102"/>
<polygon fill="#000000" fill-opacity="0.200000" stroke="#000000" stroke-width="2" stroke-opacity="0.200000" points="376.4519,-315.9473 382.4744,-317.982 379.0352,-312.6357 376.4519,-315.9473"/>
</g>
<!-- routes/index.js&#45;&gt;controller/filterOptions.js -->
<g id="edge19" class="edge">
<title>routes/index.js&#45;&gt;controller/filterOptions.js</title>
<path fill="none" stroke="#000000" stroke-width="2" stroke-opacity="0.200000" d="M118.5355,-172.1006C120.6694,-173.7773 122.5705,-175.7317 124,-178 139.5501,-202.6741 118.5702,-283.1106 132,-309 139.9547,-324.3347 155.2151,-336.4379 168.3543,-344.6549"/>
<polygon fill="#000000" fill-opacity="0.200000" stroke="#000000" stroke-width="2" stroke-opacity="0.200000" points="167.6022,-346.6525 173.8281,-347.9366 169.7619,-343.0502 167.6022,-346.6525"/>
</g>
<!-- routes/index.js&#45;&gt;model/facilityClasses.json -->
<g id="edge20" class="edge">
<title>routes/index.js&#45;&gt;model/facilityClasses.json</title>
<path fill="none" stroke="#000000" stroke-width="2" stroke-opacity="0.200000" d="M118.0408,-172.0596C120.3178,-173.7543 122.3886,-175.7244 124,-178 136.2452,-195.2928 116.4653,-210.5896 132,-225 208.7448,-296.1906 267.8949,-211.8588 366.5,-247 388.7817,-254.9408 410.8375,-271.2235 424.776,-282.8388"/>
<polygon fill="#000000" fill-opacity="0.200000" stroke="#000000" stroke-width="2" stroke-opacity="0.200000" points="423.5986,-284.5943 429.5293,-286.8828 426.3202,-281.3954 423.5986,-284.5943"/>
</g>
<!-- routes/index.js&#45;&gt;util/auth.js -->
<g id="edge23" class="edge">
<title>routes/index.js&#45;&gt;util/auth.js</title>
<path fill="none" stroke="#000000" stroke-width="2" stroke-opacity="0.200000" d="M104.2407,-153.9836C110.9673,-145.9029 121.5003,-133.9745 132,-125 144.1315,-114.6308 159.0587,-104.67 170.9892,-97.282"/>
<polygon fill="#000000" fill-opacity="0.200000" stroke="#000000" stroke-width="2" stroke-opacity="0.200000" points="172.2126,-98.9956 176.2391,-94.0764 170.0238,-95.411 172.2126,-98.9956"/>
</g>
<!-- routes/index.js&#45;&gt;shared/exportOptions.js -->
<g id="edge22" class="edge">
<title>routes/index.js&#45;&gt;shared/exportOptions.js</title>
<path fill="none" stroke="#000000" stroke-width="2" stroke-opacity="0.200000" d="M117.5774,-172.0137C119.9891,-173.7286 122.2197,-175.7163 124,-178 132.484,-188.8831 121.0573,-199.593 132,-208 179.763,-244.6952 255.7574,-208.9193 291.3724,-188.3131"/>
<polygon fill="#000000" fill-opacity="0.200000" stroke="#000000" stroke-width="2" stroke-opacity="0.200000" points="292.6319,-190.0083 296.7312,-185.1496 290.4967,-186.3915 292.6319,-190.0083"/>
</g>
<!-- util/mergeFilterOptions.js -->
<g id="node23" class="node">
<title>util/mergeFilterOptions.js</title>
<g id="a_node23"><a xlink:href="util/mergeFilterOptions.js" xlink:title="mergeFilterOptions.js">
<path fill="#ffffcc" stroke="#000000" d="M238,-64C238,-64 146,-64 146,-64 143,-64 140,-61 140,-58 140,-58 140,-52 140,-52 140,-49 143,-46 146,-46 146,-46 238,-46 238,-46 241,-46 244,-49 244,-52 244,-52 244,-58 244,-58 244,-61 241,-64 238,-64"/>
<text text-anchor="middle" x="192" y="-52.8" font-family="Helvetica,sans-Serif" font-size="9.00" fill="#000000">mergeFilterOptions.js</text>
</a>
</g>
</g>
<!-- routes/index.js&#45;&gt;util/mergeFilterOptions.js -->
<g id="edge24" class="edge">
<title>routes/index.js&#45;&gt;util/mergeFilterOptions.js</title>
<path fill="none" stroke="#000000" stroke-width="2" stroke-opacity="0.200000" d="M100.2208,-153.7478C108.2413,-130.8082 128.6997,-72.9411 132,-70 133.0421,-69.0713 134.1331,-68.1983 135.2653,-67.3776"/>
<polygon fill="#000000" fill-opacity="0.200000" stroke="#000000" stroke-width="2" stroke-opacity="0.200000" points="136.5085,-69.0766 140.4699,-64.1049 134.2728,-65.5211 136.5085,-69.0766"/>
</g>
<!-- server.js -->
<g id="node24" class="node">
<title>server.js</title>
<g id="a_node24"><a xlink:href="server.js" xlink:title="server.js">
<path fill="#ffffcc" stroke="#000000" d="M48,-384C48,-384 6,-384 6,-384 3,-384 0,-381 0,-378 0,-378 0,-372 0,-372 0,-369 3,-366 6,-366 6,-366 48,-366 48,-366 51,-366 54,-369 54,-372 54,-372 54,-378 54,-378 54,-381 51,-384 48,-384"/>
<text text-anchor="middle" x="27" y="-372.8" font-family="Helvetica,sans-Serif" font-size="9.00" fill="#000000">server.js</text>
</a>
</g>
</g>
<!-- server.js&#45;&gt;fs -->
<g id="edge30" class="edge">
<title>server.js&#45;&gt;fs</title>
<path fill="none" stroke="#000000" stroke-dasharray="5,2" stroke-opacity="0.200000" d="M27.2642,-384.018C28.5321,-421.5896 35.0921,-565.3375 62,-600 62.7905,-601.0183 63.6636,-601.9685 64.6023,-602.8551"/>
<polygon fill="#000000" fill-opacity="0.200000" stroke="#000000" stroke-opacity="0.200000" points="63.7143,-604.8181 69.7614,-606.7784 66.2566,-601.4749 63.7143,-604.8181"/>
</g>
<!-- server.js&#45;&gt;model/db.js -->
<g id="edge26" class="edge">
<title>server.js&#45;&gt;model/db.js</title>
<path fill="none" stroke="#000000" stroke-width="2" stroke-opacity="0.200000" d="M29.316,-384.3061C37.3532,-414.3407 67.1658,-508.8407 132,-545 223.0228,-595.7653 278.766,-601.2585 366.5,-545 417.3187,-512.413 433.2299,-434.5883 437.8049,-401.4098"/>
<polygon fill="#000000" fill-opacity="0.200000" stroke="#000000" stroke-width="2" stroke-opacity="0.200000" points="439.8958,-401.6143 438.5758,-395.396 435.7299,-401.0803 439.8958,-401.6143"/>
</g>
<!-- server.js&#45;&gt;path -->
<g id="edge31" class="edge">
<title>server.js&#45;&gt;path</title>
<path fill="none" stroke="#000000" stroke-dasharray="5,2" stroke-opacity="0.200000" d="M27.5972,-384.0052C29.9981,-417.8746 39.9013,-537.1979 62,-567 63.5109,-569.0376 65.3197,-570.8628 67.3082,-572.4943"/>
<polygon fill="#000000" fill-opacity="0.200000" stroke="#000000" stroke-opacity="0.200000" points="66.1051,-574.2156 72.2184,-575.9585 68.5263,-570.7837 66.1051,-574.2156"/>
</g>
<!-- server.js&#45;&gt;routes/api.js -->
<g id="edge27" class="edge">
<title>server.js&#45;&gt;routes/api.js</title>
<path fill="none" stroke="#000000" stroke-width="2" stroke-opacity="0.200000" d="M30.5675,-365.7244C41.9451,-336.1427 77.4359,-243.8668 91.3359,-207.7266"/>
<polygon fill="#000000" fill-opacity="0.200000" stroke="#000000" stroke-width="2" stroke-opacity="0.200000" points="93.3288,-208.3949 93.5227,-202.041 89.4087,-206.8872 93.3288,-208.3949"/>
</g>
<!-- server.js&#45;&gt;routes/index.js -->
<g id="edge28" class="edge">
<title>server.js&#45;&gt;routes/index.js</title>
<path fill="none" stroke="#000000" stroke-width="2" stroke-opacity="0.200000" d="M27.5002,-365.7111C29.5508,-330.7821 38.3537,-207.7937 62,-178 62.8014,-176.9902 63.6838,-176.0473 64.6302,-175.1668"/>
<polygon fill="#000000" fill-opacity="0.200000" stroke="#000000" stroke-width="2" stroke-opacity="0.200000" points="66.2845,-176.5503 69.8168,-171.2651 63.7596,-173.1939 66.2845,-176.5503"/>
</g>
<!-- util/configPassport.js -->
<g id="node25" class="node">
<title>util/configPassport.js</title>
<g id="a_node25"><a xlink:href="util/configPassport.js" xlink:title="configPassport.js">
<path fill="#ffffcc" stroke="#000000" d="M229,-34C229,-34 155,-34 155,-34 152,-34 149,-31 149,-28 149,-28 149,-22 149,-22 149,-19 152,-16 155,-16 155,-16 229,-16 229,-16 232,-16 235,-19 235,-22 235,-22 235,-28 235,-28 235,-31 232,-34 229,-34"/>
<text text-anchor="middle" x="192" y="-22.8" font-family="Helvetica,sans-Serif" font-size="9.00" fill="#000000">configPassport.js</text>
</a>
</g>
</g>
<!-- server.js&#45;&gt;util/configPassport.js -->
<g id="edge29" class="edge">
<title>server.js&#45;&gt;util/configPassport.js</title>
<path fill="none" stroke="#000000" stroke-width="2" stroke-opacity="0.200000" d="M27.8392,-365.7837C31.3633,-328.004 45.547,-185.0051 62,-143 82.1863,-91.4634 86.6153,-71.6818 132,-40 135.3718,-37.6463 139.0775,-35.6611 142.9417,-33.9868"/>
<polygon fill="#000000" fill-opacity="0.200000" stroke="#000000" stroke-width="2" stroke-opacity="0.200000" points="143.8651,-35.881 148.6964,-31.7496 142.3432,-31.9664 143.8651,-35.881"/>
</g>
<!-- util/odkxAuth.js -->
<g id="node26" class="node">
<title>util/odkxAuth.js</title>
<g id="a_node26"><a xlink:href="util/odkxAuth.js" xlink:title="odkxAuth.js">
<path fill="#ffffcc" stroke="#000000" d="M337,-34C337,-34 285,-34 285,-34 282,-34 279,-31 279,-28 279,-28 279,-22 279,-22 279,-19 282,-16 285,-16 285,-16 337,-16 337,-16 340,-16 343,-19 343,-22 343,-22 343,-28 343,-28 343,-31 340,-34 337,-34"/>
<text text-anchor="middle" x="311" y="-22.8" font-family="Helvetica,sans-Serif" font-size="9.00" fill="#000000">odkxAuth.js</text>
</a>
</g>
</g>
<!-- util/configPassport.js&#45;&gt;util/odkxAuth.js -->
<g id="edge32" class="edge">
<title>util/configPassport.js&#45;&gt;util/odkxAuth.js</title>
<path fill="none" stroke="#000000" stroke-width="2" stroke-opacity="0.200000" d="M235.2984,-25C247.522,-25 260.7331,-25 272.6446,-25"/>
<polygon fill="#000000" fill-opacity="0.200000" stroke="#000000" stroke-width="2" stroke-opacity="0.200000" points="272.743,-27.1001 278.743,-25 272.7429,-22.9001 272.743,-27.1001"/>
</g>
</g>
</svg>
