<?xml version="1.0" encoding="UTF-8" standalone="no"?>
<!DOCTYPE svg PUBLIC "-//W3C//DTD SVG 1.1//EN"
 "http://www.w3.org/Graphics/SVG/1.1/DTD/svg11.dtd">
<!-- Generated by graphviz version 2.40.1 (20161225.0304)
 -->
<!-- Title: dependency&#45;cruiser output Pages: 1 -->
<svg width="504pt" height="656pt"
 viewBox="0.00 0.00 503.50 656.00" xmlns="http://www.w3.org/2000/svg" xmlns:xlink="http://www.w3.org/1999/xlink">
<g id="graph0" class="graph" transform="scale(1 1) rotate(0) translate(4 652)">
<title>dependency&#45;cruiser output</title>
<polygon fill="#ffffff" stroke="transparent" points="-4,4 -4,-652 499.5,-652 499.5,4 -4,4"/>
<g id="clust1" class="cluster">
<title>cluster_controller</title>
<path fill="#ffffff" stroke="#000000" stroke-width="2" d="M149.5,-288C149.5,-288 364,-288 364,-288 370,-288 376,-294 376,-300 376,-300 376,-478 376,-478 376,-484 370,-490 364,-490 364,-490 149.5,-490 149.5,-490 143.5,-490 137.5,-484 137.5,-478 137.5,-478 137.5,-300 137.5,-300 137.5,-294 143.5,-288 149.5,-288"/>
<text text-anchor="middle" x="256.75" y="-478.8" font-family="Helvetica,sans-Serif" font-weight="bold" font-size="9.00" fill="#000000">controller</text>
</g>
<g id="clust2" class="cluster">
<title>cluster_model</title>
<path fill="#ffffff" stroke="#000000" stroke-width="2" d="M267.5,-498C267.5,-498 475.5,-498 475.5,-498 481.5,-498 487.5,-504 487.5,-510 487.5,-510 487.5,-628 487.5,-628 487.5,-634 481.5,-640 475.5,-640 475.5,-640 267.5,-640 267.5,-640 261.5,-640 255.5,-634 255.5,-628 255.5,-628 255.5,-510 255.5,-510 255.5,-504 261.5,-498 267.5,-498"/>
<text text-anchor="middle" x="371.5" y="-628.8" font-family="Helvetica,sans-Serif" font-weight="bold" font-size="9.00" fill="#000000">model</text>
</g>
<g id="clust3" class="cluster">
<title>cluster_routes</title>
<path fill="#ffffff" stroke="#000000" stroke-width="2" d="M74,-198C74,-198 235.5,-198 235.5,-198 241.5,-198 247.5,-204 247.5,-210 247.5,-210 247.5,-268 247.5,-268 247.5,-274 241.5,-280 235.5,-280 235.5,-280 74,-280 74,-280 68,-280 62,-274 62,-268 62,-268 62,-210 62,-210 62,-204 68,-198 74,-198"/>
<text text-anchor="middle" x="154.75" y="-268.8" font-family="Helvetica,sans-Serif" font-weight="bold" font-size="9.00" fill="#000000">routes</text>
</g>
<g id="clust4" class="cluster">
<title>cluster_shared</title>
<path fill="#ffffff" stroke="#000000" stroke-width="2" d="M283,-140C283,-140 358,-140 358,-140 364,-140 370,-146 370,-152 370,-152 370,-210 370,-210 370,-216 364,-222 358,-222 358,-222 283,-222 283,-222 277,-222 271,-216 271,-210 271,-210 271,-152 271,-152 271,-146 277,-140 283,-140"/>
<text text-anchor="middle" x="320.5" y="-210.8" font-family="Helvetica,sans-Serif" font-weight="bold" font-size="9.00" fill="#000000">shared</text>
</g>
<g id="clust5" class="cluster">
<title>cluster_util</title>
<path fill="#ffffff" stroke="#000000" stroke-width="2" d="M144,-8C144,-8 348.5,-8 348.5,-8 354.5,-8 360.5,-14 360.5,-20 360.5,-20 360.5,-108 360.5,-108 360.5,-114 354.5,-120 348.5,-120 348.5,-120 144,-120 144,-120 138,-120 132,-114 132,-108 132,-108 132,-20 132,-20 132,-14 138,-8 144,-8"/>
<text text-anchor="middle" x="246.25" y="-108.8" font-family="Helvetica,sans-Serif" font-weight="bold" font-size="9.00" fill="#000000">util</text>
</g>
<!-- controller/exportQueries.js -->
<g id="node1" class="node">
<title>controller/exportQueries.js</title>
<g id="a_node1"><a xlink:href="controller/exportQueries.js" xlink:title="exportQueries.js">
<path fill="#ffffcc" stroke="#000000" d="M227.5,-344C227.5,-344 156.5,-344 156.5,-344 153.5,-344 150.5,-341 150.5,-338 150.5,-338 150.5,-332 150.5,-332 150.5,-329 153.5,-326 156.5,-326 156.5,-326 227.5,-326 227.5,-326 230.5,-326 233.5,-329 233.5,-332 233.5,-332 233.5,-338 233.5,-338 233.5,-341 230.5,-344 227.5,-344"/>
<text text-anchor="middle" x="192" y="-332.8" font-family="Helvetica,sans-Serif" font-size="9.00" fill="#000000">exportQueries.js</text>
</a>
</g>
</g>
<!-- controller/filterOptions.js -->
<g id="node2" class="node">
<title>controller/filterOptions.js</title>
<g id="a_node2"><a xlink:href="controller/filterOptions.js" xlink:title="filterOptions.js">
<path fill="#ffffcc" stroke="#000000" d="M223,-314C223,-314 161,-314 161,-314 158,-314 155,-311 155,-308 155,-308 155,-302 155,-302 155,-299 158,-296 161,-296 161,-296 223,-296 223,-296 226,-296 229,-299 229,-302 229,-302 229,-308 229,-308 229,-311 226,-314 223,-314"/>
<text text-anchor="middle" x="192" y="-302.8" font-family="Helvetica,sans-Serif" font-size="9.00" fill="#000000">filterOptions.js</text>
</a>
</g>
</g>
<!-- controller/filterSpecification.js -->
<g id="node3" class="node">
<title>controller/filterSpecification.js</title>
<g id="a_node3"><a xlink:href="controller/filterSpecification.js" xlink:title="filterSpecification.js">
<path fill="#ffffcc" stroke="#000000" d="M362,-374C362,-374 279,-374 279,-374 276,-374 273,-371 273,-368 273,-368 273,-362 273,-362 273,-359 276,-356 279,-356 279,-356 362,-356 362,-356 365,-356 368,-359 368,-362 368,-362 368,-368 368,-368 368,-371 365,-374 362,-374"/>
<text text-anchor="middle" x="320.5" y="-362.8" font-family="Helvetica,sans-Serif" font-size="9.00" fill="#000000">filterSpecification.js</text>
</a>
</g>
</g>
<!-- controller/filterOptions.js&#45;&gt;controller/filterSpecification.js -->
<g id="edge1" class="edge">
<title>controller/filterOptions.js&#45;&gt;controller/filterSpecification.js</title>
<path fill="none" stroke="#000000" stroke-width="2" stroke-opacity="0.200000" d="M229.2297,-313.4657C235.4365,-315.328 241.7285,-317.5039 247.5,-320 267.7027,-328.7373 288.9179,-342.3913 303.238,-352.369"/>
<polygon fill="#000000" fill-opacity="0.200000" stroke="#000000" stroke-width="2" stroke-opacity="0.200000" points="302.0744,-354.1181 308.1873,-355.8627 304.4966,-350.6869 302.0744,-354.1181"/>
</g>
<!-- controller/formatResponse.js -->
<g id="node4" class="node">
<title>controller/formatResponse.js</title>
<g id="a_node4"><a xlink:href="controller/formatResponse.js" xlink:title="formatResponse.js">
<path fill="#ffffcc" stroke="#000000" d="M232.5,-374C232.5,-374 151.5,-374 151.5,-374 148.5,-374 145.5,-371 145.5,-368 145.5,-368 145.5,-362 145.5,-362 145.5,-359 148.5,-356 151.5,-356 151.5,-356 232.5,-356 232.5,-356 235.5,-356 238.5,-359 238.5,-362 238.5,-362 238.5,-368 238.5,-368 238.5,-371 235.5,-374 232.5,-374"/>
<text text-anchor="middle" x="192" y="-362.8" font-family="Helvetica,sans-Serif" font-size="9.00" fill="#000000">formatResponse.js</text>
</a>
</g>
</g>
<!-- shared/visualizations.js -->
<g id="node5" class="node">
<title>shared/visualizations.js</title>
<g id="a_node5"><a xlink:href="shared/visualizations.js" xlink:title="visualizations.js">
<path fill="#ffffcc" stroke="#000000" d="M355,-196C355,-196 286,-196 286,-196 283,-196 280,-193 280,-190 280,-190 280,-184 280,-184 280,-181 283,-178 286,-178 286,-178 355,-178 355,-178 358,-178 361,-181 361,-184 361,-184 361,-190 361,-190 361,-193 358,-196 355,-196"/>
<text text-anchor="middle" x="320.5" y="-184.8" font-family="Helvetica,sans-Serif" font-size="9.00" fill="#000000">visualizations.js</text>
</a>
</g>
</g>
<!-- controller/formatResponse.js&#45;&gt;shared/visualizations.js -->
<g id="edge2" class="edge">
<title>controller/formatResponse.js&#45;&gt;shared/visualizations.js</title>
<path fill="none" stroke="#000000" stroke-width="2" stroke-opacity="0.200000" d="M238.5293,-357.2761C241.8871,-355.3327 244.949,-352.9402 247.5,-350 257.0376,-339.0074 250.4543,-298.6508 255.5,-285 267.7283,-251.9172 293.0536,-218.8558 308.2305,-200.853"/>
<polygon fill="#000000" fill-opacity="0.200000" stroke="#000000" stroke-width="2" stroke-opacity="0.200000" points="309.9176,-202.1113 312.2227,-196.187 306.7263,-199.3808 309.9176,-202.1113"/>
</g>
<!-- controller/indicatorQueries.js -->
<g id="node6" class="node">
<title>controller/indicatorQueries.js</title>
<g id="a_node6"><a xlink:href="controller/indicatorQueries.js" xlink:title="indicatorQueries.js">
<path fill="#ffffcc" stroke="#000000" d="M232.5,-404C232.5,-404 151.5,-404 151.5,-404 148.5,-404 145.5,-401 145.5,-398 145.5,-398 145.5,-392 145.5,-392 145.5,-389 148.5,-386 151.5,-386 151.5,-386 232.5,-386 232.5,-386 235.5,-386 238.5,-389 238.5,-392 238.5,-392 238.5,-398 238.5,-398 238.5,-401 235.5,-404 232.5,-404"/>
<text text-anchor="middle" x="192" y="-392.8" font-family="Helvetica,sans-Serif" font-size="9.00" fill="#000000">indicatorQueries.js</text>
</a>
</g>
</g>
<!-- controller/legendQuery.js -->
<g id="node7" class="node">
<title>controller/legendQuery.js</title>
<g id="a_node7"><a xlink:href="controller/legendQuery.js" xlink:title="legendQuery.js">
<path fill="#ffffcc" stroke="#000000" d="M225.5,-464C225.5,-464 158.5,-464 158.5,-464 155.5,-464 152.5,-461 152.5,-458 152.5,-458 152.5,-452 152.5,-452 152.5,-449 155.5,-446 158.5,-446 158.5,-446 225.5,-446 225.5,-446 228.5,-446 231.5,-449 231.5,-452 231.5,-452 231.5,-458 231.5,-458 231.5,-461 228.5,-464 225.5,-464"/>
<text text-anchor="middle" x="192" y="-452.8" font-family="Helvetica,sans-Serif" font-size="9.00" fill="#000000">legendQuery.js</text>
</a>
</g>
</g>
<!-- model/tableName.js -->
<g id="node8" class="node">
<title>model/tableName.js</title>
<g id="a_node8"><a xlink:href="model/tableName.js" xlink:title="tableName.js">
<path fill="#ffffcc" stroke="#000000" d="M350,-524C350,-524 291,-524 291,-524 288,-524 285,-521 285,-518 285,-518 285,-512 285,-512 285,-509 288,-506 291,-506 291,-506 350,-506 350,-506 353,-506 356,-509 356,-512 356,-512 356,-518 356,-518 356,-521 353,-524 350,-524"/>
<text text-anchor="middle" x="320.5" y="-512.8" font-family="Helvetica,sans-Serif" font-size="9.00" fill="#000000">tableName.js</text>
</a>
</g>
</g>
<!-- controller/legendQuery.js&#45;&gt;model/tableName.js -->
<g id="edge3" class="edge">
<title>controller/legendQuery.js&#45;&gt;model/tableName.js</title>
<path fill="none" stroke="#000000" stroke-width="2" stroke-opacity="0.200000" d="M205.1696,-464.017C217.7059,-472.3219 237.3059,-484.5939 255.5,-493 264.3666,-497.0966 274.2206,-500.8257 283.5202,-504.0025"/>
<polygon fill="#000000" fill-opacity="0.200000" stroke="#000000" stroke-width="2" stroke-opacity="0.200000" points="282.8688,-505.9989 289.2251,-505.9074 284.1991,-502.0151 282.8688,-505.9989"/>
</g>
<!-- controller/queryTemplate.js -->
<g id="node9" class="node">
<title>controller/queryTemplate.js</title>
<g id="a_node9"><a xlink:href="controller/queryTemplate.js" xlink:title="queryTemplate.js">
<path fill="#ffffcc" stroke="#000000" d="M229.5,-434C229.5,-434 154.5,-434 154.5,-434 151.5,-434 148.5,-431 148.5,-428 148.5,-428 148.5,-422 148.5,-422 148.5,-419 151.5,-416 154.5,-416 154.5,-416 229.5,-416 229.5,-416 232.5,-416 235.5,-419 235.5,-422 235.5,-422 235.5,-428 235.5,-428 235.5,-431 232.5,-434 229.5,-434"/>
<text text-anchor="middle" x="192" y="-422.8" font-family="Helvetica,sans-Serif" font-size="9.00" fill="#000000">queryTemplate.js</text>
</a>
</g>
</g>
<!-- controller/queryTemplate.js&#45;&gt;controller/filterSpecification.js -->
<g id="edge5" class="edge">
<title>controller/queryTemplate.js&#45;&gt;controller/filterSpecification.js</title>
<path fill="none" stroke="#000000" stroke-width="2" stroke-opacity="0.200000" d="M231.0048,-415.9937C236.6302,-414.2547 242.2782,-412.2583 247.5,-410 267.7027,-401.2627 288.9179,-387.6087 303.238,-377.631"/>
<polygon fill="#000000" fill-opacity="0.200000" stroke="#000000" stroke-width="2" stroke-opacity="0.200000" points="304.4966,-379.3131 308.1873,-374.1373 302.0744,-375.8819 304.4966,-379.3131"/>
</g>
<!-- controller/queryTemplate.js&#45;&gt;model/tableName.js -->
<g id="edge4" class="edge">
<title>controller/queryTemplate.js&#45;&gt;model/tableName.js</title>
<path fill="none" stroke="#000000" stroke-width="2" stroke-opacity="0.200000" d="M235.5227,-431.272C240.0368,-433.4338 244.1782,-436.2756 247.5,-440 263.3566,-457.7785 240.2056,-474.7356 255.5,-493 261.5234,-500.193 269.9918,-505.0425 278.831,-508.3096"/>
<polygon fill="#000000" fill-opacity="0.200000" stroke="#000000" stroke-width="2" stroke-opacity="0.200000" points="278.3153,-510.3507 284.6712,-510.2367 279.6315,-506.3623 278.3153,-510.3507"/>
</g>
<!-- fs -->
<g id="node10" class="node">
<title>fs</title>
<path fill="#ffffcc" stroke="#c0c0c0" d="M118,-624C118,-624 76,-624 76,-624 73,-624 70,-621 70,-618 70,-618 70,-612 70,-612 70,-609 73,-606 76,-606 76,-606 118,-606 118,-606 121,-606 124,-609 124,-612 124,-612 124,-618 124,-618 124,-621 121,-624 118,-624"/>
<text text-anchor="middle" x="97" y="-612.8" font-family="Helvetica,sans-Serif" font-size="9.00" fill="#c0c0c0">fs</text>
</g>
<!-- model/db.js -->
<g id="node11" class="node">
<title>model/db.js</title>
<g id="a_node11"><a xlink:href="model/db.js" xlink:title="db.js">
<path fill="#ffffcc" stroke="#000000" d="M341.5,-614C341.5,-614 299.5,-614 299.5,-614 296.5,-614 293.5,-611 293.5,-608 293.5,-608 293.5,-602 293.5,-602 293.5,-599 296.5,-596 299.5,-596 299.5,-596 341.5,-596 341.5,-596 344.5,-596 347.5,-599 347.5,-602 347.5,-602 347.5,-608 347.5,-608 347.5,-611 344.5,-614 341.5,-614"/>
<text text-anchor="middle" x="320.5" y="-602.8" font-family="Helvetica,sans-Serif" font-size="9.00" fill="#000000">db.js</text>
</a>
</g>
</g>
<!-- model/dbTransactions.js -->
<g id="node12" class="node">
<title>model/dbTransactions.js</title>
<g id="a_node12"><a xlink:href="model/dbTransactions.js" xlink:title="dbTransactions.js">
<path fill="#ffffcc" stroke="#000000" d="M473.5,-614C473.5,-614 396.5,-614 396.5,-614 393.5,-614 390.5,-611 390.5,-608 390.5,-608 390.5,-602 390.5,-602 390.5,-599 393.5,-596 396.5,-596 396.5,-596 473.5,-596 473.5,-596 476.5,-596 479.5,-599 479.5,-602 479.5,-602 479.5,-608 479.5,-608 479.5,-611 476.5,-614 473.5,-614"/>
<text text-anchor="middle" x="435" y="-602.8" font-family="Helvetica,sans-Serif" font-size="9.00" fill="#000000">dbTransactions.js</text>
</a>
</g>
</g>
<!-- model/db.js&#45;&gt;model/dbTransactions.js -->
<g id="edge6" class="edge">
<title>model/db.js&#45;&gt;model/dbTransactions.js</title>
<path fill="none" stroke="#000000" stroke-width="2" stroke-opacity="0.200000" d="M347.6349,-605C358.5466,-605 371.4986,-605 384.0428,-605"/>
<polygon fill="#000000" fill-opacity="0.200000" stroke="#000000" stroke-width="2" stroke-opacity="0.200000" points="384.1573,-607.1001 390.1573,-605 384.1573,-602.9001 384.1573,-607.1001"/>
</g>
<!-- model/facilityClasses.json -->
<g id="node13" class="node">
<title>model/facilityClasses.json</title>
<g id="a_node13"><a xlink:href="model/facilityClasses.json" xlink:title="facilityClasses.json">
<path fill="#ffee44" stroke="#000000" d="M362,-584C362,-584 279,-584 279,-584 276,-584 273,-581 273,-578 273,-578 273,-572 273,-572 273,-569 276,-566 279,-566 279,-566 362,-566 362,-566 365,-566 368,-569 368,-572 368,-572 368,-578 368,-578 368,-581 365,-584 362,-584"/>
<text text-anchor="middle" x="320.5" y="-572.8" font-family="Helvetica,sans-Serif" font-size="9.00" fill="#000000">facilityClasses.json</text>
</a>
</g>
</g>
<!-- model/refrigeratorClasses.json -->
<g id="node14" class="node">
<title>model/refrigeratorClasses.json</title>
<g id="a_node14"><a xlink:href="model/refrigeratorClasses.json" xlink:title="refrigeratorClasses.json">
<path fill="#ffee44" stroke="#000000" d="M371.5,-554C371.5,-554 269.5,-554 269.5,-554 266.5,-554 263.5,-551 263.5,-548 263.5,-548 263.5,-542 263.5,-542 263.5,-539 266.5,-536 269.5,-536 269.5,-536 371.5,-536 371.5,-536 374.5,-536 377.5,-539 377.5,-542 377.5,-542 377.5,-548 377.5,-548 377.5,-551 374.5,-554 371.5,-554"/>
<text text-anchor="middle" x="320.5" y="-542.8" font-family="Helvetica,sans-Serif" font-size="9.00" fill="#000000">refrigeratorClasses.json</text>
</a>
</g>
</g>
<!-- path -->
<g id="node15" class="node">
<title>path</title>
<path fill="#ffffcc" stroke="#c0c0c0" d="M118,-594C118,-594 76,-594 76,-594 73,-594 70,-591 70,-588 70,-588 70,-582 70,-582 70,-579 73,-576 76,-576 76,-576 118,-576 118,-576 121,-576 124,-579 124,-582 124,-582 124,-588 124,-588 124,-591 121,-594 118,-594"/>
<text text-anchor="middle" x="97" y="-582.8" font-family="Helvetica,sans-Serif" font-size="9.00" fill="#c0c0c0">path</text>
</g>
<!-- routes/api.js -->
<g id="node16" class="node">
<title>routes/api.js</title>
<g id="a_node16"><a xlink:href="routes/api.js" xlink:title="api.js">
<path fill="#ffffcc" stroke="#000000" d="M118,-254C118,-254 76,-254 76,-254 73,-254 70,-251 70,-248 70,-248 70,-242 70,-242 70,-239 73,-236 76,-236 76,-236 118,-236 118,-236 121,-236 124,-239 124,-242 124,-242 124,-248 124,-248 124,-251 121,-254 118,-254"/>
<text text-anchor="middle" x="97" y="-242.8" font-family="Helvetica,sans-Serif" font-size="9.00" fill="#000000">api.js</text>
</a>
</g>
</g>
<!-- routes/api.js&#45;&gt;controller/exportQueries.js -->
<g id="edge7" class="edge">
<title>routes/api.js&#45;&gt;controller/exportQueries.js</title>
<path fill="none" stroke="#000000" stroke-width="2" stroke-opacity="0.200000" d="M98.6318,-254.1723C101.9557,-270.0768 111.0478,-302.7224 132,-320 135.7278,-323.074 139.999,-325.5308 144.5073,-327.4924"/>
<polygon fill="#000000" fill-opacity="0.200000" stroke="#000000" stroke-width="2" stroke-opacity="0.200000" points="143.9675,-329.5344 150.3217,-329.7214 145.471,-325.6127 143.9675,-329.5344"/>
</g>
<!-- routes/api.js&#45;&gt;controller/formatResponse.js -->
<g id="edge8" class="edge">
<title>routes/api.js&#45;&gt;controller/formatResponse.js</title>
<path fill="none" stroke="#000000" stroke-width="2" stroke-opacity="0.200000" d="M98.8932,-254.248C103.7984,-277.3367 117.5489,-336.6178 132,-350 134.2921,-352.1225 136.8381,-353.9563 139.5507,-355.5396"/>
<polygon fill="#000000" fill-opacity="0.200000" stroke="#000000" stroke-width="2" stroke-opacity="0.200000" points="139.0218,-357.6247 145.3249,-358.45 140.9122,-353.8742 139.0218,-357.6247"/>
</g>
<!-- routes/api.js&#45;&gt;shared/visualizations.js -->
<g id="edge12" class="edge">
<title>routes/api.js&#45;&gt;shared/visualizations.js</title>
<path fill="none" stroke="#000000" stroke-width="2" stroke-opacity="0.200000" d="M117.5774,-235.9863C119.9891,-234.2714 122.2197,-232.2837 124,-230 132.484,-219.1169 121.3532,-208.7787 132,-200 152.8734,-182.7891 225.1034,-182.3599 273.8447,-184.2319"/>
<polygon fill="#000000" fill-opacity="0.200000" stroke="#000000" stroke-width="2" stroke-opacity="0.200000" points="273.8826,-186.3352 279.9639,-184.4836 274.0553,-182.1387 273.8826,-186.3352"/>
</g>
<!-- routes/api.js&#45;&gt;controller/indicatorQueries.js -->
<g id="edge9" class="edge">
<title>routes/api.js&#45;&gt;controller/indicatorQueries.js</title>
<path fill="none" stroke="#000000" stroke-width="2" stroke-opacity="0.200000" d="M98.1826,-254.3806C101.8456,-281.9672 113.8593,-362.0163 132,-380 134.3829,-382.3623 137.0781,-384.3714 139.9739,-386.0782"/>
<polygon fill="#000000" fill-opacity="0.200000" stroke="#000000" stroke-width="2" stroke-opacity="0.200000" points="139.0797,-387.9795 145.3787,-388.8353 140.9882,-384.2382 139.0797,-387.9795"/>
</g>
<!-- routes/api.js&#45;&gt;controller/legendQuery.js -->
<g id="edge10" class="edge">
<title>routes/api.js&#45;&gt;controller/legendQuery.js</title>
<path fill="none" stroke="#000000" stroke-width="2" stroke-opacity="0.200000" d="M97.3703,-254.3185C98.9516,-289.3407 106.2806,-412.4865 132,-440 135.9847,-444.2626 140.9814,-447.3915 146.3809,-449.6758"/>
<polygon fill="#000000" fill-opacity="0.200000" stroke="#000000" stroke-width="2" stroke-opacity="0.200000" points="146.0126,-451.7754 152.3692,-451.8367 147.4383,-447.8247 146.0126,-451.7754"/>
</g>
<!-- routes/api.js&#45;&gt;controller/queryTemplate.js -->
<g id="edge11" class="edge">
<title>routes/api.js&#45;&gt;controller/queryTemplate.js</title>
<path fill="none" stroke="#000000" stroke-width="2" stroke-opacity="0.200000" d="M97.6883,-254.159C100.2214,-285.4213 110.0428,-387.2387 132,-410 135.0751,-413.1877 138.7169,-415.7375 142.6632,-417.7723"/>
<polygon fill="#000000" fill-opacity="0.200000" stroke="#000000" stroke-width="2" stroke-opacity="0.200000" points="141.8728,-419.7191 148.2084,-420.2393 143.58,-415.8817 141.8728,-419.7191"/>
</g>
<!-- util/auth.js -->
<g id="node17" class="node">
<title>util/auth.js</title>
<g id="a_node17"><a xlink:href="util/auth.js" xlink:title="auth.js">
<path fill="#ffffcc" stroke="#000000" d="M213,-94C213,-94 171,-94 171,-94 168,-94 165,-91 165,-88 165,-88 165,-82 165,-82 165,-79 168,-76 171,-76 171,-76 213,-76 213,-76 216,-76 219,-79 219,-82 219,-82 219,-88 219,-88 219,-91 216,-94 213,-94"/>
<text text-anchor="middle" x="192" y="-82.8" font-family="Helvetica,sans-Serif" font-size="9.00" fill="#000000">auth.js</text>
</a>
</g>
</g>
<!-- routes/api.js&#45;&gt;util/auth.js -->
<g id="edge13" class="edge">
<title>routes/api.js&#45;&gt;util/auth.js</title>
<path fill="none" stroke="#000000" stroke-width="2" stroke-opacity="0.200000" d="M118.0816,-235.9691C120.352,-234.2697 122.41,-232.2907 124,-230 137.5836,-210.4298 123.5221,-199.2628 132,-177 143.5005,-146.8 166.0683,-116.2671 180.0107,-99.0766"/>
<polygon fill="#000000" fill-opacity="0.200000" stroke="#000000" stroke-width="2" stroke-opacity="0.200000" points="181.8458,-100.1517 184.0389,-94.1851 178.6036,-97.4817 181.8458,-100.1517"/>
</g>
<!-- routes/schemas.js -->
<g id="node18" class="node">
<title>routes/schemas.js</title>
<g id="a_node18"><a xlink:href="routes/schemas.js" xlink:title="schemas.js">
<path fill="#ffffcc" stroke="#000000" d="M217,-224C217,-224 167,-224 167,-224 164,-224 161,-221 161,-218 161,-218 161,-212 161,-212 161,-209 164,-206 167,-206 167,-206 217,-206 217,-206 220,-206 223,-209 223,-212 223,-212 223,-218 223,-218 223,-221 220,-224 217,-224"/>
<text text-anchor="middle" x="192" y="-212.8" font-family="Helvetica,sans-Serif" font-size="9.00" fill="#000000">schemas.js</text>
</a>
</g>
</g>
<!-- routes/api.js&#45;&gt;routes/schemas.js -->
<g id="edge14" class="edge">
<title>routes/api.js&#45;&gt;routes/schemas.js</title>
<path fill="none" stroke="#000000" stroke-width="2" stroke-opacity="0.200000" d="M116.7755,-235.8731C121.6906,-233.7864 126.988,-231.6884 132,-230 139.2341,-227.563 147.0776,-225.3227 154.6341,-223.3579"/>
<polygon fill="#000000" fill-opacity="0.200000" stroke="#000000" stroke-width="2" stroke-opacity="0.200000" points="155.5928,-225.2815 160.8944,-221.7739 154.5625,-221.2099 155.5928,-225.2815"/>
</g>
<!-- routes/schemaValidator.js -->
<g id="node19" class="node">
<title>routes/schemaValidator.js</title>
<g id="a_node19"><a xlink:href="routes/schemaValidator.js" xlink:title="schemaValidator.js">
<path fill="#ffffcc" stroke="#000000" d="M233.5,-254C233.5,-254 150.5,-254 150.5,-254 147.5,-254 144.5,-251 144.5,-248 144.5,-248 144.5,-242 144.5,-242 144.5,-239 147.5,-236 150.5,-236 150.5,-236 233.5,-236 233.5,-236 236.5,-236 239.5,-239 239.5,-242 239.5,-242 239.5,-248 239.5,-248 239.5,-251 236.5,-254 233.5,-254"/>
<text text-anchor="middle" x="192" y="-242.8" font-family="Helvetica,sans-Serif" font-size="9.00" fill="#000000">schemaValidator.js</text>
</a>
</g>
</g>
<!-- routes/api.js&#45;&gt;routes/schemaValidator.js -->
<g id="edge15" class="edge">
<title>routes/api.js&#45;&gt;routes/schemaValidator.js</title>
<path fill="none" stroke="#000000" stroke-width="2" stroke-opacity="0.200000" d="M124.2232,-245C128.6952,-245 133.4623,-245 138.3171,-245"/>
<polygon fill="#000000" fill-opacity="0.200000" stroke="#000000" stroke-width="2" stroke-opacity="0.200000" points="138.4979,-247.1001 144.4978,-245 138.4978,-242.9001 138.4979,-247.1001"/>
</g>
<!-- shared/exportOptions.js -->
<g id="node21" class="node">
<title>shared/exportOptions.js</title>
<g id="a_node21"><a xlink:href="shared/exportOptions.js" xlink:title="exportOptions.js">
<path fill="#ffffcc" stroke="#000000" d="M356,-166C356,-166 285,-166 285,-166 282,-166 279,-163 279,-160 279,-160 279,-154 279,-154 279,-151 282,-148 285,-148 285,-148 356,-148 356,-148 359,-148 362,-151 362,-154 362,-154 362,-160 362,-160 362,-163 359,-166 356,-166"/>
<text text-anchor="middle" x="320.5" y="-154.8" font-family="Helvetica,sans-Serif" font-size="9.00" fill="#000000">exportOptions.js</text>
</a>
</g>
</g>
<!-- routes/schemas.js&#45;&gt;shared/exportOptions.js -->
<g id="edge23" class="edge">
<title>routes/schemas.js&#45;&gt;shared/exportOptions.js</title>
<path fill="none" stroke="#000000" stroke-width="2" stroke-opacity="0.200000" d="M202.9532,-205.7113C215.0526,-195.9176 235.4834,-180.7241 255.5,-172 260.9942,-169.6054 266.9232,-167.566 272.8868,-165.836"/>
<polygon fill="#000000" fill-opacity="0.200000" stroke="#000000" stroke-width="2" stroke-opacity="0.200000" points="273.6128,-167.8147 278.8471,-164.2074 272.5057,-163.7632 273.6128,-167.8147"/>
</g>
<!-- routes/index.js -->
<g id="node20" class="node">
<title>routes/index.js</title>
<g id="a_node20"><a xlink:href="routes/index.js" xlink:title="index.js">
<path fill="#ffffcc" stroke="#000000" d="M118,-224C118,-224 76,-224 76,-224 73,-224 70,-221 70,-218 70,-218 70,-212 70,-212 70,-209 73,-206 76,-206 76,-206 118,-206 118,-206 121,-206 124,-209 124,-212 124,-212 124,-218 124,-218 124,-221 121,-224 118,-224"/>
<text text-anchor="middle" x="97" y="-212.8" font-family="Helvetica,sans-Serif" font-size="9.00" fill="#000000">index.js</text>
</a>
</g>
</g>
<!-- routes/index.js&#45;&gt;controller/filterOptions.js -->
<g id="edge16" class="edge">
<title>routes/index.js&#45;&gt;controller/filterOptions.js</title>
<path fill="none" stroke="#000000" stroke-width="2" stroke-opacity="0.200000" d="M118.0816,-224.0309C120.352,-225.7303 122.41,-227.7093 124,-230 137.5836,-249.5702 116.9359,-264.5452 132,-283 136.5493,-288.5733 142.6435,-292.7347 149.2081,-295.8419"/>
<polygon fill="#000000" fill-opacity="0.200000" stroke="#000000" stroke-width="2" stroke-opacity="0.200000" points="148.4653,-297.8078 154.8094,-298.2118 150.1019,-293.9398 148.4653,-297.8078"/>
</g>
<!-- routes/index.js&#45;&gt;shared/visualizations.js -->
<g id="edge20" class="edge">
<title>routes/index.js&#45;&gt;shared/visualizations.js</title>
<path fill="none" stroke="#000000" stroke-width="2" stroke-opacity="0.200000" d="M102.3089,-205.7524C108.2119,-196.5022 118.693,-182.8349 132,-177 156.4649,-166.2726 226.2156,-173.2636 273.6522,-179.7564"/>
<polygon fill="#000000" fill-opacity="0.200000" stroke="#000000" stroke-width="2" stroke-opacity="0.200000" points="273.3788,-181.8386 279.611,-180.5854 273.9576,-177.6786 273.3788,-181.8386"/>
</g>
<!-- routes/index.js&#45;&gt;model/facilityClasses.json -->
<g id="edge17" class="edge">
<title>routes/index.js&#45;&gt;model/facilityClasses.json</title>
<path fill="none" stroke="#000000" stroke-width="2" stroke-opacity="0.200000" d="M118.6089,-224.0552C120.7302,-225.7397 122.6082,-227.7084 124,-230 140.5595,-257.2667 112.1331,-492.0401 132,-517 165.0293,-558.4964 204.8531,-515.4702 247.5,-547 252.9551,-551.0331 249.9903,-556.0418 255.5,-560 259.0565,-562.555 262.9805,-564.6825 267.0859,-566.4531"/>
<polygon fill="#000000" fill-opacity="0.200000" stroke="#000000" stroke-width="2" stroke-opacity="0.200000" points="266.4253,-568.4491 272.7789,-568.6528 267.939,-564.5313 266.4253,-568.4491"/>
</g>
<!-- routes/index.js&#45;&gt;model/refrigeratorClasses.json -->
<g id="edge18" class="edge">
<title>routes/index.js&#45;&gt;model/refrigeratorClasses.json</title>
<path fill="none" stroke="#000000" stroke-width="2" stroke-opacity="0.200000" d="M118.6032,-224.0587C120.7255,-225.7425 122.6053,-227.7101 124,-230 139.2076,-254.9691 113.5785,-470.2981 132,-493 165.2821,-534.0155 202.2227,-493.7982 247.5,-521 252.0876,-523.7561 250.8973,-527.2692 255.5,-530 257.685,-531.2964 259.9729,-532.4807 262.3299,-533.5627"/>
<polygon fill="#000000" fill-opacity="0.200000" stroke="#000000" stroke-width="2" stroke-opacity="0.200000" points="261.5935,-535.5309 267.9393,-535.9061 263.2125,-531.6555 261.5935,-535.5309"/>
</g>
<!-- routes/index.js&#45;&gt;util/auth.js -->
<g id="edge21" class="edge">
<title>routes/index.js&#45;&gt;util/auth.js</title>
<path fill="none" stroke="#000000" stroke-width="2" stroke-opacity="0.200000" d="M98.6337,-205.9137C102.1323,-188.5684 111.7341,-150.2235 132,-125 141.3838,-113.3207 155.1059,-103.8197 167.0597,-97.0127"/>
<polygon fill="#000000" fill-opacity="0.200000" stroke="#000000" stroke-width="2" stroke-opacity="0.200000" points="168.1576,-98.8057 172.4056,-94.0766 166.1357,-95.1244 168.1576,-98.8057"/>
</g>
<!-- routes/index.js&#45;&gt;shared/exportOptions.js -->
<g id="edge19" class="edge">
<title>routes/index.js&#45;&gt;shared/exportOptions.js</title>
<path fill="none" stroke="#000000" stroke-width="2" stroke-opacity="0.200000" d="M100.857,-205.8223C106.0926,-194.6665 116.5975,-176.3047 132,-168 175.2748,-144.6671 232.541,-144.8978 272.5524,-149.091"/>
<polygon fill="#000000" fill-opacity="0.200000" stroke="#000000" stroke-width="2" stroke-opacity="0.200000" points="272.6241,-151.2122 278.821,-149.795 273.0929,-147.0384 272.6241,-151.2122"/>
</g>
<!-- util/mergeFilterOptions.js -->
<g id="node22" class="node">
<title>util/mergeFilterOptions.js</title>
<g id="a_node22"><a xlink:href="util/mergeFilterOptions.js" xlink:title="mergeFilterOptions.js">
<path fill="#ffffcc" stroke="#000000" d="M238,-64C238,-64 146,-64 146,-64 143,-64 140,-61 140,-58 140,-58 140,-52 140,-52 140,-49 143,-46 146,-46 146,-46 238,-46 238,-46 241,-46 244,-49 244,-52 244,-52 244,-58 244,-58 244,-61 241,-64 238,-64"/>
<text text-anchor="middle" x="192" y="-52.8" font-family="Helvetica,sans-Serif" font-size="9.00" fill="#000000">mergeFilterOptions.js</text>
</a>
</g>
</g>
<!-- routes/index.js&#45;&gt;util/mergeFilterOptions.js -->
<g id="edge22" class="edge">
<title>routes/index.js&#45;&gt;util/mergeFilterOptions.js</title>
<path fill="none" stroke="#000000" stroke-width="2" stroke-opacity="0.200000" d="M99.7085,-205.8707C104.8823,-188.2298 116.337,-148.182 124,-114 128.348,-94.6052 118.4105,-84.5047 132,-70 132.8809,-69.0597 133.8111,-68.1747 134.784,-67.3417"/>
<polygon fill="#000000" fill-opacity="0.200000" stroke="#000000" stroke-width="2" stroke-opacity="0.200000" points="136.3374,-68.8104 139.9739,-63.5963 133.8796,-65.4046 136.3374,-68.8104"/>
</g>
<!-- server.js -->
<g id="node23" class="node">
<title>server.js</title>
<g id="a_node23"><a xlink:href="server.js" xlink:title="server.js">
<path fill="#ffffcc" stroke="#000000" d="M48,-410C48,-410 6,-410 6,-410 3,-410 0,-407 0,-404 0,-404 0,-398 0,-398 0,-395 3,-392 6,-392 6,-392 48,-392 48,-392 51,-392 54,-395 54,-398 54,-398 54,-404 54,-404 54,-407 51,-410 48,-410"/>
<text text-anchor="middle" x="27" y="-398.8" font-family="Helvetica,sans-Serif" font-size="9.00" fill="#000000">server.js</text>
</a>
</g>
</g>
<!-- server.js&#45;&gt;fs -->
<g id="edge28" class="edge">
<title>server.js&#45;&gt;fs</title>
<path fill="none" stroke="#000000" stroke-dasharray="5,2" stroke-opacity="0.200000" d="M27.4872,-410.3825C29.4911,-445.6635 38.147,-569.8924 62,-600 62.8005,-601.0104 63.6822,-601.954 64.628,-602.835"/>
<polygon fill="#000000" fill-opacity="0.200000" stroke="#000000" stroke-opacity="0.200000" points="63.7559,-604.8071 69.8124,-606.7384 66.2822,-601.4518 63.7559,-604.8071"/>
</g>
<!-- server.js&#45;&gt;model/db.js -->
<g id="edge24" class="edge">
<title>server.js&#45;&gt;model/db.js</title>
<path fill="none" stroke="#000000" stroke-width="2" stroke-opacity="0.200000" d="M31.5429,-410.3134C44.1051,-435.1606 81.7315,-503.7299 132,-542 178.7779,-577.6126 246.7895,-593.7277 287.0485,-600.5235"/>
<polygon fill="#000000" fill-opacity="0.200000" stroke="#000000" stroke-width="2" stroke-opacity="0.200000" points="287.0044,-602.6439 293.264,-601.5357 287.6796,-598.4985 287.0044,-602.6439"/>
</g>
<!-- server.js&#45;&gt;path -->
<g id="edge29" class="edge">
<title>server.js&#45;&gt;path</title>
<path fill="none" stroke="#000000" stroke-dasharray="5,2" stroke-opacity="0.200000" d="M27.8832,-410.0396C31.053,-440.9197 42.7041,-541.7117 62,-567 63.5388,-569.0167 65.3674,-570.827 67.3693,-572.4484"/>
<polygon fill="#000000" fill-opacity="0.200000" stroke="#000000" stroke-opacity="0.200000" points="66.1798,-574.1791 72.3003,-575.897 68.587,-570.7373 66.1798,-574.1791"/>
</g>
<!-- server.js&#45;&gt;routes/api.js -->
<g id="edge25" class="edge">
<title>server.js&#45;&gt;routes/api.js</title>
<path fill="none" stroke="#000000" stroke-width="2" stroke-opacity="0.200000" d="M31.1692,-391.7087C42.8688,-365.6352 76.0813,-291.6188 90.351,-259.8178"/>
<polygon fill="#000000" fill-opacity="0.200000" stroke="#000000" stroke-width="2" stroke-opacity="0.200000" points="92.3999,-260.3811 92.9403,-254.0472 88.568,-258.6616 92.3999,-260.3811"/>
</g>
<!-- server.js&#45;&gt;routes/index.js -->
<g id="edge26" class="edge">
<title>server.js&#45;&gt;routes/index.js</title>
<path fill="none" stroke="#000000" stroke-width="2" stroke-opacity="0.200000" d="M27.782,-391.6382C30.6212,-359.6646 41.3223,-255.3674 62,-230 62.8145,-229.0008 63.708,-228.0667 64.6637,-227.1938"/>
<polygon fill="#000000" fill-opacity="0.200000" stroke="#000000" stroke-width="2" stroke-opacity="0.200000" points="66.3177,-228.5814 69.8833,-223.3186 63.814,-225.2091 66.3177,-228.5814"/>
</g>
<!-- util/configPassport.js -->
<g id="node24" class="node">
<title>util/configPassport.js</title>
<g id="a_node24"><a xlink:href="util/configPassport.js" xlink:title="configPassport.js">
<path fill="#ffffcc" stroke="#000000" d="M229,-34C229,-34 155,-34 155,-34 152,-34 149,-31 149,-28 149,-28 149,-22 149,-22 149,-19 152,-16 155,-16 155,-16 229,-16 229,-16 232,-16 235,-19 235,-22 235,-22 235,-28 235,-28 235,-31 232,-34 229,-34"/>
<text text-anchor="middle" x="192" y="-22.8" font-family="Helvetica,sans-Serif" font-size="9.00" fill="#000000">configPassport.js</text>
</a>
</g>
</g>
<!-- server.js&#45;&gt;util/configPassport.js -->
<g id="edge27" class="edge">
<title>server.js&#45;&gt;util/configPassport.js</title>
<path fill="none" stroke="#000000" stroke-width="2" stroke-opacity="0.200000" d="M27.7214,-391.7717C30.1925,-362.4356 39.4429,-268.9029 62,-195 84.0665,-122.7044 73.9825,-88.4515 132,-40 135.3429,-37.2083 139.1328,-34.9247 143.1441,-33.0582"/>
<polygon fill="#000000" fill-opacity="0.200000" stroke="#000000" stroke-width="2" stroke-opacity="0.200000" points="143.9784,-34.9859 148.7301,-30.7631 142.3822,-31.101 143.9784,-34.9859"/>
</g>
<!-- util/odkxAuth.js -->
<g id="node25" class="node">
<title>util/odkxAuth.js</title>
<g id="a_node25"><a xlink:href="util/odkxAuth.js" xlink:title="odkxAuth.js">
<path fill="#ffffcc" stroke="#000000" d="M346.5,-34C346.5,-34 294.5,-34 294.5,-34 291.5,-34 288.5,-31 288.5,-28 288.5,-28 288.5,-22 288.5,-22 288.5,-19 291.5,-16 294.5,-16 294.5,-16 346.5,-16 346.5,-16 349.5,-16 352.5,-19 352.5,-22 352.5,-22 352.5,-28 352.5,-28 352.5,-31 349.5,-34 346.5,-34"/>
<text text-anchor="middle" x="320.5" y="-22.8" font-family="Helvetica,sans-Serif" font-size="9.00" fill="#000000">odkxAuth.js</text>
</a>
</g>
</g>
<!-- util/configPassport.js&#45;&gt;util/odkxAuth.js -->
<g id="edge30" class="edge">
<title>util/configPassport.js&#45;&gt;util/odkxAuth.js</title>
<path fill="none" stroke="#000000" stroke-width="2" stroke-opacity="0.200000" d="M235.1461,-25C250.3299,-25 267.2826,-25 282.0534,-25"/>
<polygon fill="#000000" fill-opacity="0.200000" stroke="#000000" stroke-width="2" stroke-opacity="0.200000" points="282.2386,-27.1001 288.2386,-25 282.2386,-22.9001 282.2386,-27.1001"/>
</g>
</g>
</svg>
