<?xml version="1.0" encoding="UTF-8" standalone="no"?>
<!DOCTYPE svg PUBLIC "-//W3C//DTD SVG 1.1//EN"
 "http://www.w3.org/Graphics/SVG/1.1/DTD/svg11.dtd">
<!-- Generated by graphviz version 2.40.1 (20161225.0304)
 -->
<!-- Title: dependency&#45;cruiser output Pages: 1 -->
<svg width="482pt" height="390pt"
 viewBox="0.00 0.00 482.00 390.00" xmlns="http://www.w3.org/2000/svg" xmlns:xlink="http://www.w3.org/1999/xlink">
<g id="graph0" class="graph" transform="scale(1 1) rotate(0) translate(4 386)">
<title>dependency&#45;cruiser output</title>
<polygon fill="#ffffff" stroke="transparent" points="-4,4 -4,-386 478,-386 478,4 -4,4"/>
<g id="clust1" class="cluster">
<title>cluster_frontend&#45;src</title>
<path fill="#ffffff" stroke="#000000" stroke-width="2" d="M20,-98C20,-98 454,-98 454,-98 460,-98 466,-104 466,-110 466,-110 466,-362 466,-362 466,-368 460,-374 454,-374 454,-374 20,-374 20,-374 14,-374 8,-368 8,-362 8,-362 8,-110 8,-110 8,-104 14,-98 20,-98"/>
<text text-anchor="middle" x="237" y="-362.8" font-family="Helvetica,sans-Serif" font-weight="bold" font-size="9.00" fill="#000000">frontend&#45;src</text>
</g>
<g id="clust2" class="cluster">
<title>cluster_frontend&#45;src/multiselect</title>
<path fill="#ffffff" stroke="#000000" stroke-width="2" d="M368,-165C368,-165 446,-165 446,-165 452,-165 458,-171 458,-177 458,-177 458,-235 458,-235 458,-241 452,-247 446,-247 446,-247 368,-247 368,-247 362,-247 356,-241 356,-235 356,-235 356,-177 356,-177 356,-171 362,-165 368,-165"/>
<text text-anchor="middle" x="407" y="-235.8" font-family="Helvetica,sans-Serif" font-weight="bold" font-size="9.00" fill="#000000">multiselect</text>
</g>
<g id="clust3" class="cluster">
<title>cluster_shared</title>
<path fill="#ffffff" stroke="#000000" stroke-width="2" d="M243,-8C243,-8 318,-8 318,-8 324,-8 330,-14 330,-20 330,-20 330,-78 330,-78 330,-84 324,-90 318,-90 318,-90 243,-90 243,-90 237,-90 231,-84 231,-78 231,-78 231,-20 231,-20 231,-14 237,-8 243,-8"/>
<text text-anchor="middle" x="280.5" y="-78.8" font-family="Helvetica,sans-Serif" font-weight="bold" font-size="9.00" fill="#000000">shared</text>
</g>
<!-- frontend&#45;src/RegionSelector.js -->
<g id="node1" class="node">
<title>frontend&#45;src/RegionSelector.js</title>
<g id="a_node1"><a xlink:href="frontend-src/RegionSelector.js" xlink:title="RegionSelector.js">
<path fill="#ffffcc" stroke="#000000" d="M180,-274C180,-274 103,-274 103,-274 100,-274 97,-271 97,-268 97,-268 97,-262 97,-262 97,-259 100,-256 103,-256 103,-256 180,-256 180,-256 183,-256 186,-259 186,-262 186,-262 186,-268 186,-268 186,-271 183,-274 180,-274"/>
<text text-anchor="middle" x="141.5" y="-262.8" font-family="Helvetica,sans-Serif" font-size="9.00" fill="#000000">RegionSelector.js</text>
</a>
</g>
</g>
<!-- frontend&#45;src/Uganda_Districts_2020.json -->
<g id="node2" class="node">
<title>frontend&#45;src/Uganda_Districts_2020.json</title>
<g id="a_node2"><a xlink:href="frontend-src/Uganda_Districts_2020.json" xlink:title="Uganda_Districts_2020.json">
<path fill="#ffee44" stroke="#000000" d="M341,-348C341,-348 220,-348 220,-348 217,-348 214,-345 214,-342 214,-342 214,-336 214,-336 214,-333 217,-330 220,-330 220,-330 341,-330 341,-330 344,-330 347,-333 347,-336 347,-336 347,-342 347,-342 347,-345 344,-348 341,-348"/>
<text text-anchor="middle" x="280.5" y="-336.8" font-family="Helvetica,sans-Serif" font-size="9.00" fill="#000000">Uganda_Districts_2020.json</text>
</a>
</g>
</g>
<!-- frontend&#45;src/Uganda_Regions_2020.json -->
<g id="node3" class="node">
<title>frontend&#45;src/Uganda_Regions_2020.json</title>
<g id="a_node3"><a xlink:href="frontend-src/Uganda_Regions_2020.json" xlink:title="Uganda_Regions_2020.json">
<path fill="#ffee44" stroke="#000000" d="M342,-318C342,-318 219,-318 219,-318 216,-318 213,-315 213,-312 213,-312 213,-306 213,-306 213,-303 216,-300 219,-300 219,-300 342,-300 342,-300 345,-300 348,-303 348,-306 348,-306 348,-312 348,-312 348,-315 345,-318 342,-318"/>
<text text-anchor="middle" x="280.5" y="-306.8" font-family="Helvetica,sans-Serif" font-size="9.00" fill="#000000">Uganda_Regions_2020.json</text>
</a>
</g>
</g>
<!-- frontend&#45;src/basicMultiselect.js -->
<g id="node4" class="node">
<title>frontend&#45;src/basicMultiselect.js</title>
<g id="a_node4"><a xlink:href="frontend-src/basicMultiselect.js" xlink:title="basicMultiselect.js">
<path fill="#ffffcc" stroke="#000000" d="M320,-258C320,-258 241,-258 241,-258 238,-258 235,-255 235,-252 235,-252 235,-246 235,-246 235,-243 238,-240 241,-240 241,-240 320,-240 320,-240 323,-240 326,-243 326,-246 326,-246 326,-252 326,-252 326,-255 323,-258 320,-258"/>
<text text-anchor="middle" x="280.5" y="-246.8" font-family="Helvetica,sans-Serif" font-size="9.00" fill="#000000">basicMultiselect.js</text>
</a>
</g>
</g>
<!-- frontend&#45;src/multiselect/multiselect.min.js -->
<g id="node5" class="node">
<title>frontend&#45;src/multiselect/multiselect.min.js</title>
<g id="a_node5"><a xlink:href="frontend-src/multiselect/multiselect.min.js" xlink:title="multiselect.min.js">
<path fill="#ffffcc" stroke="#000000" d="M444,-221C444,-221 370,-221 370,-221 367,-221 364,-218 364,-215 364,-215 364,-209 364,-209 364,-206 367,-203 370,-203 370,-203 444,-203 444,-203 447,-203 450,-206 450,-209 450,-209 450,-215 450,-215 450,-218 447,-221 444,-221"/>
<text text-anchor="middle" x="407" y="-209.8" font-family="Helvetica,sans-Serif" font-size="9.00" fill="#000000">multiselect.min.js</text>
</a>
</g>
</g>
<!-- frontend&#45;src/basicMultiselect.js&#45;&gt;frontend&#45;src/multiselect/multiselect.min.js -->
<g id="edge1" class="edge">
<title>frontend&#45;src/basicMultiselect.js&#45;&gt;frontend&#45;src/multiselect/multiselect.min.js</title>
<path fill="none" stroke="#000000" stroke-width="2" stroke-opacity="0.200000" d="M326.2761,-242.9138C333.8461,-240.7775 341.3766,-237.8933 348,-234 352.6138,-231.288 351.4287,-227.783 356,-225 356.7805,-224.5248 357.5778,-224.067 358.3894,-223.6258"/>
<polygon fill="#000000" fill-opacity="0.200000" stroke="#000000" stroke-width="2" stroke-opacity="0.200000" points="359.4395,-225.4507 363.9278,-220.949 357.6118,-221.6692 359.4395,-225.4507"/>
</g>
<!-- frontend&#45;src/chartDrawer.js -->
<g id="node6" class="node">
<title>frontend&#45;src/chartDrawer.js</title>
<g id="a_node6"><a xlink:href="frontend-src/chartDrawer.js" xlink:title="chartDrawer.js">
<path fill="#ffffcc" stroke="#000000" d="M312.5,-288C312.5,-288 248.5,-288 248.5,-288 245.5,-288 242.5,-285 242.5,-282 242.5,-282 242.5,-276 242.5,-276 242.5,-273 245.5,-270 248.5,-270 248.5,-270 312.5,-270 312.5,-270 315.5,-270 318.5,-273 318.5,-276 318.5,-276 318.5,-282 318.5,-282 318.5,-285 315.5,-288 312.5,-288"/>
<text text-anchor="middle" x="280.5" y="-276.8" font-family="Helvetica,sans-Serif" font-size="9.00" fill="#000000">chartDrawer.js</text>
</a>
</g>
</g>
<!-- frontend&#45;src/colorScale.js -->
<g id="node7" class="node">
<title>frontend&#45;src/colorScale.js</title>
<g id="a_node7"><a xlink:href="frontend-src/colorScale.js" xlink:title="colorScale.js">
<path fill="#ffffcc" stroke="#000000" d="M435.5,-288C435.5,-288 378.5,-288 378.5,-288 375.5,-288 372.5,-285 372.5,-282 372.5,-282 372.5,-276 372.5,-276 372.5,-273 375.5,-270 378.5,-270 378.5,-270 435.5,-270 435.5,-270 438.5,-270 441.5,-273 441.5,-276 441.5,-276 441.5,-282 441.5,-282 441.5,-285 438.5,-288 435.5,-288"/>
<text text-anchor="middle" x="407" y="-276.8" font-family="Helvetica,sans-Serif" font-size="9.00" fill="#000000">colorScale.js</text>
</a>
</g>
</g>
<!-- frontend&#45;src/chartDrawer.js&#45;&gt;frontend&#45;src/colorScale.js -->
<g id="edge2" class="edge">
<title>frontend&#45;src/chartDrawer.js&#45;&gt;frontend&#45;src/colorScale.js</title>
<path fill="none" stroke="#000000" stroke-width="2" stroke-opacity="0.200000" d="M318.7975,-279C333.6867,-279 350.773,-279 365.918,-279"/>
<polygon fill="#000000" fill-opacity="0.200000" stroke="#000000" stroke-width="2" stroke-opacity="0.200000" points="366.2778,-281.1001 372.2778,-279 366.2777,-276.9001 366.2778,-281.1001"/>
</g>
<!-- frontend&#45;src/coordinates.js -->
<g id="node8" class="node">
<title>frontend&#45;src/coordinates.js</title>
<g id="a_node8"><a xlink:href="frontend-src/coordinates.js" xlink:title="coordinates.js">
<path fill="#ffffcc" stroke="#000000" d="M438,-157C438,-157 376,-157 376,-157 373,-157 370,-154 370,-151 370,-151 370,-145 370,-145 370,-142 373,-139 376,-139 376,-139 438,-139 438,-139 441,-139 444,-142 444,-145 444,-145 444,-151 444,-151 444,-154 441,-157 438,-157"/>
<text text-anchor="middle" x="407" y="-145.8" font-family="Helvetica,sans-Serif" font-size="9.00" fill="#000000">coordinates.js</text>
</a>
</g>
</g>
<!-- frontend&#45;src/exportController.js -->
<g id="node9" class="node">
<title>frontend&#45;src/exportController.js</title>
<g id="a_node9"><a xlink:href="frontend-src/exportController.js" xlink:title="exportController.js">
<path fill="#ffffcc" stroke="#000000" d="M181.5,-124C181.5,-124 101.5,-124 101.5,-124 98.5,-124 95.5,-121 95.5,-118 95.5,-118 95.5,-112 95.5,-112 95.5,-109 98.5,-106 101.5,-106 101.5,-106 181.5,-106 181.5,-106 184.5,-106 187.5,-109 187.5,-112 187.5,-112 187.5,-118 187.5,-118 187.5,-121 184.5,-124 181.5,-124"/>
<text text-anchor="middle" x="141.5" y="-112.8" font-family="Helvetica,sans-Serif" font-size="9.00" fill="#000000">exportController.js</text>
</a>
</g>
</g>
<!-- shared/exportOptions.js -->
<g id="node10" class="node">
<title>shared/exportOptions.js</title>
<g id="a_node10"><a xlink:href="shared/exportOptions.js" xlink:title="exportOptions.js">
<path fill="#ffffcc" stroke="#000000" d="M316,-34C316,-34 245,-34 245,-34 242,-34 239,-31 239,-28 239,-28 239,-22 239,-22 239,-19 242,-16 245,-16 245,-16 316,-16 316,-16 319,-16 322,-19 322,-22 322,-22 322,-28 322,-28 322,-31 319,-34 316,-34"/>
<text text-anchor="middle" x="280.5" y="-22.8" font-family="Helvetica,sans-Serif" font-size="9.00" fill="#000000">exportOptions.js</text>
</a>
</g>
</g>
<!-- frontend&#45;src/exportController.js&#45;&gt;shared/exportOptions.js -->
<g id="edge3" class="edge">
<title>frontend&#45;src/exportController.js&#45;&gt;shared/exportOptions.js</title>
<path fill="none" stroke="#000000" stroke-width="2" stroke-opacity="0.200000" d="M147.3717,-105.9661C158.2676,-89.978 183.2358,-56.8046 213,-40 219.1251,-36.5418 225.9825,-33.8808 232.9161,-31.8333"/>
<polygon fill="#000000" fill-opacity="0.200000" stroke="#000000" stroke-width="2" stroke-opacity="0.200000" points="233.5022,-33.8503 238.7438,-30.2537 232.4033,-29.7966 233.5022,-33.8503"/>
</g>
<!-- frontend&#45;src/httpTools.js -->
<g id="node11" class="node">
<title>frontend&#45;src/httpTools.js</title>
<g id="a_node11"><a xlink:href="frontend-src/httpTools.js" xlink:title="httpTools.js">
<path fill="#ffffcc" stroke="#000000" d="M306,-124C306,-124 255,-124 255,-124 252,-124 249,-121 249,-118 249,-118 249,-112 249,-112 249,-109 252,-106 255,-106 255,-106 306,-106 306,-106 309,-106 312,-109 312,-112 312,-112 312,-118 312,-118 312,-121 309,-124 306,-124"/>
<text text-anchor="middle" x="280.5" y="-112.8" font-family="Helvetica,sans-Serif" font-size="9.00" fill="#000000">httpTools.js</text>
</a>
</g>
</g>
<!-- frontend&#45;src/exportController.js&#45;&gt;frontend&#45;src/httpTools.js -->
<g id="edge4" class="edge">
<title>frontend&#45;src/exportController.js&#45;&gt;frontend&#45;src/httpTools.js</title>
<path fill="none" stroke="#000000" stroke-width="2" stroke-opacity="0.200000" d="M187.785,-115C205.6506,-115 225.8285,-115 242.7877,-115"/>
<polygon fill="#000000" fill-opacity="0.200000" stroke="#000000" stroke-width="2" stroke-opacity="0.200000" points="242.88,-117.1001 248.88,-115 242.8799,-112.9001 242.88,-117.1001"/>
</g>
<!-- frontend&#45;src/filter.css -->
<g id="node12" class="node">
<title>frontend&#45;src/filter.css</title>
<g id="a_node12"><a xlink:href="frontend-src/filter.css" xlink:title="filter.css">
<path fill="#ffffcc" stroke="#000000" d="M301.5,-154C301.5,-154 259.5,-154 259.5,-154 256.5,-154 253.5,-151 253.5,-148 253.5,-148 253.5,-142 253.5,-142 253.5,-139 256.5,-136 259.5,-136 259.5,-136 301.5,-136 301.5,-136 304.5,-136 307.5,-139 307.5,-142 307.5,-142 307.5,-148 307.5,-148 307.5,-151 304.5,-154 301.5,-154"/>
<text text-anchor="middle" x="280.5" y="-142.8" font-family="Helvetica,sans-Serif" font-size="9.00" fill="#000000">filter.css</text>
</a>
</g>
</g>
<!-- frontend&#45;src/filter.js -->
<g id="node13" class="node">
<title>frontend&#45;src/filter.js</title>
<g id="a_node13"><a xlink:href="frontend-src/filter.js" xlink:title="filter.js">
<path fill="#ffffcc" stroke="#000000" d="M162.5,-184C162.5,-184 120.5,-184 120.5,-184 117.5,-184 114.5,-181 114.5,-178 114.5,-178 114.5,-172 114.5,-172 114.5,-169 117.5,-166 120.5,-166 120.5,-166 162.5,-166 162.5,-166 165.5,-166 168.5,-169 168.5,-172 168.5,-172 168.5,-178 168.5,-178 168.5,-181 165.5,-184 162.5,-184"/>
<text text-anchor="middle" x="141.5" y="-172.8" font-family="Helvetica,sans-Serif" font-size="9.00" fill="#000000">filter.js</text>
</a>
</g>
</g>
<!-- frontend&#45;src/filter.js&#45;&gt;frontend&#45;src/basicMultiselect.js -->
<g id="edge5" class="edge">
<title>frontend&#45;src/filter.js&#45;&gt;frontend&#45;src/basicMultiselect.js</title>
<path fill="none" stroke="#000000" stroke-width="2" stroke-opacity="0.200000" d="M168.7786,-176.2596C179.7298,-178.0987 191.6982,-181.994 200,-190 214.6779,-204.1549 198.0951,-220.0843 213,-234 217.5409,-238.2396 223.0043,-241.378 228.8316,-243.6874"/>
<polygon fill="#000000" fill-opacity="0.200000" stroke="#000000" stroke-width="2" stroke-opacity="0.200000" points="228.4026,-245.7607 234.7595,-245.7304 229.7712,-241.7899 228.4026,-245.7607"/>
</g>
<!-- frontend&#45;src/filter.js&#45;&gt;frontend&#45;src/filter.css -->
<g id="edge6" class="edge">
<title>frontend&#45;src/filter.js&#45;&gt;frontend&#45;src/filter.css</title>
<path fill="none" stroke="#000000" stroke-width="2" stroke-opacity="0.200000" d="M168.6306,-169.1445C191.2093,-164.2714 223.4355,-157.3161 247.5051,-152.1212"/>
<polygon fill="#000000" fill-opacity="0.200000" stroke="#000000" stroke-width="2" stroke-opacity="0.200000" points="248.016,-154.1594 253.4379,-150.8408 247.1298,-150.0539 248.016,-154.1594"/>
</g>
<!-- frontend&#45;src/groupedMultiselect.js -->
<g id="node14" class="node">
<title>frontend&#45;src/groupedMultiselect.js</title>
<g id="a_node14"><a xlink:href="frontend-src/groupedMultiselect.js" xlink:title="groupedMultiselect.js">
<path fill="#ffffcc" stroke="#000000" d="M326.5,-198C326.5,-198 234.5,-198 234.5,-198 231.5,-198 228.5,-195 228.5,-192 228.5,-192 228.5,-186 228.5,-186 228.5,-183 231.5,-180 234.5,-180 234.5,-180 326.5,-180 326.5,-180 329.5,-180 332.5,-183 332.5,-186 332.5,-186 332.5,-192 332.5,-192 332.5,-195 329.5,-198 326.5,-198"/>
<text text-anchor="middle" x="280.5" y="-186.8" font-family="Helvetica,sans-Serif" font-size="9.00" fill="#000000">groupedMultiselect.js</text>
</a>
</g>
</g>
<!-- frontend&#45;src/filter.js&#45;&gt;frontend&#45;src/groupedMultiselect.js -->
<g id="edge7" class="edge">
<title>frontend&#45;src/filter.js&#45;&gt;frontend&#45;src/groupedMultiselect.js</title>
<path fill="none" stroke="#000000" stroke-width="2" stroke-opacity="0.200000" d="M168.6306,-177.7326C183.8919,-179.2697 203.5608,-181.2507 222.1393,-183.1219"/>
<polygon fill="#000000" fill-opacity="0.200000" stroke="#000000" stroke-width="2" stroke-opacity="0.200000" points="222.2098,-185.2396 228.3901,-183.7515 222.6308,-181.0607 222.2098,-185.2396"/>
</g>
<!-- frontend&#45;src/multiselect/multiselect.css -->
<g id="node15" class="node">
<title>frontend&#45;src/multiselect/multiselect.css</title>
<g id="a_node15"><a xlink:href="frontend-src/multiselect/multiselect.css" xlink:title="multiselect.css">
<path fill="#ffffcc" stroke="#000000" d="M439,-191C439,-191 375,-191 375,-191 372,-191 369,-188 369,-185 369,-185 369,-179 369,-179 369,-176 372,-173 375,-173 375,-173 439,-173 439,-173 442,-173 445,-176 445,-179 445,-179 445,-185 445,-185 445,-188 442,-191 439,-191"/>
<text text-anchor="middle" x="407" y="-179.8" font-family="Helvetica,sans-Serif" font-size="9.00" fill="#000000">multiselect.css</text>
</a>
</g>
</g>
<!-- frontend&#45;src/filter.js&#45;&gt;frontend&#45;src/multiselect/multiselect.css -->
<g id="edge8" class="edge">
<title>frontend&#45;src/filter.js&#45;&gt;frontend&#45;src/multiselect/multiselect.css</title>
<path fill="none" stroke="#000000" stroke-width="2" stroke-opacity="0.200000" d="M168.5988,-173.6246C208.1024,-171.9019 283.7933,-169.6668 348,-174 352.786,-174.323 357.7757,-174.7918 362.7378,-175.3429"/>
<polygon fill="#000000" fill-opacity="0.200000" stroke="#000000" stroke-width="2" stroke-opacity="0.200000" points="362.7864,-177.4631 368.9911,-176.0802 363.2783,-173.292 362.7864,-177.4631"/>
</g>
<!-- frontend&#45;src/groupedMultiselect.js&#45;&gt;frontend&#45;src/multiselect/multiselect.min.js -->
<g id="edge9" class="edge">
<title>frontend&#45;src/groupedMultiselect.js&#45;&gt;frontend&#45;src/multiselect/multiselect.min.js</title>
<path fill="none" stroke="#000000" stroke-width="2" stroke-opacity="0.200000" d="M330.1331,-198.0242C339.1314,-199.6603 348.5158,-201.3665 357.5101,-203.0018"/>
<polygon fill="#000000" fill-opacity="0.200000" stroke="#000000" stroke-width="2" stroke-opacity="0.200000" points="357.3861,-205.1136 363.665,-204.1209 358.1374,-200.9814 357.3861,-205.1136"/>
</g>
<!-- frontend&#45;src/index.js -->
<g id="node16" class="node">
<title>frontend&#45;src/index.js</title>
<g id="a_node16"><a xlink:href="frontend-src/index.js" xlink:title="index.js">
<path fill="#ffffcc" stroke="#000000" d="M64,-229C64,-229 22,-229 22,-229 19,-229 16,-226 16,-223 16,-223 16,-217 16,-217 16,-214 19,-211 22,-211 22,-211 64,-211 64,-211 67,-211 70,-214 70,-217 70,-217 70,-223 70,-223 70,-226 67,-229 64,-229"/>
<text text-anchor="middle" x="43" y="-217.8" font-family="Helvetica,sans-Serif" font-size="9.00" fill="#000000">index.js</text>
</a>
</g>
</g>
<!-- frontend&#45;src/index.js&#45;&gt;frontend&#45;src/RegionSelector.js -->
<g id="edge15" class="edge">
<title>frontend&#45;src/index.js&#45;&gt;frontend&#45;src/RegionSelector.js</title>
<path fill="none" stroke="#000000" stroke-width="2" stroke-opacity="0.200000" d="M52.7978,-229.0979C60.4821,-235.7775 71.7295,-244.5939 83,-250 86.0133,-251.4454 89.1832,-252.7634 92.4239,-253.9633"/>
<polygon fill="#000000" fill-opacity="0.200000" stroke="#000000" stroke-width="2" stroke-opacity="0.200000" points="91.9583,-256.0242 98.3152,-255.9977 93.3292,-252.0542 91.9583,-256.0242"/>
</g>
<!-- frontend&#45;src/index.js&#45;&gt;frontend&#45;src/exportController.js -->
<g id="edge10" class="edge">
<title>frontend&#45;src/index.js&#45;&gt;frontend&#45;src/exportController.js</title>
<path fill="none" stroke="#000000" stroke-width="2" stroke-opacity="0.200000" d="M44.3938,-210.7717C47.6565,-192.4776 57.5367,-151.5254 83,-130 85.0718,-128.2486 87.3225,-126.6979 89.6947,-125.3254"/>
<polygon fill="#000000" fill-opacity="0.200000" stroke="#000000" stroke-width="2" stroke-opacity="0.200000" points="91.0122,-127.0129 95.4233,-122.4355 89.1204,-123.2631 91.0122,-127.0129"/>
</g>
<!-- frontend&#45;src/index.js&#45;&gt;frontend&#45;src/filter.js -->
<g id="edge11" class="edge">
<title>frontend&#45;src/index.js&#45;&gt;frontend&#45;src/filter.js</title>
<path fill="none" stroke="#000000" stroke-width="2" stroke-opacity="0.200000" d="M52.7978,-210.9021C60.4821,-204.2225 71.7295,-195.4061 83,-190 90.7593,-186.2781 99.5566,-183.4009 107.9286,-181.2093"/>
<polygon fill="#000000" fill-opacity="0.200000" stroke="#000000" stroke-width="2" stroke-opacity="0.200000" points="108.8972,-183.134 114.2237,-179.6644 107.8961,-179.0551 108.8972,-183.134"/>
</g>
<!-- frontend&#45;src/indicatorsController.js -->
<g id="node17" class="node">
<title>frontend&#45;src/indicatorsController.js</title>
<g id="a_node17"><a xlink:href="frontend-src/indicatorsController.js" xlink:title="indicatorsController.js">
<path fill="#ffffcc" stroke="#000000" d="M188.5,-154C188.5,-154 94.5,-154 94.5,-154 91.5,-154 88.5,-151 88.5,-148 88.5,-148 88.5,-142 88.5,-142 88.5,-139 91.5,-136 94.5,-136 94.5,-136 188.5,-136 188.5,-136 191.5,-136 194.5,-139 194.5,-142 194.5,-142 194.5,-148 194.5,-148 194.5,-151 191.5,-154 188.5,-154"/>
<text text-anchor="middle" x="141.5" y="-142.8" font-family="Helvetica,sans-Serif" font-size="9.00" fill="#000000">indicatorsController.js</text>
</a>
</g>
</g>
<!-- frontend&#45;src/index.js&#45;&gt;frontend&#45;src/indicatorsController.js -->
<g id="edge12" class="edge">
<title>frontend&#45;src/index.js&#45;&gt;frontend&#45;src/indicatorsController.js</title>
<path fill="none" stroke="#000000" stroke-width="2" stroke-opacity="0.200000" d="M46.6229,-210.7224C52.3109,-197.4035 64.619,-173.0365 83,-160 84.6249,-158.8475 86.3309,-157.7835 88.0969,-156.8012"/>
<polygon fill="#000000" fill-opacity="0.200000" stroke="#000000" stroke-width="2" stroke-opacity="0.200000" points="89.1136,-158.6411 93.5542,-154.0923 87.2461,-154.879 89.1136,-158.6411"/>
</g>
<!-- frontend&#45;src/main.css -->
<g id="node18" class="node">
<title>frontend&#45;src/main.css</title>
<g id="a_node18"><a xlink:href="frontend-src/main.css" xlink:title="main.css">
<path fill="#ffffcc" stroke="#000000" d="M162.5,-214C162.5,-214 120.5,-214 120.5,-214 117.5,-214 114.5,-211 114.5,-208 114.5,-208 114.5,-202 114.5,-202 114.5,-199 117.5,-196 120.5,-196 120.5,-196 162.5,-196 162.5,-196 165.5,-196 168.5,-199 168.5,-202 168.5,-202 168.5,-208 168.5,-208 168.5,-211 165.5,-214 162.5,-214"/>
<text text-anchor="middle" x="141.5" y="-202.8" font-family="Helvetica,sans-Serif" font-size="9.00" fill="#000000">main.css</text>
</a>
</g>
</g>
<!-- frontend&#45;src/index.js&#45;&gt;frontend&#45;src/main.css -->
<g id="edge13" class="edge">
<title>frontend&#45;src/index.js&#45;&gt;frontend&#45;src/main.css</title>
<path fill="none" stroke="#000000" stroke-width="2" stroke-opacity="0.200000" d="M70.1763,-215.8615C82.0189,-214.058 96.0085,-211.9276 108.447,-210.0334"/>
<polygon fill="#000000" fill-opacity="0.200000" stroke="#000000" stroke-width="2" stroke-opacity="0.200000" points="108.797,-212.1045 114.4124,-209.125 108.1646,-207.9523 108.797,-212.1045"/>
</g>
<!-- frontend&#45;src/map.js -->
<g id="node19" class="node">
<title>frontend&#45;src/map.js</title>
<g id="a_node19"><a xlink:href="frontend-src/map.js" xlink:title="map.js">
<path fill="#ffffcc" stroke="#000000" d="M162.5,-244C162.5,-244 120.5,-244 120.5,-244 117.5,-244 114.5,-241 114.5,-238 114.5,-238 114.5,-232 114.5,-232 114.5,-229 117.5,-226 120.5,-226 120.5,-226 162.5,-226 162.5,-226 165.5,-226 168.5,-229 168.5,-232 168.5,-232 168.5,-238 168.5,-238 168.5,-241 165.5,-244 162.5,-244"/>
<text text-anchor="middle" x="141.5" y="-232.8" font-family="Helvetica,sans-Serif" font-size="9.00" fill="#000000">map.js</text>
</a>
</g>
</g>
<!-- frontend&#45;src/index.js&#45;&gt;frontend&#45;src/map.js -->
<g id="edge14" class="edge">
<title>frontend&#45;src/index.js&#45;&gt;frontend&#45;src/map.js</title>
<path fill="none" stroke="#000000" stroke-width="2" stroke-opacity="0.200000" d="M70.1763,-224.1385C82.0189,-225.942 96.0085,-228.0724 108.447,-229.9666"/>
<polygon fill="#000000" fill-opacity="0.200000" stroke="#000000" stroke-width="2" stroke-opacity="0.200000" points="108.1646,-232.0477 114.4124,-230.875 108.797,-227.8955 108.1646,-232.0477"/>
</g>
<!-- frontend&#45;src/ugandaShapefiles.js -->
<g id="node20" class="node">
<title>frontend&#45;src/ugandaShapefiles.js</title>
<g id="a_node20"><a xlink:href="frontend-src/ugandaShapefiles.js" xlink:title="ugandaShapefiles.js">
<path fill="#ffffcc" stroke="#000000" d="M186,-334C186,-334 97,-334 97,-334 94,-334 91,-331 91,-328 91,-328 91,-322 91,-322 91,-319 94,-316 97,-316 97,-316 186,-316 186,-316 189,-316 192,-319 192,-322 192,-322 192,-328 192,-328 192,-331 189,-334 186,-334"/>
<text text-anchor="middle" x="141.5" y="-322.8" font-family="Helvetica,sans-Serif" font-size="9.00" fill="#000000">ugandaShapefiles.js</text>
</a>
</g>
</g>
<!-- frontend&#45;src/index.js&#45;&gt;frontend&#45;src/ugandaShapefiles.js -->
<g id="edge16" class="edge">
<title>frontend&#45;src/index.js&#45;&gt;frontend&#45;src/ugandaShapefiles.js</title>
<path fill="none" stroke="#000000" stroke-width="2" stroke-opacity="0.200000" d="M44.3938,-229.2283C47.6565,-247.5224 57.5367,-288.4746 83,-310 84.1911,-311.0069 85.4412,-311.9474 86.7396,-312.8258"/>
<polygon fill="#000000" fill-opacity="0.200000" stroke="#000000" stroke-width="2" stroke-opacity="0.200000" points="85.7301,-314.6685 91.9635,-315.9155 87.8682,-311.0535 85.7301,-314.6685"/>
</g>
<!-- frontend&#45;src/visualizationController.js -->
<g id="node21" class="node">
<title>frontend&#45;src/visualizationController.js</title>
<g id="a_node21"><a xlink:href="frontend-src/visualizationController.js" xlink:title="visualizationController.js">
<path fill="#ffffcc" stroke="#000000" d="M194,-304C194,-304 89,-304 89,-304 86,-304 83,-301 83,-298 83,-298 83,-292 83,-292 83,-289 86,-286 89,-286 89,-286 194,-286 194,-286 197,-286 200,-289 200,-292 200,-292 200,-298 200,-298 200,-301 197,-304 194,-304"/>
<text text-anchor="middle" x="141.5" y="-292.8" font-family="Helvetica,sans-Serif" font-size="9.00" fill="#000000">visualizationController.js</text>
</a>
</g>
</g>
<!-- frontend&#45;src/index.js&#45;&gt;frontend&#45;src/visualizationController.js -->
<g id="edge17" class="edge">
<title>frontend&#45;src/index.js&#45;&gt;frontend&#45;src/visualizationController.js</title>
<path fill="none" stroke="#000000" stroke-width="2" stroke-opacity="0.200000" d="M46.6229,-229.2776C52.3109,-242.5965 64.619,-266.9635 83,-280 84.6249,-281.1525 86.3309,-282.2165 88.0969,-283.1988"/>
<polygon fill="#000000" fill-opacity="0.200000" stroke="#000000" stroke-width="2" stroke-opacity="0.200000" points="87.2461,-285.121 93.5542,-285.9077 89.1136,-281.3589 87.2461,-285.121"/>
</g>
<!-- frontend&#45;src/indicatorsController.js&#45;&gt;frontend&#45;src/httpTools.js -->
<g id="edge18" class="edge">
<title>frontend&#45;src/indicatorsController.js&#45;&gt;frontend&#45;src/httpTools.js</title>
<path fill="none" stroke="#000000" stroke-width="2" stroke-opacity="0.200000" d="M183.2046,-135.999C202.1719,-131.9054 224.446,-127.098 242.8926,-123.1167"/>
<polygon fill="#000000" fill-opacity="0.200000" stroke="#000000" stroke-width="2" stroke-opacity="0.200000" points="243.5694,-125.1191 248.9913,-121.8004 242.6833,-121.0136 243.5694,-125.1191"/>
</g>
<!-- frontend&#45;src/ugandaShapefiles.js&#45;&gt;frontend&#45;src/Uganda_Districts_2020.json -->
<g id="edge20" class="edge">
<title>frontend&#45;src/ugandaShapefiles.js&#45;&gt;frontend&#45;src/Uganda_Districts_2020.json</title>
<path fill="none" stroke="#000000" stroke-width="2" stroke-opacity="0.200000" d="M192.0754,-330.0939C197.0967,-330.5997 202.2607,-331.1198 207.4511,-331.6426"/>
<polygon fill="#000000" fill-opacity="0.200000" stroke="#000000" stroke-width="2" stroke-opacity="0.200000" points="207.3692,-333.7448 213.5494,-332.2568 207.7901,-329.566 207.3692,-333.7448"/>
</g>
<!-- frontend&#45;src/ugandaShapefiles.js&#45;&gt;frontend&#45;src/Uganda_Regions_2020.json -->
<g id="edge21" class="edge">
<title>frontend&#45;src/ugandaShapefiles.js&#45;&gt;frontend&#45;src/Uganda_Regions_2020.json</title>
<path fill="none" stroke="#000000" stroke-width="2" stroke-opacity="0.200000" d="M192.0754,-319.1784C196.7692,-318.6381 201.5877,-318.0834 206.436,-317.5254"/>
<polygon fill="#000000" fill-opacity="0.200000" stroke="#000000" stroke-width="2" stroke-opacity="0.200000" points="206.8654,-319.5899 212.5858,-316.8175 206.385,-315.4174 206.8654,-319.5899"/>
</g>
<!-- frontend&#45;src/visualizationController.js&#45;&gt;frontend&#45;src/basicMultiselect.js -->
<g id="edge24" class="edge">
<title>frontend&#45;src/visualizationController.js&#45;&gt;frontend&#45;src/basicMultiselect.js</title>
<path fill="none" stroke="#000000" stroke-width="2" stroke-opacity="0.200000" d="M188.3196,-285.9377C192.4194,-284.2796 196.3803,-282.3188 200,-280 207.7152,-275.0576 205.2059,-268.817 213,-264 217.9782,-260.9233 223.5082,-258.4744 229.1993,-256.5258"/>
<polygon fill="#000000" fill-opacity="0.200000" stroke="#000000" stroke-width="2" stroke-opacity="0.200000" points="229.8267,-258.53 234.9297,-254.7393 228.5765,-254.5204 229.8267,-258.53"/>
</g>
<!-- frontend&#45;src/visualizationController.js&#45;&gt;frontend&#45;src/chartDrawer.js -->
<g id="edge25" class="edge">
<title>frontend&#45;src/visualizationController.js&#45;&gt;frontend&#45;src/chartDrawer.js</title>
<path fill="none" stroke="#000000" stroke-width="2" stroke-opacity="0.200000" d="M200.0457,-288.2609C212.0652,-286.8774 224.5332,-285.4422 235.9624,-284.1266"/>
<polygon fill="#000000" fill-opacity="0.200000" stroke="#000000" stroke-width="2" stroke-opacity="0.200000" points="236.4753,-286.1816 242.1957,-283.4091 235.9949,-282.0091 236.4753,-286.1816"/>
</g>
<!-- frontend&#45;src/visualizationController.js&#45;&gt;frontend&#45;src/httpTools.js -->
<g id="edge27" class="edge">
<title>frontend&#45;src/visualizationController.js&#45;&gt;frontend&#45;src/httpTools.js</title>
<path fill="none" stroke="#000000" stroke-width="2" stroke-opacity="0.200000" d="M193.5364,-285.8282C195.9189,-284.1685 198.1017,-282.2395 200,-280 221.6342,-254.4771 190.956,-155.1698 213,-130 220.4742,-121.4659 231.6283,-117.1884 242.7269,-115.1878"/>
<polygon fill="#000000" fill-opacity="0.200000" stroke="#000000" stroke-width="2" stroke-opacity="0.200000" points="243.2268,-117.2374 248.8633,-114.2981 242.6241,-113.0809 243.2268,-117.2374"/>
</g>
<!-- frontend&#45;src/visualizationController.js&#45;&gt;frontend&#45;src/groupedMultiselect.js -->
<g id="edge26" class="edge">
<title>frontend&#45;src/visualizationController.js&#45;&gt;frontend&#45;src/groupedMultiselect.js</title>
<path fill="none" stroke="#000000" stroke-width="2" stroke-opacity="0.200000" d="M192.7943,-285.9777C195.433,-284.2899 197.8684,-282.313 200,-280 223.223,-254.8005 189.3727,-228.8208 213,-204 215.8918,-200.9622 219.2514,-198.4742 222.8974,-196.4424"/>
<polygon fill="#000000" fill-opacity="0.200000" stroke="#000000" stroke-width="2" stroke-opacity="0.200000" points="223.9284,-198.2768 228.4229,-193.7813 222.106,-194.4928 223.9284,-198.2768"/>
</g>
<!-- frontend&#45;src/mapVisualization.js -->
<g id="node22" class="node">
<title>frontend&#45;src/mapVisualization.js</title>
<g id="a_node22"><a xlink:href="frontend-src/mapVisualization.js" xlink:title="mapVisualization.js">
<path fill="#ffffcc" stroke="#000000" d="M322.5,-228C322.5,-228 238.5,-228 238.5,-228 235.5,-228 232.5,-225 232.5,-222 232.5,-222 232.5,-216 232.5,-216 232.5,-213 235.5,-210 238.5,-210 238.5,-210 322.5,-210 322.5,-210 325.5,-210 328.5,-213 328.5,-216 328.5,-216 328.5,-222 328.5,-222 328.5,-225 325.5,-228 322.5,-228"/>
<text text-anchor="middle" x="280.5" y="-216.8" font-family="Helvetica,sans-Serif" font-size="9.00" fill="#000000">mapVisualization.js</text>
</a>
</g>
</g>
<!-- frontend&#45;src/visualizationController.js&#45;&gt;frontend&#45;src/mapVisualization.js -->
<g id="edge22" class="edge">
<title>frontend&#45;src/visualizationController.js&#45;&gt;frontend&#45;src/mapVisualization.js</title>
<path fill="none" stroke="#000000" stroke-width="2" stroke-opacity="0.200000" d="M192.2435,-285.8673C195.0532,-284.2103 197.6738,-282.2701 200,-280 215.2049,-265.162 197.5572,-248.5903 213,-234 216.8885,-230.3261 221.4686,-227.4768 226.3816,-225.2763"/>
<polygon fill="#000000" fill-opacity="0.200000" stroke="#000000" stroke-width="2" stroke-opacity="0.200000" points="227.4508,-227.1137 232.2806,-222.9805 225.9275,-223.1996 227.4508,-227.1137"/>
</g>
<!-- shared/visualizations.js -->
<g id="node23" class="node">
<title>shared/visualizations.js</title>
<g id="a_node23"><a xlink:href="shared/visualizations.js" xlink:title="visualizations.js">
<path fill="#ffffcc" stroke="#000000" d="M315,-64C315,-64 246,-64 246,-64 243,-64 240,-61 240,-58 240,-58 240,-52 240,-52 240,-49 243,-46 246,-46 246,-46 315,-46 315,-46 318,-46 321,-49 321,-52 321,-52 321,-58 321,-58 321,-61 318,-64 315,-64"/>
<text text-anchor="middle" x="280.5" y="-52.8" font-family="Helvetica,sans-Serif" font-size="9.00" fill="#000000">visualizations.js</text>
</a>
</g>
</g>
<!-- frontend&#45;src/visualizationController.js&#45;&gt;shared/visualizations.js -->
<g id="edge23" class="edge">
<title>frontend&#45;src/visualizationController.js&#45;&gt;shared/visualizations.js</title>
<path fill="none" stroke="#000000" stroke-width="2" stroke-opacity="0.200000" d="M193.58,-285.8648C195.9515,-284.1959 198.12,-282.2549 200,-280 226.3911,-248.3459 191.3535,-130.0699 213,-95 220.9507,-82.1189 234.7177,-72.8836 247.7534,-66.5561"/>
<polygon fill="#000000" fill-opacity="0.200000" stroke="#000000" stroke-width="2" stroke-opacity="0.200000" points="248.6999,-68.4324 253.2763,-64.0202 246.9473,-64.6155 248.6999,-68.4324"/>
</g>
<!-- frontend&#45;src/mapVisualization.js&#45;&gt;frontend&#45;src/coordinates.js -->
<g id="edge19" class="edge">
<title>frontend&#45;src/mapVisualization.js&#45;&gt;frontend&#45;src/coordinates.js</title>
<path fill="none" stroke="#000000" stroke-width="2" stroke-opacity="0.200000" d="M328.7694,-215.5346C335.9723,-213.0937 342.7342,-209.4286 348,-204 361.2305,-190.3604 343.1093,-175.9612 356,-162 358.3747,-159.4281 361.1732,-157.3118 364.2166,-155.5723"/>
<polygon fill="#000000" fill-opacity="0.200000" stroke="#000000" stroke-width="2" stroke-opacity="0.200000" points="365.4222,-157.3229 369.9206,-152.8314 363.603,-153.5373 365.4222,-157.3229"/>
</g>
</g>
</svg>
